{"glyphs":{":":{"x_min":0,"x_max":236,"ha":236,"o":"m -6 90 b 12 64 34 65 61 91 b 64 91 66 91 69 93 b 79 102 91 111 100 122 b 115 136 119 154 123 174 b 123 178 121 184 119 188 b 114 199 107 208 100 218 b 98 222 97 228 94 232 b 91 233 89 235 86 235 b 77 234 68 235 60 242 b 43 255 26 250 15 230 b 7 215 -2 199 -7 182 b -15 162 -20 141 -15 120 b -12 111 -8 102 -6 90 z m 133 408 b 141 412 150 414 155 419 b 176 442 197 465 214 491 b 230 514 214 548 186 554 b 174 556 161 555 151 567 b 150 568 146 568 144 568 b 128 564 114 558 106 542 b 102 534 100 523 94 516 b 76 489 83 463 94 437 b 100 421 114 412 133 408 z"},"$":{"x_min":0,"x_max":673,"ha":673,"o":"m 237 492 b 241 499 239 503 229 506 b 229 497 226 490 224 482 b 234 480 236 486 237 492 z m 183 22 b 183 20 184 17 185 14 b 187 17 189 19 193 22 b 192 25 191 27 190 29 b 188 27 184 25 183 22 z m 231 463 b 232 464 229 467 228 469 b 226 467 223 466 223 464 b 219 452 216 439 213 426 b 225 436 229 450 231 463 z m 257 374 b 259 382 262 389 263 395 b 252 389 253 383 257 374 z m 212 394 b 215 401 218 407 221 415 b 218 416 216 418 213 419 b 210 410 210 402 208 395 b 210 395 211 394 212 394 z m 260 413 b 259 413 256 411 254 411 l 263 403 b 265 404 266 405 266 406 b 264 408 262 411 260 413 z m 580 409 b 579 411 577 412 577 414 b 575 425 575 437 570 447 b 567 458 569 470 563 481 b 550 509 532 532 503 547 b 496 550 490 555 484 560 b 475 565 469 570 459 575 b 454 578 449 581 443 583 b 433 586 422 589 412 592 b 414 598 416 600 418 603 b 415 605 411 607 409 608 b 416 617 421 623 425 631 b 432 652 436 674 444 696 b 446 703 447 710 446 715 b 444 723 445 728 451 733 b 455 736 458 741 452 745 b 445 750 446 753 456 758 b 462 761 465 765 465 772 b 464 774 465 777 466 780 b 470 790 474 800 475 810 b 478 818 481 821 490 820 b 493 820 496 822 500 823 b 516 830 530 836 546 843 b 548 845 551 847 552 850 b 563 869 560 887 551 903 b 546 908 540 911 539 917 b 536 925 531 929 522 930 b 520 930 517 935 518 937 b 519 948 517 959 529 968 b 530 968 529 971 529 973 b 532 986 533 1000 536 1013 b 540 1025 547 1036 550 1048 b 553 1062 553 1077 546 1090 b 545 1091 545 1095 546 1096 b 558 1105 547 1113 548 1121 b 548 1123 543 1127 541 1127 b 528 1127 520 1139 506 1133 b 505 1132 503 1133 502 1134 b 494 1138 493 1134 491 1128 b 486 1106 481 1084 476 1063 b 473 1052 468 1041 466 1030 b 457 993 450 956 442 920 b 440 914 434 906 430 903 b 418 896 406 891 393 886 b 390 884 387 884 381 883 b 385 891 386 896 389 901 b 391 907 396 913 397 919 b 400 935 402 951 402 966 b 402 980 401 994 397 1007 b 398 1010 391 1012 387 1014 b 381 1016 374 1018 368 1020 b 365 1019 361 1016 357 1013 b 355 1017 353 1021 351 1026 b 347 1022 341 1018 340 1013 b 334 995 329 976 325 958 b 321 944 321 930 317 916 b 315 906 311 896 308 887 b 306 875 305 863 303 851 b 303 842 299 836 293 831 b 271 817 250 803 229 789 b 207 772 182 755 168 729 b 166 726 166 722 166 719 b 166 715 170 709 169 707 b 161 697 164 686 162 675 b 161 664 163 656 166 647 b 167 643 168 640 170 636 b 174 626 179 616 182 606 b 190 588 209 583 225 575 b 240 567 243 562 238 544 b 235 533 232 522 230 510 b 245 516 245 516 242 528 b 241 529 242 532 243 535 b 244 538 246 541 248 545 b 250 551 254 557 262 556 b 271 556 269 549 268 542 b 268 540 268 538 268 536 b 267 526 257 516 263 506 b 263 506 263 503 263 502 b 261 496 258 491 258 486 b 255 477 255 468 252 460 b 249 447 247 435 242 423 b 240 416 241 410 242 403 b 240 393 235 381 233 370 b 228 348 223 326 220 304 b 220 301 220 297 219 294 b 223 301 226 308 228 315 b 231 321 231 327 233 333 b 235 351 238 369 241 387 b 244 399 248 411 252 421 b 260 427 266 431 271 436 b 277 444 277 454 273 462 b 269 468 267 476 265 483 b 264 484 266 486 267 487 b 272 493 280 498 284 504 b 285 506 286 511 285 515 b 285 516 280 516 278 517 b 279 518 281 519 283 520 b 286 523 290 527 295 533 b 290 532 288 532 286 532 b 284 533 282 535 280 537 b 281 539 285 541 287 541 b 302 541 317 540 331 539 b 337 539 342 536 340 530 b 339 521 337 512 335 503 b 329 479 322 454 316 430 b 315 429 317 427 317 424 b 319 427 320 429 320 430 b 324 447 332 465 333 482 b 335 494 347 504 340 517 b 340 517 340 518 340 519 b 345 524 350 529 358 528 b 366 527 370 524 369 516 b 369 509 367 502 367 495 b 367 485 353 474 365 468 b 362 464 356 461 355 457 b 350 441 348 425 343 409 b 340 394 336 379 332 365 b 331 363 331 361 331 359 b 328 349 329 338 324 329 b 319 320 319 314 325 309 b 324 308 324 307 323 307 b 314 297 313 295 320 284 b 321 283 317 278 315 276 b 310 270 303 266 308 256 b 300 253 291 250 283 246 b 273 241 265 235 254 231 b 243 227 231 225 220 223 b 213 222 210 224 210 231 b 211 235 211 239 211 244 b 208 239 204 233 205 229 b 206 219 201 217 194 215 b 187 213 179 213 172 210 b 145 197 116 196 88 193 b 62 189 36 188 12 188 b -10 188 -33 190 -54 192 b -68 193 -83 196 -97 199 b -99 199 -101 201 -103 202 b -105 203 -107 206 -110 207 b -121 213 -132 218 -142 225 b -153 231 -162 239 -161 253 b -160 268 -158 284 -155 299 b -152 314 -151 330 -141 343 b -141 344 -141 346 -141 347 b -145 355 -138 360 -133 364 b -127 368 -124 371 -122 378 b -121 386 -116 395 -111 402 b -95 426 -78 449 -62 473 b -60 475 -59 478 -57 482 b -59 481 -60 481 -61 480 b -69 475 -72 480 -74 485 b -77 492 -71 492 -66 495 b -61 497 -57 501 -54 505 b -48 511 -44 517 -39 524 b -37 526 -36 528 -35 530 b -36 531 -36 531 -36 532 b -39 530 -41 528 -43 526 b -60 510 -78 495 -91 476 b -96 466 -109 461 -113 449 b -115 448 -121 448 -124 448 b -122 451 -122 454 -121 457 b -120 459 -116 461 -114 463 b -119 468 -120 468 -124 464 b -133 454 -142 444 -149 435 b -155 430 -162 427 -166 421 b -175 408 -182 396 -185 381 b -185 378 -186 375 -188 372 b -195 354 -200 336 -199 318 b -200 316 -201 315 -201 313 b -203 307 -205 301 -205 295 b -202 268 -201 240 -196 213 b -194 202 -188 191 -183 180 b -177 169 -169 159 -165 146 b -158 124 -140 111 -124 98 b -112 88 -95 84 -81 79 b -66 75 -52 75 -37 70 b -23 64 -7 64 9 66 b 26 69 40 65 54 77 b 55 78 57 77 58 77 b 63 78 67 78 72 78 b 76 79 81 80 85 80 b 103 80 121 82 139 89 b 148 93 154 94 155 82 b 160 84 164 84 168 87 b 170 90 173 92 176 92 b 174 88 172 84 172 80 b 170 74 170 68 169 62 b 178 62 185 62 194 62 b 189 57 185 54 182 52 b 179 50 176 49 174 49 b 164 52 161 49 162 40 b 163 36 164 32 162 29 b 153 8 153 8 171 -2 b 171 -2 171 -3 171 -3 b 167 -5 163 -8 160 -10 b 163 -12 166 -14 167 -15 b 168 -22 170 -29 173 -36 b 168 -34 165 -32 162 -31 b 161 -34 159 -38 158 -41 b 158 -45 160 -49 159 -54 b 149 -61 145 -72 147 -85 b 147 -86 146 -89 146 -90 b 144 -98 142 -106 138 -114 b 136 -122 136 -128 146 -125 b 144 -131 142 -137 139 -143 l 130 -142 b 126 -152 125 -163 114 -167 b 113 -168 113 -170 112 -172 b 110 -176 109 -181 107 -187 b 115 -197 114 -203 100 -213 b 98 -214 95 -221 95 -221 b 105 -225 100 -233 100 -239 b 101 -245 99 -251 90 -253 b 89 -253 86 -255 85 -257 b 86 -258 88 -260 89 -261 b 94 -263 97 -265 100 -267 b 99 -268 98 -269 98 -270 b 90 -270 82 -276 78 -285 b 75 -297 71 -310 69 -322 b 67 -332 65 -342 64 -352 b 64 -359 65 -365 76 -362 b 79 -362 85 -364 88 -367 b 91 -372 95 -374 102 -371 b 108 -369 114 -367 113 -359 b 113 -357 115 -355 117 -353 b 122 -341 128 -329 133 -316 b 135 -313 136 -309 137 -305 b 138 -300 139 -296 140 -291 b 141 -283 141 -274 144 -266 b 149 -256 155 -246 144 -238 b 143 -238 144 -235 144 -233 b 143 -228 140 -223 140 -218 b 139 -216 137 -214 137 -211 b 139 -202 141 -193 141 -184 b 143 -172 152 -160 144 -148 b 143 -148 145 -144 146 -144 b 158 -136 154 -124 156 -115 b 152 -113 152 -111 149 -109 b 151 -106 153 -103 155 -102 b 169 -92 171 -84 162 -71 b 160 -70 162 -65 162 -65 b 177 -62 175 -53 174 -42 b 174 -42 175 -41 175 -40 b 178 -28 185 -15 176 -4 b 181 -1 184 2 186 5 b 182 5 178 5 173 5 b 168 8 180 20 166 19 b 171 25 175 29 176 34 b 177 43 182 45 189 43 b 191 42 198 44 198 46 b 201 52 204 60 206 67 b 208 70 207 74 207 77 b 203 76 200 74 197 73 b 192 73 187 73 182 73 b 182 77 183 81 183 84 b 184 86 184 87 184 89 b 185 89 185 88 185 88 b 188 92 190 95 192 98 b 194 100 198 104 199 104 b 208 101 215 110 224 112 b 227 112 233 113 235 111 b 242 103 245 106 249 113 b 253 116 256 118 258 119 b 262 120 267 121 270 119 b 272 118 271 113 271 110 b 270 101 268 92 266 84 b 265 81 265 79 266 76 b 264 73 263 70 261 67 b 260 59 255 50 256 42 b 257 21 240 0 252 -21 b 249 -21 245 -22 242 -22 b 240 -39 235 -56 233 -68 b 243 -73 249 -75 255 -79 b 255 -79 252 -84 251 -86 b 244 -83 239 -81 233 -79 b 232 -81 231 -82 230 -83 b 226 -113 224 -142 221 -171 b 220 -178 225 -185 227 -192 b 227 -191 228 -189 230 -188 b 234 -188 240 -186 244 -188 b 247 -191 250 -196 253 -201 b 253 -200 254 -199 254 -198 b 259 -198 264 -199 268 -199 b 271 -199 275 -200 277 -198 b 278 -197 278 -194 278 -191 b 278 -190 277 -188 278 -186 b 280 -178 284 -169 284 -160 b 285 -158 286 -154 285 -152 b 280 -140 281 -125 284 -111 b 285 -90 291 -69 295 -48 b 298 -34 299 -20 301 -6 b 302 -1 303 4 305 9 b 309 29 313 49 317 69 b 321 89 331 141 336 161 b 336 161 336 162 336 162 b 340 163 344 165 347 166 b 355 170 363 174 372 178 b 376 179 378 183 381 184 b 390 190 400 194 410 200 b 423 208 436 217 451 226 b 453 227 455 231 455 233 b 456 240 458 242 463 239 b 467 235 470 235 473 239 b 478 245 485 250 491 255 b 503 266 516 277 529 288 b 531 291 535 294 537 297 b 541 307 549 316 555 326 b 562 339 564 355 578 365 b 578 365 579 366 579 366 b 580 379 583 391 585 404 b 585 405 582 407 580 409 z m 268 685 b 265 673 264 661 260 649 b 260 647 253 643 252 644 b 242 648 233 652 224 658 b 218 664 227 671 231 675 b 240 684 252 692 262 700 b 266 703 270 702 270 696 b 270 692 269 688 268 684 b 268 684 268 685 268 685 z m 299 690 b 305 677 296 665 292 653 b 291 651 293 648 292 646 b 290 642 289 636 286 635 b 282 633 277 637 272 638 b 274 642 277 646 281 652 b 281 652 281 654 279 655 b 274 661 276 665 283 670 b 293 676 285 679 278 682 b 283 687 287 692 291 697 b 298 703 293 707 288 711 b 293 716 298 721 304 726 b 306 716 309 705 302 694 b 301 693 300 691 299 690 z m 122 -199 b 120 -200 118 -196 117 -193 b 119 -192 122 -189 124 -189 b 127 -188 128 -191 131 -194 b 127 -197 124 -199 122 -199 z m 431 787 b 434 788 438 787 439 786 b 441 784 440 781 440 778 b 440 773 439 768 437 764 b 435 760 431 756 428 755 b 422 752 415 751 409 750 b 406 762 417 783 431 787 z m 398 722 b 399 724 400 726 401 726 b 411 728 416 735 419 743 b 419 744 423 745 423 744 b 425 742 428 739 429 737 b 427 732 426 727 424 722 b 422 715 417 715 407 722 b 404 715 405 712 412 711 b 415 711 418 709 420 707 b 421 707 419 702 418 702 b 414 701 410 700 406 701 b 403 701 399 704 396 706 b 397 711 396 716 398 722 z m 362 622 b 359 612 354 610 345 613 b 337 615 330 618 321 621 b 311 625 310 630 313 642 b 318 657 322 671 326 685 b 333 701 331 719 343 734 b 344 735 344 735 344 735 b 341 759 363 760 376 769 b 380 773 385 776 390 779 b 392 780 398 782 398 781 b 400 780 401 776 403 773 b 398 757 393 741 388 726 b 388 725 388 724 388 723 b 382 689 371 655 362 622 z m 378 608 b 365 608 364 610 369 623 b 374 634 377 646 380 658 b 384 670 386 682 390 694 b 391 696 394 699 394 699 b 397 698 401 697 402 695 b 406 689 410 682 411 674 b 413 669 409 662 407 656 b 402 645 399 635 397 624 b 394 613 390 607 378 608 z m -84 116 b -87 117 -89 120 -90 123 b -90 124 -85 128 -85 128 b -83 127 -80 124 -76 121 b -80 118 -84 115 -84 116 z m 134 100 b 133 100 131 102 131 104 b 132 106 134 108 136 110 b 137 110 139 107 143 105 b 139 103 136 101 134 100 z m 272 176 b 267 176 263 178 259 176 b 251 174 246 169 240 166 b 234 163 226 160 219 159 b 212 158 208 157 209 148 b 209 147 206 144 205 142 b 203 144 201 146 201 148 b 202 154 204 161 205 168 b 205 170 203 173 203 175 b 204 176 200 176 198 175 b 195 173 194 169 194 166 b 193 161 194 156 193 151 b 191 145 171 132 166 131 b 163 131 159 130 156 129 b 153 128 148 125 146 127 b 136 134 127 123 117 119 b 113 118 109 116 105 116 b 90 118 76 120 60 112 b 56 110 47 113 42 115 b 37 118 33 119 26 115 b 23 114 21 115 19 115 b 17 115 16 116 14 115 b 3 102 -8 110 -19 113 b -25 114 -29 115 -34 117 b -37 118 -40 120 -43 122 b -40 124 -37 126 -34 127 b -29 128 -25 129 -19 130 b -30 137 -40 136 -48 126 b -53 119 -71 122 -74 130 b -75 136 -78 139 -84 138 b -86 138 -89 141 -91 142 b -95 144 -98 147 -102 147 b -108 147 -112 148 -108 155 b -105 161 -107 163 -112 165 b -122 170 -133 174 -140 179 b -144 181 -147 185 -149 189 b -150 190 -148 194 -147 195 b -143 196 -138 197 -135 196 b -109 182 -81 175 -51 175 b -41 175 -32 171 -23 172 b 18 176 56 179 95 184 b 122 187 148 192 173 196 b 174 196 176 196 180 195 b 174 191 170 189 165 186 b 165 186 166 185 166 185 b 170 185 175 185 180 186 b 183 187 184 192 185 195 b 187 197 189 201 190 201 b 192 201 196 199 196 197 b 198 193 199 189 200 184 b 202 185 203 185 203 186 b 209 193 204 205 217 208 b 227 211 235 215 244 217 b 251 218 258 216 264 216 b 266 216 268 217 269 218 b 274 220 280 224 285 226 b 288 227 292 228 296 229 b 296 225 295 221 294 217 b 292 210 289 203 286 196 b 285 193 284 191 284 188 b 285 178 280 176 272 176 z m 261 -66 b 245 -59 244 -55 263 -25 b 266 -30 268 -33 268 -36 b 266 -46 262 -56 261 -66 z m 260 16 b 264 12 268 9 270 5 b 271 3 273 -1 272 -3 b 269 -5 265 -8 262 -8 b 261 -8 259 -5 258 -2 b 255 5 256 12 260 16 z m 272 22 b 271 20 268 21 266 20 b 256 19 254 22 258 31 b 260 33 258 37 258 39 b 260 42 263 46 265 48 b 266 48 270 46 272 45 b 274 44 274 42 275 41 b 278 38 284 34 283 31 b 282 28 276 24 272 22 z m 296 87 b 293 78 291 66 287 54 b 287 51 284 49 283 46 b 282 46 281 47 280 47 b 279 50 278 54 279 57 b 256 52 266 65 267 74 b 268 74 269 74 270 74 b 271 77 272 80 273 83 b 274 86 273 89 274 90 b 284 98 283 111 290 121 b 292 125 292 131 294 136 b 297 142 302 147 306 150 b 305 137 302 120 302 117 b 302 115 300 114 300 113 b 299 109 297 103 299 100 b 299 98 305 99 309 99 b 310 98 310 97 311 96 b 307 94 302 91 296 87 z m 350 182 b 349 182 346 185 346 186 b 348 188 350 190 355 194 b 356 190 358 188 357 187 b 355 184 353 183 350 182 z m 433 290 b 427 285 420 279 415 274 l 419 270 b 422 270 425 270 427 270 b 425 263 427 258 426 252 b 424 249 421 245 418 244 b 396 233 373 223 350 212 b 346 210 343 207 341 203 b 334 192 329 190 320 194 b 319 205 317 215 317 225 b 315 230 327 246 335 250 b 355 260 374 271 391 280 b 406 286 418 295 433 301 b 437 303 441 308 446 312 b 450 316 456 320 460 315 b 463 309 458 305 454 303 b 448 298 440 295 433 290 z m 460 263 b 458 267 456 269 455 272 b 456 273 458 277 460 276 b 463 275 465 273 469 271 b 466 269 464 267 460 263 z m 539 432 b 533 420 528 408 522 397 b 506 368 478 348 451 329 b 437 318 421 308 407 299 b 389 290 371 284 353 274 b 345 269 337 268 328 267 b 326 267 324 269 323 271 b 322 271 323 275 324 276 b 339 280 335 285 328 289 b 335 299 340 307 344 316 b 347 326 346 337 350 346 b 356 358 343 362 342 373 b 345 373 347 372 349 372 b 351 372 355 372 356 373 b 357 375 359 379 357 381 b 350 391 359 398 363 407 b 367 414 371 420 366 427 b 365 429 370 434 372 437 b 373 438 372 439 373 441 b 371 442 369 443 368 444 b 362 446 365 450 369 452 b 377 456 380 462 382 469 b 383 477 385 486 387 495 b 382 493 380 493 377 492 b 377 499 378 503 386 505 b 388 506 393 509 393 511 b 395 517 399 518 405 518 b 429 517 448 506 470 496 b 484 489 499 481 513 473 b 522 467 529 461 536 454 b 542 448 544 441 539 432 z m 108 172 b 108 171 109 170 109 169 b 119 171 129 174 141 176 b 141 177 141 178 141 179 b 130 177 118 174 108 172 z m 251 186 b 266 196 268 199 261 209 b 258 201 255 193 251 186 z m 86 168 b 86 167 86 166 86 164 b 91 165 96 165 102 166 b 102 166 101 167 101 168 l 86 168 z m -75 155 b -79 156 -85 157 -87 159 b -89 166 -93 165 -99 161 b -90 147 -77 145 -58 156 b -65 156 -70 155 -75 155 z m 17 134 b 8 133 0 133 -11 132 b -3 125 8 126 17 134 z m -4 151 b -1 150 2 149 4 150 b 9 150 14 151 18 152 b 29 153 37 154 47 155 b 49 156 51 157 54 159 b 50 164 6 159 -4 151 z"},"?":{"x_min":0,"x_max":568,"ha":568,"o":"m 313 623 l 312 623 b 316 622 320 622 323 621 b 331 619 337 624 348 626 b 341 630 338 633 335 635 b 338 648 350 646 357 644 b 364 643 364 647 365 652 b 366 658 367 663 368 670 b 372 668 374 666 379 665 b 380 669 382 672 384 677 b 392 674 392 681 391 688 b 391 694 393 697 399 694 b 401 694 404 695 405 696 b 412 701 419 707 425 714 b 426 715 429 715 429 714 b 430 712 431 708 430 707 b 425 700 419 693 412 685 b 407 680 403 674 399 668 b 398 667 399 665 399 664 b 397 661 393 658 393 656 b 393 649 390 646 385 643 b 379 640 379 636 384 631 b 387 634 390 637 394 640 b 395 640 395 639 396 638 b 393 632 390 626 380 628 b 379 629 375 627 374 626 b 372 623 370 620 368 616 b 369 615 371 613 373 611 b 371 610 368 610 367 608 b 365 606 363 603 363 600 b 363 597 366 595 367 592 b 361 586 354 577 348 570 b 349 569 350 568 351 567 b 359 559 358 559 351 551 b 341 541 334 531 326 523 b 315 510 303 500 292 489 b 294 481 293 479 284 472 b 278 468 271 464 266 459 b 265 459 265 457 265 455 b 260 449 255 440 251 433 b 250 432 248 430 248 428 b 245 422 242 414 237 408 b 230 397 223 387 215 376 b 213 374 212 371 208 370 b 202 367 199 361 201 356 b 202 351 205 348 208 341 b 213 350 217 357 221 365 b 224 369 225 375 229 378 b 238 389 250 397 260 408 b 262 410 264 412 265 415 b 268 421 270 427 274 434 b 280 431 284 430 287 435 b 291 443 296 450 301 456 b 310 466 318 475 326 486 b 334 494 343 502 351 510 b 359 521 365 531 373 540 b 376 544 381 549 384 553 b 396 568 409 585 423 600 b 431 610 440 620 449 630 b 457 640 461 656 476 661 b 477 661 478 662 478 663 b 485 670 491 677 496 684 b 505 698 514 713 524 727 b 535 745 547 765 560 784 b 567 796 572 805 572 819 b 572 833 572 847 564 859 b 561 864 560 870 559 876 b 557 881 556 886 553 890 b 549 896 543 902 537 909 b 525 928 507 944 491 958 b 486 962 482 970 479 976 b 476 982 475 990 470 995 b 465 1004 458 1011 453 1019 b 449 1027 447 1027 442 1021 b 439 1026 436 1036 433 1036 b 423 1038 419 1050 406 1048 b 395 1047 384 1052 372 1054 b 368 1055 363 1055 359 1054 b 352 1052 345 1049 335 1046 b 336 1045 336 1043 337 1038 b 330 1039 325 1042 320 1042 b 318 1043 316 1042 314 1041 b 303 1033 293 1027 282 1021 b 278 1019 271 1018 268 1015 b 262 1009 256 1004 248 1001 b 246 1000 245 998 243 996 b 236 991 230 985 223 981 b 218 978 213 976 220 968 b 214 966 209 965 205 964 b 207 960 209 957 212 954 b 208 953 207 954 206 954 b 198 958 195 956 191 949 b 186 941 180 934 173 926 b 165 920 160 913 160 903 b 153 896 146 891 138 885 b 140 883 141 882 142 881 b 136 874 129 869 126 861 b 123 854 118 848 114 841 b 111 835 105 831 108 823 b 109 822 108 821 107 820 b 101 818 101 811 96 807 b 86 796 84 779 78 765 b 74 755 71 745 67 736 b 62 729 60 720 66 712 b 66 712 66 710 65 710 b 62 710 60 710 58 710 b 58 707 58 705 57 702 b 56 700 55 698 54 695 b 51 688 55 680 64 680 b 64 689 55 698 68 704 b 68 704 68 706 69 706 b 71 710 74 715 75 717 b 77 722 78 726 80 729 b 81 735 88 739 86 747 b 85 748 88 750 89 751 b 90 753 92 754 93 756 b 97 766 102 775 107 784 b 114 796 121 807 128 818 b 130 818 134 818 139 818 b 138 821 137 823 137 824 b 137 826 140 829 141 829 b 153 828 155 822 150 813 b 149 812 148 811 148 810 b 150 801 144 797 136 797 b 136 797 135 796 135 796 b 140 787 138 785 129 784 b 127 783 126 781 124 779 b 125 779 125 778 126 778 b 128 779 130 779 135 780 b 128 770 124 762 119 752 b 120 750 121 747 123 745 b 120 743 117 741 117 739 b 116 732 114 728 106 729 b 93 729 92 727 93 718 b 95 718 98 719 103 719 b 100 714 97 708 95 704 b 91 706 88 708 86 709 b 86 706 87 703 87 700 b 83 697 78 694 74 690 b 74 690 75 689 75 689 b 84 691 92 697 102 693 b 103 693 105 694 106 694 b 106 696 105 698 104 699 b 103 700 102 701 101 702 b 104 715 113 708 120 709 b 120 713 119 719 119 719 b 127 720 130 726 132 733 b 134 733 134 733 134 733 b 136 736 139 738 141 741 b 143 743 143 747 147 749 b 153 752 152 756 148 761 b 151 763 153 764 155 766 b 158 769 162 772 165 775 b 166 776 166 778 167 779 b 173 787 178 795 183 802 b 186 806 188 808 193 805 b 194 805 197 806 198 808 b 204 813 208 819 213 824 b 220 833 227 841 234 850 b 246 861 256 873 267 884 b 275 890 285 894 292 899 b 311 911 329 923 350 931 b 369 940 391 944 412 948 b 421 949 431 950 438 943 b 444 936 452 929 458 923 b 463 918 467 913 472 910 b 482 903 483 901 480 890 b 478 883 476 876 474 869 b 471 864 470 858 468 854 b 467 850 465 847 463 842 b 458 834 453 824 447 815 b 445 813 444 811 444 808 b 443 795 431 787 427 775 b 424 767 417 760 410 752 b 407 749 405 745 402 743 b 397 739 395 735 399 728 b 388 730 385 720 382 714 b 375 699 364 689 354 676 b 350 672 345 668 340 663 b 337 659 334 654 332 648 b 330 643 328 638 326 634 b 325 632 324 630 323 630 b 317 632 316 625 313 623 z m 158 888 b 162 888 165 889 167 888 b 171 888 174 888 175 886 b 177 884 177 880 177 878 b 176 874 173 871 172 868 b 167 868 167 868 173 883 b 168 881 165 880 162 879 b 160 879 158 878 156 878 b 156 880 156 882 156 884 b 156 885 157 887 158 888 z m 139 856 b 142 856 144 857 148 857 b 147 859 146 861 146 864 b 149 865 153 866 158 867 b 158 865 160 861 159 860 b 155 857 151 854 146 852 b 143 852 140 854 138 854 b 138 855 138 856 139 856 z m 184 901 b 186 904 188 907 191 912 b 193 911 195 910 199 906 b 193 903 189 901 185 899 b 185 899 184 900 184 901 z m 423 719 b 420 719 417 718 413 718 b 413 718 413 720 412 721 b 416 722 419 722 422 724 b 423 722 423 720 423 719 z m 187 420 b 186 422 185 423 185 424 b 180 431 182 435 190 437 b 195 438 199 439 198 447 b 197 460 211 472 223 472 b 218 480 217 487 222 493 b 223 494 227 493 227 493 b 232 495 236 496 242 498 b 241 500 240 504 237 507 b 235 513 236 515 242 515 b 245 516 248 517 253 518 b 249 524 248 527 254 529 b 258 530 262 532 267 534 b 263 537 259 540 255 541 b 249 542 246 539 245 528 b 244 524 243 523 237 522 b 233 522 229 519 226 515 b 220 507 216 500 212 494 b 208 490 204 486 200 482 b 202 480 205 479 208 476 b 205 474 202 473 199 472 b 196 470 192 469 190 466 b 186 460 183 452 179 445 b 170 432 160 421 151 409 b 150 406 149 402 150 401 b 152 398 156 396 159 394 b 160 393 163 394 164 395 b 168 401 173 409 177 415 b 177 415 176 416 176 416 b 179 417 183 418 187 420 z m 127 306 b 121 307 120 320 114 314 b 112 305 112 297 111 291 b 110 289 109 286 110 284 b 115 274 120 262 125 252 b 129 246 135 241 139 237 b 142 240 146 243 148 243 b 151 243 154 240 158 238 b 160 247 151 249 146 254 b 151 255 155 257 160 258 b 156 261 153 263 150 265 b 152 269 154 270 155 272 b 154 273 153 274 152 274 b 142 272 142 276 144 285 b 139 282 135 273 127 281 b 127 279 127 277 127 275 b 123 276 120 276 116 276 b 117 282 117 288 117 294 b 122 291 124 290 128 288 b 128 295 112 299 127 306 z m 312 623 b 312 623 313 623 313 623 b 310 621 307 619 302 614 b 306 612 308 611 312 610 b 311 610 311 609 311 608 b 303 610 299 607 296 601 b 292 595 288 590 282 586 b 277 579 272 573 272 566 b 259 567 261 554 252 549 b 257 546 261 546 263 545 b 269 539 269 543 271 549 b 271 553 270 558 279 558 b 285 557 286 561 285 566 b 283 572 286 573 291 571 b 295 570 298 571 298 576 b 299 578 299 581 300 585 b 301 588 303 590 306 586 b 307 585 310 585 312 585 b 311 587 311 588 310 590 b 310 591 308 592 307 593 b 311 594 313 595 315 597 b 314 600 314 602 313 603 b 318 607 322 610 327 614 b 326 615 326 616 325 618 b 322 618 318 616 314 616 b 313 618 313 621 312 623 z m 72 668 b 72 668 71 668 70 667 b 70 665 71 663 70 661 b 70 659 69 657 67 655 b 66 655 62 655 61 656 b 61 658 61 661 62 663 b 66 668 64 670 59 672 b 56 673 53 675 48 677 b 50 673 51 671 52 669 b 53 667 55 665 55 664 b 50 657 55 650 58 643 b 56 641 54 640 53 640 b 54 634 56 628 56 623 b 56 622 54 619 52 618 b 51 616 49 618 46 618 b 50 609 56 609 64 610 b 56 607 55 603 59 597 b 73 601 67 611 68 620 b 70 619 71 619 73 618 b 74 618 76 616 77 616 b 77 618 78 618 78 619 b 77 620 76 621 75 622 b 68 629 69 631 78 635 b 81 636 82 638 84 640 b 84 640 83 641 83 642 b 78 642 74 642 70 642 b 70 642 70 643 70 644 b 72 644 73 646 75 647 b 84 649 84 651 78 658 b 77 659 76 661 76 663 b 75 665 73 666 72 668 z m 122 342 b 121 342 120 343 120 343 b 120 340 120 338 120 334 b 120 332 118 328 119 328 b 121 327 124 326 127 327 b 129 327 131 330 132 332 b 135 336 137 341 139 345 b 142 350 146 354 147 359 b 149 363 148 366 153 368 b 154 368 155 374 154 374 b 150 379 151 383 154 388 b 157 394 151 395 148 396 b 148 397 143 394 142 392 b 140 386 140 379 135 373 b 129 367 128 358 125 350 b 124 348 123 345 122 342 z m 84 663 b 86 670 89 673 96 669 b 97 668 103 669 103 670 b 104 674 105 679 104 682 b 101 689 95 685 92 681 b 90 688 80 686 68 679 b 73 674 78 669 84 663 z m 195 345 b 189 334 183 325 176 313 b 179 314 180 314 180 314 b 187 323 192 331 205 332 b 205 332 205 338 204 339 b 201 341 198 343 195 345 z m 161 295 b 165 292 168 290 172 288 b 172 288 172 287 172 286 b 164 286 158 287 152 287 b 152 286 152 285 151 284 b 158 283 164 282 171 281 b 176 280 179 282 179 287 b 179 293 176 296 170 297 b 167 297 165 296 161 295 z m 163 328 b 158 334 154 330 150 328 b 149 328 149 325 149 322 b 155 324 158 326 163 328 z m 187 304 b 187 306 187 307 187 308 b 183 308 179 307 175 306 b 175 305 175 305 175 304 b 179 304 183 304 187 304 z m 134 319 b 131 321 129 323 129 323 b 127 322 125 320 123 318 b 125 316 126 314 127 314 b 129 315 130 316 134 319 z m 106 733 b 107 735 109 737 108 737 b 107 739 105 741 104 743 b 103 741 101 740 102 739 b 102 737 104 735 106 733 z m 113 131 b 100 131 94 127 88 115 b 85 109 80 104 82 97 b 82 96 82 94 81 93 b 70 83 68 70 64 57 b 62 50 62 44 60 39 b 58 31 53 24 50 15 b 49 14 49 12 49 11 b 49 6 52 0 47 -4 b 47 -4 48 -7 48 -8 b 54 -16 58 -23 65 -29 b 71 -34 74 -45 87 -37 b 88 -37 91 -38 92 -38 b 101 -41 105 -39 106 -30 b 107 -24 110 -20 117 -20 b 119 -20 122 -17 123 -15 b 128 -4 134 5 140 14 b 142 16 144 18 148 19 b 156 19 160 25 164 31 b 167 35 172 36 176 39 b 180 43 183 48 187 51 b 195 57 188 62 188 67 b 187 69 187 71 187 73 b 189 84 185 95 175 101 b 162 109 149 116 136 124 b 128 127 120 129 113 131 z"},"<":{"x_min":0,"x_max":592,"ha":592,"o":"m 227 124 b 227 124 226 124 226 124 b 226 124 226 124 227 124 l 227 124 z m 107 509 b 107 509 107 509 107 509 b 107 509 107 509 107 509 l 107 509 z m 466 780 b 466 786 465 793 462 797 b 454 806 445 814 437 823 b 433 827 429 827 423 825 b 420 824 417 823 416 824 b 408 827 390 824 383 818 b 367 804 348 792 336 774 b 335 772 333 770 331 769 b 318 765 315 752 304 744 b 297 739 293 730 287 722 b 284 719 282 714 279 714 b 271 711 268 706 264 700 b 262 696 256 694 253 691 b 246 683 238 675 231 667 b 229 665 226 662 224 660 b 217 654 208 648 204 640 b 200 634 196 630 192 625 b 187 620 182 615 177 610 b 176 608 175 606 173 604 b 167 598 160 592 155 585 b 142 571 130 557 118 543 b 114 539 111 534 107 530 b 116 540 121 542 130 539 b 133 542 137 545 140 548 b 142 552 143 556 145 560 b 157 564 160 567 162 576 b 172 578 177 592 189 593 b 187 589 185 586 183 583 b 184 583 184 583 185 582 b 187 584 189 586 191 588 b 205 601 218 614 231 627 b 232 628 235 627 237 627 b 237 627 237 626 237 625 b 233 622 229 620 225 617 b 229 605 226 599 216 597 b 218 600 219 604 221 607 b 220 607 220 608 219 608 b 217 607 213 605 213 604 b 212 599 209 597 205 594 b 199 588 193 582 188 576 b 187 575 186 572 187 571 b 188 571 190 570 191 571 b 193 571 194 574 194 575 b 195 576 195 578 195 580 b 204 582 203 576 205 573 b 201 570 198 567 196 565 b 192 560 191 556 187 552 b 179 543 171 534 163 525 b 156 517 150 509 142 503 b 133 496 127 487 119 479 b 110 469 100 469 90 466 b 87 466 85 469 84 469 b 85 474 86 477 87 480 b 88 482 90 485 91 485 b 94 482 97 480 99 478 b 99 476 99 475 100 473 b 100 473 103 474 104 474 b 117 489 130 503 143 517 b 154 530 165 542 176 555 b 173 556 168 556 163 557 b 169 565 175 571 181 578 b 180 579 180 579 179 579 b 175 575 171 572 167 568 b 162 563 157 558 153 553 b 148 548 139 545 142 536 b 146 544 152 545 159 542 b 153 536 147 532 139 525 b 139 527 139 528 138 530 b 138 536 133 534 130 531 b 125 526 119 521 118 516 b 116 508 112 509 107 509 b 107 507 107 504 105 502 b 102 499 99 494 95 492 b 84 488 84 489 84 479 b 81 479 78 478 74 477 b 74 473 75 471 75 467 b 72 467 69 468 67 469 b 64 464 61 459 58 454 b 61 455 63 455 66 455 b 62 453 57 452 54 450 b 47 442 40 433 33 425 b 28 419 23 413 17 408 b 14 406 9 408 6 408 b 5 408 4 407 2 407 b 5 405 8 404 10 403 b 10 403 9 402 8 402 b 7 396 7 390 6 384 b 8 384 12 385 12 384 b 16 377 22 383 27 387 b 32 391 33 389 36 386 b 39 380 44 376 49 371 b 50 370 51 367 52 367 b 60 368 59 363 57 358 b 63 355 69 354 73 350 b 79 342 83 333 88 325 b 91 319 94 313 97 308 b 100 303 105 298 107 292 b 109 285 111 280 118 280 b 118 277 117 273 118 272 b 124 262 130 253 137 244 b 139 240 142 237 143 233 b 147 222 151 212 161 205 b 162 205 162 203 163 202 b 165 198 167 195 169 191 b 170 189 172 188 173 185 b 174 182 176 180 180 182 b 182 183 184 181 186 181 b 186 180 185 180 185 179 b 183 178 182 178 179 177 b 183 172 188 169 191 165 b 198 155 204 145 211 136 b 215 131 221 128 226 124 b 224 129 222 134 219 139 b 217 144 213 148 210 153 b 209 155 210 159 210 164 b 207 162 205 161 202 159 b 203 167 202 172 198 176 b 188 187 182 199 174 211 b 172 214 169 216 167 219 b 163 227 160 235 155 242 b 152 249 146 254 144 261 b 140 274 130 283 126 297 b 123 308 116 317 110 327 b 109 330 107 333 106 337 b 113 338 116 336 119 332 b 125 323 130 315 136 307 b 139 303 143 300 146 296 b 149 291 150 285 153 281 b 155 278 158 276 160 273 b 162 269 164 265 166 261 b 167 261 168 262 168 263 b 171 264 174 265 179 266 b 176 260 167 257 171 252 b 174 249 178 247 181 244 b 182 245 182 245 183 246 b 183 248 182 250 182 253 b 183 253 183 253 184 254 b 187 250 193 249 186 241 b 188 240 189 240 192 240 b 186 234 186 230 192 228 b 193 231 195 234 197 239 b 200 234 203 231 204 227 b 204 227 200 224 197 221 b 197 219 199 217 200 215 b 201 214 202 212 203 211 b 206 205 208 200 212 194 b 216 188 225 186 225 176 b 225 176 226 175 226 175 b 229 173 232 171 234 169 b 239 160 247 154 251 144 b 256 134 265 124 275 118 b 281 114 279 103 290 104 b 290 104 291 102 290 101 b 289 95 292 94 296 95 b 297 92 298 89 299 87 b 300 84 302 82 303 78 b 300 79 297 79 295 80 b 294 79 294 79 294 78 b 301 71 309 63 316 57 b 318 62 319 66 321 71 b 321 73 321 76 321 77 b 315 81 315 85 325 92 b 319 97 313 101 308 106 b 307 106 306 107 306 107 b 299 117 292 126 285 135 b 282 138 277 138 273 140 b 271 138 270 136 266 132 b 265 142 264 150 263 159 b 262 157 261 156 260 155 b 260 155 259 154 256 150 b 255 155 254 158 255 159 b 263 167 259 169 255 173 b 252 175 250 178 248 181 b 246 185 244 189 243 192 b 252 189 255 186 258 180 b 258 179 259 178 259 178 b 266 175 273 172 280 169 b 281 170 282 171 282 171 b 275 183 267 194 260 206 b 258 210 256 215 253 219 b 251 222 246 224 246 227 b 245 238 238 244 233 251 b 227 262 216 269 215 284 b 215 287 210 288 208 291 b 207 292 205 293 205 295 b 203 302 202 311 199 317 b 194 328 186 338 180 349 b 169 371 158 393 147 415 b 147 416 146 417 146 418 b 144 426 142 434 140 443 b 139 447 137 452 137 457 b 137 461 138 467 141 470 b 153 483 165 497 178 509 b 183 513 187 518 191 522 b 197 529 204 534 210 540 b 216 547 221 554 227 560 b 236 567 247 572 252 584 b 252 586 256 587 259 589 b 266 594 274 599 281 604 b 285 607 289 611 293 615 b 300 622 307 629 315 635 b 322 642 329 650 339 652 b 340 652 342 654 343 655 b 358 669 373 684 389 697 b 405 711 421 723 437 736 b 443 741 450 744 454 749 b 462 759 465 770 466 780 z m 110 493 b 105 489 108 480 99 478 b 100 482 100 486 102 489 b 103 491 107 492 110 493 z m 223 200 b 222 199 221 197 219 195 b 218 196 217 196 216 197 b 214 204 214 212 206 215 b 205 216 207 219 208 221 b 209 222 210 222 211 222 b 214 216 218 211 222 205 b 223 203 223 202 223 200 z m 232 181 b 229 184 226 187 224 190 b 223 191 224 193 225 194 b 226 195 229 196 229 195 b 231 191 233 187 235 183 b 234 182 233 182 232 181 z m 241 176 b 245 174 249 171 252 168 b 253 168 251 165 251 163 b 249 163 246 162 245 163 b 242 166 240 170 238 174 b 239 175 240 176 241 176 z m 209 251 b 209 251 211 252 212 252 b 214 249 216 247 218 244 b 221 240 224 235 227 231 b 229 227 230 222 233 219 b 236 215 240 212 243 209 b 244 208 246 206 246 205 b 245 203 242 200 240 199 b 238 199 235 199 234 201 b 225 216 217 231 208 246 b 208 247 208 249 209 251 z m 268 653 b 265 650 262 646 258 644 b 251 640 244 636 238 633 b 231 637 228 629 225 626 b 218 621 211 614 205 608 b 202 605 200 602 197 599 b 195 597 192 596 190 595 b 190 597 190 601 192 602 b 202 613 212 623 223 633 b 233 644 242 656 254 666 b 259 671 267 673 272 678 b 273 679 276 678 276 677 b 276 676 275 673 274 673 b 266 668 265 663 269 658 b 270 657 269 655 268 653 z m 290 678 b 287 674 284 670 280 667 b 278 665 275 664 273 663 b 274 665 274 668 276 670 b 280 675 285 681 280 686 b 292 697 292 697 297 692 b 294 691 290 690 287 688 b 289 687 289 686 289 686 b 292 685 294 685 297 684 b 295 682 292 680 290 678 z m 175 558 b 179 560 182 563 185 565 b 185 565 184 567 183 569 b 179 566 176 564 173 561 b 174 560 175 558 175 558 z m 227 124 b 227 124 227 124 227 124 b 227 124 227 124 227 123 b 227 124 227 124 227 124 z m 240 111 b 237 114 236 116 233 118 b 232 120 229 122 227 123 b 229 118 229 110 240 111 z m 30 431 b 29 431 28 431 28 431 b 25 426 22 422 20 417 b 21 417 22 417 22 416 b 25 421 28 426 30 431 z m 107 509 b 107 509 107 509 107 509 b 107 509 107 509 107 509 b 107 509 107 509 107 509 z m 97 512 b 101 511 104 510 107 509 b 107 511 106 513 106 515 b 103 514 101 513 97 512 z m 257 658 b 251 654 245 649 240 644 b 239 644 240 641 239 638 b 243 641 244 643 246 644 b 250 647 254 649 258 652 b 260 654 261 655 262 657 b 260 657 258 659 257 658 z"},"'":{"x_min":0,"x_max":454,"ha":454,"o":"m 182 630 b 189 637 196 642 199 648 b 205 655 206 663 210 670 b 211 672 211 673 213 674 b 227 687 230 703 237 719 b 250 744 259 771 270 797 b 281 822 291 847 303 872 b 307 885 314 897 322 909 b 327 918 342 928 339 944 b 339 948 335 951 331 954 b 328 956 323 958 316 961 b 311 958 305 958 301 965 b 299 967 295 968 291 968 b 286 968 281 967 276 966 b 268 964 260 962 253 961 b 243 963 235 962 229 951 b 222 940 218 929 213 918 b 212 915 211 912 210 909 b 204 897 194 884 204 871 b 203 870 204 866 203 865 b 197 858 196 851 200 844 b 201 841 199 837 198 834 b 196 826 196 819 196 811 b 195 809 197 806 197 804 b 192 792 189 780 186 768 b 184 763 180 758 182 753 b 183 741 179 730 175 719 b 170 702 165 685 160 667 b 162 667 163 667 163 666 b 167 673 172 680 178 689 b 184 679 179 670 176 661 b 175 651 171 642 169 632 b 174 632 178 631 182 630 z"},"=":{"x_min":0,"x_max":600,"ha":600,"o":"m 35 377 b 35 377 35 377 35 377 b 29 377 23 376 18 375 b 6 372 1 342 7 331 b 9 328 9 324 10 320 b 11 313 10 305 17 299 b 27 291 39 288 51 285 b 58 284 65 285 71 286 b 93 289 114 291 136 294 b 145 296 154 294 163 301 b 166 304 173 303 179 303 b 182 304 186 304 189 305 b 196 307 202 312 210 309 b 211 308 214 311 217 311 b 221 312 224 314 228 315 b 239 316 250 316 260 318 b 263 318 266 320 269 320 b 273 321 277 320 281 320 b 285 319 288 317 291 318 b 304 320 316 324 329 325 b 345 326 361 325 377 325 b 394 326 411 326 429 327 b 436 327 443 327 451 328 b 453 328 455 332 456 333 b 457 334 458 336 460 336 b 460 337 462 335 462 335 b 460 324 470 328 474 325 b 477 324 482 324 483 326 b 486 329 488 335 487 338 b 483 345 488 364 490 368 b 492 373 484 378 490 385 b 492 387 492 393 490 396 b 486 405 471 410 461 409 b 447 408 434 407 420 406 b 392 406 365 406 337 405 b 316 404 295 402 274 401 b 245 398 216 396 187 393 b 158 390 130 386 102 383 b 79 380 57 379 35 377 z m 448 375 b 438 363 426 363 421 374 b 430 375 439 376 448 378 b 448 377 448 376 448 375 z m 445 391 b 438 382 433 380 427 384 b 426 386 425 388 424 390 b 426 390 427 391 429 392 b 430 392 432 392 433 392 b 437 392 441 392 445 391 z m 345 363 b 347 365 348 368 350 368 b 355 369 361 369 367 361 b 359 362 353 362 345 363 z m 408 394 b 407 391 406 387 404 384 b 403 384 402 384 401 385 b 402 388 403 392 404 395 b 405 395 407 395 408 394 z m 439 337 b 442 338 446 339 449 340 b 450 339 450 337 450 337 b 447 335 444 334 440 333 b 440 334 439 336 439 337 z m 281 575 b 274 583 267 582 259 581 b 240 579 222 577 203 576 b 195 575 186 577 177 577 b 166 577 155 576 144 576 b 140 576 137 576 134 577 b 125 578 117 581 108 581 b 96 581 86 584 77 591 b 74 593 69 593 66 592 b 64 591 62 587 60 584 b 59 582 60 579 59 577 b 53 566 56 545 56 533 b 56 530 56 527 58 526 b 68 517 76 507 88 502 b 101 496 116 495 130 492 b 158 487 185 497 213 492 b 214 492 215 493 216 493 b 222 497 228 501 235 505 b 236 506 238 507 240 507 b 250 508 260 508 270 509 b 294 514 320 509 344 517 b 356 521 370 518 383 519 b 394 520 405 521 416 522 b 431 524 447 527 462 530 b 468 531 473 532 479 533 b 489 534 500 533 510 534 b 516 535 523 538 530 540 b 512 551 512 563 524 577 b 517 581 508 583 510 594 b 514 594 518 593 522 593 b 516 606 507 610 495 607 b 484 605 473 601 461 601 b 433 599 406 592 378 592 b 351 592 323 587 296 585 b 290 584 284 583 281 575 z m 328 568 b 337 571 347 573 357 575 b 355 568 345 564 340 565 b 334 565 328 565 322 566 b 320 566 318 567 315 567 b 316 569 316 572 318 573 b 323 576 329 578 335 581 b 335 580 335 579 336 578 b 333 576 329 574 326 572 b 327 571 327 570 328 568 z m 436 576 b 439 579 440 582 442 582 b 448 583 455 582 461 582 b 455 575 454 575 436 576 z m 409 576 b 405 574 401 570 396 568 b 395 568 392 571 390 572 b 391 573 393 574 395 575 b 397 575 400 576 402 577 b 404 578 406 579 408 580 b 408 579 409 578 409 576 z m 433 569 b 430 571 426 573 423 574 b 424 576 427 580 427 580 b 430 578 433 576 436 574 b 435 572 434 571 433 569 z m 482 584 b 478 582 476 579 473 579 b 472 579 470 582 468 583 b 470 585 472 587 474 588 b 475 589 478 586 482 584 z m 411 567 b 413 564 415 562 417 560 b 415 559 413 556 411 556 b 409 556 407 559 406 561 b 406 562 409 564 411 567 z"},"a":{"x_min":0,"x_max":625,"ha":625,"o":"m 429 463 b 429 463 429 464 429 464 b 429 464 429 464 429 464 z m 443 51 b 442 59 441 69 441 80 b 442 100 446 119 450 139 b 452 147 458 154 461 161 b 465 172 459 186 473 193 b 473 194 474 195 474 195 b 471 203 477 209 480 215 b 484 223 485 232 488 241 b 491 249 495 258 499 266 b 503 275 506 285 513 291 b 529 308 538 330 548 350 b 553 361 560 371 567 382 b 572 389 580 395 583 402 b 589 415 596 425 605 435 b 607 437 608 442 610 446 b 610 447 612 449 613 450 b 623 457 628 479 621 489 b 613 500 603 509 594 519 b 592 521 589 520 587 521 b 583 523 580 525 576 527 b 572 530 565 531 564 533 b 561 547 548 544 540 547 b 538 548 535 547 533 545 b 524 540 516 535 507 530 b 506 529 502 530 500 531 b 500 532 500 533 500 534 b 502 535 504 536 508 537 b 503 540 499 542 496 545 b 480 560 463 574 447 589 b 442 594 438 599 432 603 b 418 616 403 628 388 640 b 360 663 333 687 294 694 b 278 679 260 664 246 647 b 224 621 204 594 185 567 b 169 545 153 521 139 498 b 124 473 111 448 97 423 b 89 409 82 394 74 380 b 70 371 66 361 62 352 b 57 341 51 330 47 319 b 44 313 44 307 41 301 b 40 298 37 296 36 292 b 26 261 15 231 7 199 b -2 167 -4 134 3 100 b 4 93 8 86 10 79 b 16 64 23 49 38 42 b 39 41 40 40 40 39 b 41 26 48 18 57 10 b 72 -4 93 -3 105 13 b 112 24 120 34 129 42 b 135 48 142 51 140 60 b 139 62 142 65 144 65 b 156 69 156 83 166 90 b 177 99 183 113 192 124 b 203 137 215 149 225 163 b 234 175 247 186 249 203 b 249 203 250 204 250 204 b 266 223 281 241 296 260 b 298 263 299 268 301 274 b 302 274 307 274 310 276 b 315 281 319 287 323 293 b 333 305 344 316 354 328 b 366 341 379 354 391 367 b 401 378 409 389 419 399 b 431 412 444 425 457 438 b 458 438 460 438 461 438 b 461 436 460 435 460 434 b 449 413 438 392 428 371 b 408 328 390 283 376 237 b 362 194 350 150 364 105 b 370 86 377 68 386 50 b 391 41 401 35 408 26 b 412 19 417 12 427 9 b 438 5 449 -2 461 6 b 464 8 467 9 470 9 b 485 16 448 21 443 51 z m 26 158 b 23 160 18 162 17 164 b 12 174 15 183 26 191 b 29 180 11 170 29 161 b 28 160 27 159 26 158 z m 34 215 b 31 208 28 202 26 196 b 24 196 23 196 22 197 b 22 201 21 207 23 211 b 26 219 30 227 34 234 b 36 237 41 239 45 241 b 41 232 38 223 34 215 z m 54 261 b 52 255 48 248 45 242 b 42 244 38 246 35 250 b 38 252 41 254 45 257 b 43 259 41 262 42 264 b 42 267 44 269 47 271 b 48 271 52 270 53 268 b 54 267 55 263 54 261 z m 57 274 b 57 273 53 274 53 275 b 51 279 49 285 51 286 b 58 293 53 306 65 310 b 66 310 67 312 66 313 b 63 324 71 330 77 337 b 78 338 78 340 79 342 b 82 355 83 370 97 379 b 98 380 98 383 99 385 b 108 399 116 412 125 425 b 127 427 130 428 133 430 b 133 429 134 428 135 427 b 133 422 131 417 128 412 b 122 404 117 396 112 387 b 110 385 111 381 109 378 b 99 361 93 342 86 324 b 81 314 73 305 67 295 b 65 291 63 286 61 282 b 59 279 59 276 57 274 z m 123 381 b 124 386 126 390 127 394 b 135 389 135 389 123 381 z m 115 307 b 111 303 107 300 102 297 b 102 298 101 299 101 300 b 103 304 105 307 108 311 b 109 312 112 313 113 314 b 114 312 116 308 115 307 z m 65 210 b 67 216 68 222 70 228 b 72 228 74 227 75 227 b 73 221 71 215 68 209 b 67 209 66 209 65 210 z m 231 234 b 237 247 239 248 246 241 b 241 239 237 237 231 234 z m 246 246 b 244 250 242 252 243 254 b 244 256 246 258 248 260 b 249 259 252 257 252 255 b 251 253 249 250 246 246 z m 376 371 b 376 373 375 374 374 376 b 378 378 382 381 386 383 b 387 381 388 377 388 377 b 384 375 380 373 376 371 z m 424 438 b 424 437 425 435 425 434 b 431 435 438 436 444 436 b 439 428 434 426 427 430 b 419 433 409 427 405 420 b 402 415 397 410 393 405 b 389 400 385 394 380 390 b 377 387 373 386 370 384 b 367 379 366 373 362 369 b 352 358 340 348 330 337 b 325 332 321 325 318 318 b 316 313 315 311 310 311 b 305 312 302 310 301 304 b 300 300 295 296 292 292 b 284 283 277 274 269 266 b 267 263 263 261 260 261 b 259 260 256 262 255 263 b 254 264 255 268 256 269 b 260 272 264 274 268 277 b 268 279 268 283 269 285 b 277 295 284 304 292 313 b 293 314 296 316 298 317 b 304 318 310 318 307 327 b 307 328 311 330 312 331 b 315 335 317 339 320 342 b 323 346 326 349 329 352 b 340 365 351 377 363 390 b 370 399 378 407 384 417 b 275 304 170 187 79 56 b 77 60 75 63 75 66 b 73 81 73 97 78 112 b 79 114 79 118 80 121 b 81 134 82 147 91 157 b 93 159 91 163 91 167 b 102 168 102 178 105 186 b 118 215 130 244 143 273 b 153 297 163 320 176 342 b 187 363 201 382 213 402 b 216 406 217 410 219 414 b 225 423 232 432 238 442 b 239 442 240 443 240 443 b 247 453 256 462 260 473 b 265 485 276 489 283 498 b 288 504 294 508 299 513 b 317 533 335 553 353 572 b 359 578 366 583 374 587 b 376 588 381 587 384 585 b 400 574 415 561 431 550 b 435 547 440 546 444 544 b 450 541 455 537 460 534 b 466 531 473 528 479 525 b 483 523 487 522 493 519 b 471 500 450 482 429 464 b 440 464 445 473 452 479 b 470 493 488 508 506 523 b 506 522 507 521 508 520 b 480 493 452 465 424 438 z"},"L":{"x_min":0,"x_max":405,"ha":405,"o":"m 166 236 b 169 246 187 243 180 255 b 174 265 183 268 185 273 b 181 277 179 280 178 282 b 187 293 207 294 200 315 b 199 316 204 318 204 320 b 207 322 209 325 210 327 b 227 372 245 416 260 461 b 266 478 299 560 322 562 b 317 568 312 572 306 578 b 324 581 328 594 332 607 b 333 610 334 614 336 615 b 350 623 350 635 346 649 b 371 666 372 694 377 720 b 398 719 400 719 406 736 b 414 761 460 825 473 847 b 474 848 476 850 478 850 b 491 852 493 863 496 873 b 505 900 491 925 480 950 b 479 953 463 981 447 993 b 439 999 432 1006 422 1008 b 417 1009 412 1013 407 1015 b 400 1018 393 1021 387 1022 b 376 1024 365 1024 354 1025 b 346 1016 334 1006 329 993 b 315 959 271 896 258 860 b 243 817 223 776 207 733 b 188 683 169 631 151 580 b 130 517 85 386 70 321 b 55 262 32 147 24 85 b 19 46 15 6 20 -34 b 23 -60 26 -87 44 -112 b 41 -114 39 -116 36 -117 b 16 -126 -23 -146 -42 -155 b -66 -165 -88 -176 -112 -187 b -137 -197 -160 -208 -185 -219 b -188 -220 -190 -223 -192 -225 b -197 -230 -202 -235 -206 -241 b -221 -257 -231 -276 -224 -299 b -219 -320 -221 -314 -209 -335 b -204 -344 -196 -349 -186 -345 b -179 -342 -174 -345 -167 -349 b -154 -358 -148 -356 -139 -346 b -133 -337 -126 -330 -113 -331 b -109 -331 -104 -327 -99 -325 b -95 -322 -91 -317 -86 -316 b -64 -312 -48 -298 -30 -287 b -7 -275 14 -265 38 -254 b 88 -230 141 -210 196 -193 b 252 -176 309 -165 367 -154 b 382 -151 395 -148 410 -144 b 422 -141 432 -136 444 -135 b 456 -134 467 -130 482 -135 b 492 -138 506 -129 519 -126 b 526 -124 531 -123 538 -122 b 603 -117 668 -126 732 -135 b 755 -138 777 -144 800 -151 b 828 -159 856 -169 883 -180 b 894 -184 902 -192 904 -205 b 909 -230 911 -255 910 -281 b 910 -296 910 -296 928 -302 b 938 -297 942 -287 942 -275 b 940 -263 938 -250 939 -239 b 941 -229 939 -220 936 -211 b 932 -192 923 -176 907 -162 b 906 -161 899 -151 884 -137 b 876 -128 869 -118 859 -111 b 823 -85 783 -69 741 -56 b 680 -37 619 -36 559 -32 b 511 -29 464 -32 417 -34 b 354 -38 295 -50 234 -62 b 209 -67 185 -76 160 -83 b 146 -86 131 -88 115 -91 b 114 -85 112 -81 113 -77 b 118 -57 111 -33 126 -16 b 129 -12 117 -7 126 -3 b 130 -1 132 4 134 9 b 137 17 139 26 141 35 b 141 36 141 37 140 39 b 136 39 131 40 126 41 b 138 49 149 56 135 72 b 141 76 145 79 149 82 b 145 86 141 90 142 91 b 147 98 153 105 159 112 b 152 125 155 202 164 205 b 174 210 172 221 180 227 b 175 231 171 233 166 236 z m 243 -90 b 260 -75 282 -73 303 -70 b 337 -65 371 -60 405 -55 b 430 -51 454 -46 480 -42 b 486 -41 492 -42 498 -42 b 521 -42 544 -42 567 -43 b 590 -44 612 -46 634 -48 b 643 -49 650 -51 658 -51 b 681 -51 703 -56 726 -63 b 745 -69 765 -74 783 -79 b 808 -87 830 -97 850 -116 b 835 -111 820 -105 806 -100 b 776 -90 746 -80 716 -71 b 708 -68 698 -67 690 -68 b 673 -68 656 -67 639 -64 b 628 -62 617 -65 606 -64 b 588 -61 569 -62 550 -61 b 525 -59 501 -59 476 -63 b 464 -66 448 -64 434 -64 b 427 -64 419 -61 412 -62 b 391 -65 371 -68 350 -71 b 332 -75 313 -79 295 -82 b 280 -85 265 -87 250 -90 b 248 -90 245 -90 243 -90 z m 326 -96 b 337 -85 348 -83 359 -83 b 367 -82 373 -81 381 -83 b 390 -84 396 -84 401 -78 b 403 -76 407 -75 410 -75 b 438 -75 466 -75 494 -75 b 506 -75 517 -71 529 -71 b 550 -71 571 -73 593 -74 b 596 -74 598 -77 605 -81 b 588 -89 572 -82 557 -85 b 543 -88 527 -85 512 -85 b 497 -85 481 -86 465 -87 b 450 -88 434 -89 418 -90 b 405 -91 390 -91 375 -93 b 360 -95 347 -104 326 -96 z m 322 -96 b 302 -110 282 -107 257 -108 b 262 -103 264 -100 266 -100 b 280 -96 294 -93 309 -91 b 312 -91 316 -94 322 -96 z m 677 -91 b 653 -89 633 -87 610 -85 b 612 -81 613 -77 616 -76 b 624 -73 633 -72 643 -78 b 653 -83 663 -85 677 -91 z m 704 -95 b 699 -93 694 -92 684 -89 b 694 -85 700 -84 704 -95 z m 122 295 b 118 295 114 295 111 294 b 111 297 111 299 111 301 b 114 301 118 301 122 300 b 122 299 122 297 122 295 z m 152 389 b 148 387 146 385 144 385 b 143 385 142 387 140 388 b 142 390 143 392 145 392 b 146 392 148 391 152 389 z"},"3":{"x_min":0,"x_max":709,"ha":709,"o":"m 254 581 b 264 574 264 573 261 560 b 260 558 262 554 263 552 b 264 549 267 547 268 544 b 275 520 291 504 315 496 b 323 493 330 497 337 504 b 348 515 354 533 373 535 b 377 535 380 541 383 544 b 386 546 388 549 391 551 b 416 565 440 578 465 591 b 466 592 468 593 469 593 b 497 595 522 609 550 607 b 566 606 583 608 599 608 b 604 608 609 606 614 606 b 627 607 630 605 626 592 b 623 580 620 567 614 556 b 605 536 596 515 583 497 b 566 474 546 454 527 432 b 516 420 506 408 494 398 b 467 373 438 348 410 323 b 389 305 367 287 345 270 b 322 254 298 239 275 223 b 259 212 242 200 226 188 b 220 184 214 179 207 176 b 187 166 168 157 148 148 b 128 139 108 129 87 122 b 64 115 40 110 17 107 b -3 105 -24 103 -44 106 b -68 110 -87 133 -85 160 b -84 172 -82 184 -82 196 b -81 202 -83 208 -85 214 b -86 217 -90 220 -90 223 b -89 238 -87 252 -85 267 b -83 281 -81 295 -78 308 b -80 309 -81 309 -82 310 b -88 294 -107 285 -106 264 b -105 261 -108 258 -109 255 b -111 250 -114 246 -114 241 b -116 221 -117 200 -119 180 b -119 175 -121 170 -120 165 b -114 137 -108 108 -92 83 b -88 79 -84 74 -81 69 b -72 54 -70 36 -53 26 b -48 23 -44 19 -41 15 b -23 -3 -5 -19 21 -22 b 24 -23 27 -23 30 -24 b 38 -28 45 -29 46 -18 b 52 -20 57 -23 62 -23 b 86 -21 109 -19 133 -18 b 138 -17 142 -17 146 -15 b 165 -9 184 -3 201 5 b 218 13 234 26 251 33 b 277 45 297 64 319 81 b 329 89 340 96 351 103 b 365 113 380 122 393 132 b 404 140 413 151 424 159 b 459 182 486 215 520 240 b 533 249 543 263 555 274 b 584 301 604 335 627 367 b 634 377 643 385 651 393 b 654 396 657 399 659 403 b 663 412 666 421 670 430 b 674 438 678 446 682 454 b 688 469 695 485 702 503 b 701 503 699 506 698 508 b 700 512 705 518 704 519 b 697 528 703 536 705 544 b 707 557 710 570 697 581 b 696 582 695 584 695 586 b 696 600 688 610 680 620 b 671 632 661 643 650 656 b 654 659 657 661 661 663 b 643 676 628 689 611 698 b 594 706 575 711 555 718 b 561 723 565 725 567 728 b 577 738 588 749 597 760 b 603 769 614 771 618 784 b 623 803 634 819 641 837 b 645 849 646 862 648 874 b 648 878 646 883 645 886 b 638 887 633 887 628 887 b 638 897 635 903 626 909 b 629 911 631 913 634 914 b 627 919 621 923 614 928 b 604 935 595 943 594 958 b 594 961 591 967 588 968 b 578 973 566 978 555 979 b 524 981 492 976 462 967 b 429 958 396 946 364 934 b 342 926 320 917 299 906 b 276 893 254 879 231 866 b 182 838 137 806 97 768 b 84 756 84 746 96 734 b 98 733 99 731 100 729 b 104 719 114 712 124 715 b 141 719 159 725 175 732 b 185 737 194 744 202 750 b 239 778 276 804 316 825 b 336 836 356 848 377 856 b 416 872 456 886 497 898 b 517 904 540 905 561 907 b 574 908 577 901 570 890 b 565 882 559 874 553 867 b 534 843 514 821 491 801 b 481 793 473 782 464 773 b 449 759 433 746 417 734 b 394 714 371 695 346 677 b 327 664 307 654 287 642 b 271 633 256 622 250 603 b 249 601 249 598 250 595 b 251 590 253 586 254 581 z m 558 428 b 552 420 546 413 540 406 b 550 408 552 423 565 416 b 561 397 549 386 533 378 b 532 377 531 377 531 377 b 521 368 513 358 500 353 b 492 350 486 342 479 336 b 479 335 479 334 480 333 b 488 337 499 338 503 344 b 509 353 516 354 528 353 b 523 346 520 340 516 338 b 509 335 507 331 508 325 b 509 318 506 315 499 313 b 492 312 486 309 481 308 b 483 302 485 298 487 293 b 482 294 477 295 472 295 b 472 297 471 298 471 299 b 467 296 463 292 459 289 b 456 286 452 283 449 281 b 445 277 442 274 438 270 b 436 268 434 266 432 264 b 426 260 419 256 413 250 b 403 242 395 234 386 225 b 383 223 381 219 379 217 b 375 214 371 211 367 208 b 357 202 347 196 337 191 b 326 184 319 176 317 165 b 303 157 291 151 278 143 b 271 139 265 133 258 128 b 253 125 247 123 241 120 b 228 116 216 112 203 108 b 201 107 199 105 197 102 b 201 100 204 98 207 96 b 207 95 207 94 207 93 b 204 93 198 91 198 92 b 190 103 183 94 175 92 b 178 77 171 69 156 69 b 151 68 145 67 143 64 b 138 54 130 53 121 55 b 121 58 122 60 122 62 b 104 57 86 52 68 47 b 69 46 71 44 75 40 b 66 42 59 44 53 45 b 46 46 39 45 33 45 b 25 44 17 42 10 42 b 2 42 -6 43 -12 47 b -16 50 -16 58 -18 65 b -19 65 -23 64 -26 64 b -29 65 -31 67 -34 68 b -32 71 -30 74 -28 75 b 7 82 42 88 76 98 b 104 107 129 122 156 134 b 161 136 167 138 172 141 b 186 150 200 160 215 168 b 236 179 257 190 275 205 b 293 219 312 232 331 245 b 335 248 341 249 346 251 b 358 257 372 259 379 273 b 381 276 386 277 389 279 b 401 290 414 302 426 313 b 444 330 463 345 480 362 b 494 375 506 390 519 404 b 523 408 528 411 532 415 b 534 416 535 418 536 420 b 540 431 542 433 558 428 z m 13 -4 b 5 -4 -2 -4 -12 -4 b -2 7 5 2 13 -4 z m 358 176 b 353 174 350 171 348 172 b 345 172 342 175 340 177 b 342 179 345 183 347 183 b 350 182 353 179 358 176 z m 465 731 b 458 729 452 728 446 726 b 450 739 453 740 465 731 z m 543 373 b 546 370 548 367 550 365 b 548 363 545 360 544 360 b 541 361 539 364 536 367 b 538 368 540 370 543 373 z m 180 132 b 196 131 244 161 247 171 b 224 158 202 145 180 132 z m 86 85 b 85 86 84 87 83 88 b 77 85 72 82 65 79 b 70 74 73 71 78 65 b 81 73 84 79 86 85 z m 172 122 b 172 123 171 124 171 125 b 158 119 145 112 132 105 b 132 103 133 102 134 100 b 147 108 160 115 172 122 z m 28 71 b 18 70 11 69 4 68 b 4 67 4 66 3 65 b 7 62 12 57 15 58 b 19 59 22 65 28 71 z m 95 92 b 108 87 120 91 126 102 b 115 99 107 96 95 92 z"},";":{"x_min":0,"x_max":236,"ha":236,"o":"m 146 338 b 142 341 137 342 133 338 b 126 330 116 322 108 313 b 105 311 105 306 104 303 b 97 295 91 285 88 275 b 87 274 86 270 84 269 b 75 260 71 240 76 227 b 76 226 77 226 78 225 b 82 221 87 219 88 214 b 91 208 97 204 103 203 b 114 202 122 193 133 202 b 135 203 137 202 140 202 b 146 204 153 205 159 203 b 159 203 162 203 162 204 b 173 214 185 225 192 237 b 202 251 208 266 217 281 b 217 282 217 284 217 285 b 216 292 213 298 214 306 b 216 313 212 319 208 325 b 203 336 191 339 185 349 b 184 350 184 350 182 350 b 173 350 162 351 151 350 b 144 350 143 346 146 338 z m -79 -173 b -71 -177 -66 -179 -62 -181 b -55 -184 -49 -186 -41 -183 b -30 -180 -20 -178 -12 -169 b -11 -168 -9 -168 -7 -167 b 5 -166 12 -158 16 -147 b 18 -140 22 -135 30 -133 b 33 -133 36 -130 38 -128 b 44 -118 60 -107 67 -98 b 71 -92 90 -68 93 -61 b 98 -52 105 -45 115 -41 b 116 -40 118 -38 119 -36 b 124 -26 120 -10 111 -2 b 109 -1 108 1 107 2 b 102 14 91 20 81 22 b 64 24 48 38 31 23 b 31 23 30 23 29 23 b 16 20 9 14 7 1 b 3 -21 -2 -42 -11 -62 b -13 -68 -28 -94 -30 -100 b -33 -119 -50 -122 -52 -133 b -54 -145 -68 -150 -67 -163 b -67 -164 -69 -164 -70 -165 b -73 -167 -75 -170 -79 -173 z"},"J":{"x_min":0,"x_max":536,"ha":536,"o":"m 202 91 b 206 94 210 98 215 101 b 208 101 203 99 202 91 z m 183 72 b 189 78 196 85 202 90 b 187 91 185 82 183 72 b 183 72 182 70 182 70 l 183 70 b 183 70 183 72 183 72 z m 202 91 b 202 91 202 91 202 91 b 202 91 202 91 202 91 l 202 90 b 202 90 202 90 202 90 b 202 91 202 91 202 91 z m 175 61 b 175 60 175 60 175 60 b 175 61 175 61 175 61 b 175 61 175 61 174 61 b 174 61 174 61 174 61 b 175 61 175 60 175 60 b 175 60 175 60 175 60 b 177 64 179 67 182 70 b 177 68 173 67 175 61 z m 182 70 b 182 70 182 70 182 70 b 182 70 182 70 183 70 b 183 70 182 70 182 70 z m 646 1043 b 641 1044 636 1046 632 1047 b 631 1046 631 1043 631 1042 b 636 1041 641 1041 645 1040 b 645 1041 646 1042 646 1043 z m 857 1005 b 858 1006 859 1008 859 1010 b 819 1013 756 1025 726 1030 b 719 1029 715 1029 712 1032 b 712 1032 711 1033 711 1033 b 707 1033 706 1034 706 1034 b 690 1027 673 1031 657 1033 b 646 1034 636 1033 624 1034 b 610 1035 594 1036 580 1037 b 568 1037 557 1037 545 1037 b 539 1037 534 1037 529 1037 b 508 1038 486 1038 465 1038 b 443 1038 421 1037 398 1037 b 384 1036 370 1037 356 1036 b 339 1034 321 1031 303 1028 b 292 1027 281 1025 271 1024 b 261 1023 252 1023 244 1020 b 228 1017 211 1013 196 1009 b 182 1006 171 1004 157 1001 b 155 1000 153 999 151 998 b 151 998 151 994 152 994 b 154 993 157 993 160 993 b 164 993 167 994 170 995 b 170 994 171 993 171 993 b 169 991 167 990 164 989 b 153 986 144 982 132 979 b 131 979 130 977 129 975 b 131 975 133 973 135 973 b 139 975 143 977 147 979 b 148 980 149 982 150 982 b 160 978 169 987 178 987 b 180 987 182 991 183 992 b 187 992 193 992 196 992 b 196 993 196 993 196 994 b 194 995 191 995 186 997 b 186 998 186 999 186 999 b 197 1003 206 1008 218 1005 b 221 1004 224 1001 227 999 b 236 992 245 994 248 1005 b 240 1006 231 997 224 1006 b 226 1006 227 1007 228 1008 b 244 1011 258 1011 274 1015 b 288 1018 303 1015 316 1023 b 318 1024 321 1025 322 1024 b 331 1019 339 1023 346 1026 b 347 1027 348 1027 350 1027 b 358 1028 367 1028 374 1029 b 384 1030 388 1028 389 1018 b 387 1018 386 1018 384 1018 b 376 1020 369 1022 362 1016 b 362 1016 359 1016 358 1016 b 350 1017 341 1020 334 1018 b 324 1015 315 1018 306 1013 b 301 1009 292 1011 285 1010 b 284 1010 283 1011 282 1010 b 280 1009 279 1008 277 1007 b 279 1006 281 1005 283 1005 b 284 1004 285 1004 289 1004 b 284 997 277 997 272 998 b 262 1000 257 1000 256 990 b 249 992 241 994 235 988 b 235 988 233 987 233 988 b 227 994 222 988 215 988 b 211 987 208 988 206 986 b 200 983 195 980 187 979 b 181 977 174 977 168 976 b 167 976 165 977 165 976 b 155 966 142 966 129 965 b 118 963 110 954 99 952 b 87 949 77 943 66 938 b 56 934 46 927 35 921 b 34 921 33 920 32 920 b 31 920 31 920 30 920 b 33 926 35 932 39 937 b 41 937 47 935 50 936 b 55 938 59 943 54 949 b 58 951 60 954 63 955 b 65 956 67 958 69 956 b 82 948 91 961 102 962 b 103 962 103 965 104 967 b 95 964 86 962 78 959 b 77 960 77 961 76 962 b 78 963 81 964 82 965 b 91 969 101 973 110 977 b 115 979 118 979 118 973 b 118 970 119 969 120 968 b 120 967 123 968 123 968 b 123 970 123 973 122 974 b 120 979 121 981 127 982 b 133 983 140 987 148 989 b 148 989 149 993 148 994 b 147 995 145 997 143 997 b 128 991 114 984 100 980 b 81 975 63 964 46 952 b 36 945 27 941 17 934 b 2 919 -11 901 -16 881 b -18 868 -21 858 -23 845 b -24 843 -25 840 -23 838 b -16 828 -24 815 -23 805 b -21 789 -19 774 -14 760 b -11 751 -2 743 5 735 b 10 731 17 729 26 725 b 30 723 35 720 39 719 b 45 718 47 719 49 725 b 53 737 46 741 40 746 b 30 760 18 773 10 788 b 6 796 5 805 5 813 b 4 816 7 821 9 824 b 18 833 29 840 38 847 b 40 850 42 850 45 852 b 50 854 56 856 60 858 b 65 860 70 863 75 865 b 89 870 103 877 116 882 b 119 883 121 884 123 884 b 136 886 149 888 162 891 b 168 892 174 895 179 896 b 193 900 204 901 217 903 b 225 904 233 904 241 907 b 252 911 261 909 273 910 b 289 912 306 912 322 915 b 341 919 359 918 377 920 b 392 920 405 921 421 921 b 436 921 450 920 465 920 b 475 920 485 920 495 920 b 493 912 491 904 490 894 b 487 886 486 878 484 868 b 481 861 479 854 477 845 b 471 817 464 790 456 763 b 455 760 455 758 453 756 b 446 744 444 731 441 718 b 438 707 438 695 431 686 b 425 672 424 659 421 645 b 417 626 413 609 399 593 b 396 589 395 585 393 579 b 389 567 387 555 381 543 b 371 518 361 494 350 469 b 346 459 344 450 339 443 b 330 425 320 407 310 391 b 297 369 285 347 273 325 b 262 309 252 294 241 279 b 231 263 221 249 209 234 b 195 211 176 192 158 172 b 122 130 83 91 38 60 b 9 40 -20 24 -52 12 b -69 6 -87 3 -103 -4 b -124 -10 -145 -11 -166 -8 b -188 -5 -209 1 -221 21 b -225 27 -228 30 -236 29 b -232 19 -229 12 -225 5 b -221 0 -218 -7 -214 -11 b -208 -16 -202 -21 -193 -26 b -163 -46 -131 -62 -96 -72 b -91 -73 -87 -76 -81 -77 b -72 -78 -64 -76 -56 -79 b -37 -87 -19 -76 0 -76 b 7 -77 15 -73 23 -72 b 29 -71 33 -71 37 -69 b 60 -59 86 -51 107 -35 b 110 -33 113 -30 115 -30 b 123 -32 126 -27 130 -23 b 139 -16 149 -9 157 -3 b 163 2 168 4 172 7 b 191 19 203 37 223 48 b 225 49 225 51 226 53 b 229 61 233 68 242 72 b 247 74 250 76 252 78 b 258 87 262 95 269 104 b 272 107 274 113 277 115 b 292 122 297 134 303 149 b 305 151 307 154 309 156 b 319 170 330 181 340 193 b 341 195 342 197 341 198 b 339 205 344 207 348 211 b 351 215 356 221 358 225 b 365 235 372 246 375 257 b 377 264 386 265 389 272 b 392 282 398 291 402 299 b 405 306 413 312 404 318 b 408 323 413 327 415 332 b 420 342 425 350 430 360 b 434 366 437 370 439 375 b 426 383 431 366 422 368 b 425 373 427 380 431 381 b 443 386 446 394 450 402 b 456 418 463 432 469 448 b 465 449 461 450 458 451 b 458 452 458 453 458 454 b 464 455 469 456 475 457 b 475 460 475 465 475 468 b 471 468 469 468 466 469 l 466 472 b 470 473 475 475 477 476 b 480 483 483 491 487 497 b 493 503 493 510 491 515 b 502 528 509 539 500 555 b 504 557 507 557 509 559 b 510 563 510 568 511 571 b 513 577 515 582 520 588 b 524 594 518 603 524 610 b 528 614 529 619 530 625 b 530 635 530 645 537 653 b 543 662 545 672 550 681 b 554 689 554 698 556 708 b 558 720 561 732 568 742 b 570 744 571 748 571 751 b 569 765 576 779 582 790 b 590 810 596 830 601 850 b 602 856 603 862 607 865 b 620 878 617 896 625 911 b 625 911 625 911 625 911 b 657 908 687 905 716 901 b 732 900 747 895 764 893 b 766 893 768 892 769 893 b 777 900 784 896 793 895 b 795 894 799 894 800 895 b 804 900 808 906 812 911 b 813 912 813 914 813 915 b 809 920 811 924 815 925 b 817 931 819 934 820 938 b 822 943 824 948 825 953 b 826 959 827 963 835 961 b 841 959 842 967 844 971 b 846 975 846 977 851 977 b 856 978 859 989 855 994 b 853 1000 852 1002 857 1005 z m 7 900 b 6 909 20 926 29 928 b 20 917 13 909 7 900 z m 308 367 b 306 358 305 350 297 348 b 299 354 301 361 308 367 z m 236 253 b 248 271 258 288 271 306 b 278 319 285 332 294 345 b 294 346 295 346 296 347 b 295 341 294 334 292 329 b 283 313 274 297 264 283 b 253 267 242 253 230 237 b 232 243 233 249 236 253 z m -74 -26 b -74 -24 -75 -23 -75 -23 b -74 -21 -73 -20 -71 -19 b -69 -18 -67 -18 -65 -18 b -64 -18 -64 -19 -64 -20 b -67 -22 -71 -23 -74 -26 z m -57 -15 b -54 -14 -51 -12 -49 -12 b -8 6 32 30 66 60 b 82 73 98 87 113 101 b 136 123 154 148 176 171 b 186 183 198 198 206 212 b 210 221 217 228 222 234 b 223 236 227 235 229 236 b 230 226 225 219 219 210 b 203 192 189 174 174 155 b 169 148 160 141 155 133 b 147 121 137 108 123 101 b 111 80 90 70 74 57 b 71 55 70 50 67 48 b 64 44 61 40 58 39 b 48 36 41 30 34 24 b 8 6 -21 -9 -52 -16 b -54 -17 -55 -16 -57 -15 z m 32 -8 b 31 -9 30 -10 30 -11 b 29 -17 25 -18 18 -17 b 12 -17 8 -19 4 -26 b 1 -31 -7 -35 -13 -36 b -23 -37 -35 -37 -46 -38 b -45 -33 -41 -32 -37 -30 b -9 -20 17 -8 41 12 b 54 20 66 30 80 37 b 97 46 108 62 122 75 b 137 89 151 104 164 119 b 182 141 204 160 220 185 b 229 203 244 219 255 234 b 265 250 274 264 282 280 b 286 286 291 292 294 298 b 305 318 317 338 328 359 b 337 377 345 397 354 416 b 364 438 374 458 384 480 b 387 487 389 494 391 501 b 400 525 411 549 419 572 b 427 595 436 618 443 641 b 446 651 450 662 454 672 b 455 671 455 671 456 671 b 456 668 455 665 454 663 b 446 619 428 579 416 538 b 410 518 399 499 392 479 b 390 474 390 468 388 458 b 379 452 371 444 373 428 b 373 425 368 421 366 417 b 361 403 350 393 351 377 b 341 369 341 356 334 346 b 326 333 319 318 313 304 b 311 302 313 297 313 294 b 313 289 313 285 313 280 b 307 280 302 279 294 279 b 289 259 269 248 266 226 b 265 223 265 219 265 214 b 255 216 253 207 250 202 b 246 197 248 187 247 181 b 240 180 233 180 230 177 b 227 174 228 166 227 159 b 212 152 199 142 193 124 b 193 123 189 122 186 119 b 184 119 181 118 181 117 b 175 102 159 93 150 79 b 140 66 126 58 113 48 b 109 44 105 40 101 37 b 97 34 94 29 86 27 b 81 25 75 18 70 14 b 58 7 47 -4 32 -8 z m 417 510 b 419 513 420 516 423 523 b 424 515 426 510 417 510 z m 418 491 b 415 490 414 488 412 487 b 411 487 408 490 408 491 b 410 494 412 495 413 496 b 414 496 416 494 418 491 z m 389 429 b 388 427 387 424 387 422 b 386 423 384 423 383 424 b 384 426 386 428 387 430 b 388 430 388 429 389 429 z m 354 353 b 351 351 350 349 349 349 b 348 349 346 351 346 352 b 346 354 347 356 349 357 b 349 357 351 354 354 353 z m 333 318 b 333 317 331 316 331 316 b 330 316 329 318 328 319 b 329 320 331 321 332 321 b 332 321 333 319 333 318 z m 275 223 b 273 214 273 214 266 214 b 268 216 272 220 275 223 z m 46 -43 b 57 -26 57 -26 72 -26 b 63 -32 57 -38 46 -43 z m 269 161 b 269 160 267 162 266 165 b 268 166 271 167 273 168 b 273 168 275 165 274 165 b 273 164 271 162 269 161 z m 418 432 b 414 427 410 421 410 412 b 410 409 410 407 408 406 b 400 400 399 391 395 383 b 382 362 374 341 366 319 b 363 309 354 306 350 297 b 349 295 347 293 345 291 b 349 289 351 288 356 287 b 349 283 345 279 341 276 b 322 258 311 236 303 213 b 300 207 301 207 288 199 b 288 193 290 187 286 183 b 284 179 279 176 274 175 b 261 172 260 159 253 152 b 245 144 237 134 230 126 b 233 127 236 128 242 130 b 240 114 228 115 217 113 b 221 110 223 108 225 106 b 212 91 200 77 187 62 b 183 56 180 55 175 60 b 172 60 169 59 164 59 b 169 56 172 52 176 49 b 155 38 139 27 126 10 b 125 8 123 6 121 5 b 111 0 101 -8 91 -13 b 90 -13 88 -13 86 -13 b 85 -12 85 -11 84 -10 b 86 -9 88 -8 90 -7 b 104 6 120 16 133 28 b 135 29 137 30 137 30 b 133 39 145 40 148 46 b 150 55 156 60 162 65 b 186 88 207 115 230 140 b 247 159 259 181 275 202 b 285 214 293 231 303 246 b 308 255 316 263 321 274 b 330 287 337 304 347 317 b 357 329 361 344 370 354 b 372 357 370 362 370 368 b 376 373 384 379 383 392 b 383 394 387 396 388 398 b 392 404 396 409 397 420 b 397 426 401 434 406 441 b 414 448 419 454 420 465 b 420 469 421 469 429 470 b 428 456 427 444 418 432 z m 434 393 b 431 394 430 396 430 397 b 430 398 432 399 436 400 b 436 398 437 397 438 395 b 436 394 434 393 434 393 z m 438 476 b 429 478 430 483 432 486 b 444 499 445 515 450 530 b 450 530 451 531 452 531 b 453 531 454 530 455 530 b 449 512 444 495 438 476 z m 458 538 b 456 539 455 539 455 540 b 455 541 455 543 456 545 b 458 543 460 542 460 541 b 460 540 459 539 458 538 z m 466 569 b 470 582 474 596 478 611 b 478 611 479 611 483 611 b 479 595 473 582 466 569 z m 258 984 b 260 986 262 988 265 988 b 273 989 280 989 288 989 b 289 983 288 980 281 980 b 275 980 268 979 261 978 b 260 978 258 979 257 979 b 257 980 257 983 258 984 z m 42 912 b 43 919 53 926 61 927 b 61 926 62 925 62 925 b 56 920 49 916 42 912 z m 109 939 b 101 941 98 934 91 932 b 89 932 88 931 86 929 b 83 928 80 927 76 925 b 71 919 69 919 65 928 b 71 929 73 940 83 935 b 87 942 105 949 116 946 b 113 943 111 939 109 939 z m 420 980 b 400 978 379 984 361 978 b 361 978 361 978 361 978 b 350 977 342 976 332 974 b 326 973 319 971 314 970 b 301 969 289 968 276 967 b 266 965 257 963 248 961 b 232 959 217 956 201 954 b 200 954 198 953 197 953 b 191 951 184 948 179 945 b 178 945 176 946 175 948 b 173 951 172 955 170 960 b 157 958 146 943 129 952 l 131 942 b 140 943 148 944 156 945 b 156 945 156 944 157 943 b 153 941 149 939 145 938 b 140 936 135 936 130 935 b 128 935 126 935 125 936 b 124 936 125 939 124 940 b 124 942 124 944 123 946 b 122 949 119 950 116 952 b 124 954 129 958 136 959 b 143 961 149 962 155 963 b 174 968 194 974 211 978 b 221 980 229 981 237 983 b 244 986 248 984 249 979 b 244 971 236 970 227 974 b 224 975 220 974 217 973 b 211 971 208 968 205 968 b 196 966 186 966 177 958 b 179 958 180 958 181 958 b 187 959 195 959 201 960 b 204 961 208 962 212 963 b 219 964 224 965 230 966 b 234 967 240 968 246 969 b 250 970 254 971 258 973 b 264 974 269 974 275 975 b 289 979 302 986 317 982 b 319 982 320 983 322 984 b 321 986 319 989 318 989 b 314 989 310 988 306 988 b 304 988 301 989 299 989 b 307 998 316 994 324 994 b 326 994 327 992 328 991 b 331 982 334 981 342 988 b 342 989 341 991 340 994 b 343 994 347 995 348 994 b 349 992 349 988 350 984 b 354 987 357 989 361 992 b 367 1000 368 1000 377 992 b 374 991 371 991 368 990 b 367 990 365 988 365 988 b 366 987 367 983 368 983 b 370 983 372 984 375 984 b 379 986 384 987 390 988 b 391 989 393 988 394 989 b 398 995 404 992 411 994 b 410 992 408 990 406 988 b 413 986 418 984 424 982 b 423 982 421 981 420 980 z m 465 988 b 459 986 452 982 446 980 b 444 979 440 982 437 983 b 447 997 461 989 473 994 b 473 993 473 992 474 991 b 471 990 468 989 465 988 z m 606 1053 l 600 1053 b 603 1053 605 1053 606 1053 z"},"V":{"x_min":0,"x_max":665,"ha":665,"o":"m 310 260 b 310 260 310 260 310 260 b 310 260 310 260 310 260 l 310 260 z m 594 536 b 594 536 594 536 594 536 b 594 536 594 536 594 536 b 594 536 594 536 594 536 b 594 536 594 536 594 536 z m 819 1125 b 819 1125 819 1125 819 1125 b 819 1125 819 1125 819 1125 l 819 1125 z m 536 458 b 536 458 536 458 536 458 b 536 458 536 458 536 458 l 536 458 z m 874 1024 b 875 1033 878 1043 879 1052 b 881 1061 887 1072 875 1076 b 874 1076 875 1078 875 1079 b 875 1096 867 1109 862 1124 b 854 1153 832 1166 811 1182 b 810 1179 809 1177 807 1174 b 784 1195 783 1195 773 1191 b 773 1190 773 1190 774 1190 b 795 1178 809 1159 813 1131 b 814 1127 815 1124 819 1125 b 818 1137 830 1128 830 1134 b 826 1140 821 1145 817 1151 b 824 1154 827 1150 831 1146 b 842 1136 841 1120 843 1105 b 845 1100 845 1094 846 1088 b 846 1083 845 1078 844 1073 b 843 1069 843 1063 841 1061 b 833 1054 844 1054 843 1049 b 837 1037 834 1024 830 1012 b 825 996 823 980 815 965 b 815 965 816 964 817 963 b 822 961 824 965 825 970 b 829 979 831 988 838 996 b 841 999 842 1005 843 1009 b 842 1014 844 1017 846 1021 b 851 1035 856 1050 861 1064 b 861 1066 862 1067 865 1069 b 869 1063 869 1057 869 1050 b 865 1030 859 1010 858 989 b 857 986 855 982 854 979 b 849 971 845 962 846 952 b 849 952 851 952 857 952 b 847 943 837 936 828 928 b 833 925 837 923 841 921 b 833 906 825 890 819 876 b 816 868 810 860 814 849 b 799 856 792 846 786 834 b 795 829 784 821 788 814 b 784 812 778 811 778 809 b 777 799 769 797 765 792 b 756 781 749 769 744 757 b 743 754 742 752 739 749 b 728 740 728 735 737 726 b 738 725 737 723 739 721 b 733 719 729 718 726 717 b 726 714 727 712 727 709 b 724 708 722 708 719 707 b 721 704 724 701 721 696 b 716 689 710 681 707 674 b 703 665 697 662 689 661 b 686 661 681 659 677 658 b 688 658 688 658 692 652 b 686 637 674 627 665 613 b 650 591 634 571 618 550 b 614 546 611 544 608 548 b 611 553 614 558 618 564 b 601 566 604 545 592 544 b 593 541 594 538 594 536 b 598 538 602 540 606 542 b 605 532 604 524 594 522 b 593 521 592 519 589 518 b 591 512 588 507 584 503 b 573 491 564 480 555 466 b 551 458 544 453 535 449 b 536 453 536 455 536 458 b 524 455 521 453 522 445 b 524 444 526 443 530 441 b 528 438 527 435 526 432 b 525 431 524 431 523 431 b 519 435 515 440 511 444 b 502 433 498 420 484 415 b 487 421 488 425 489 428 b 503 440 508 459 524 469 b 527 470 527 473 528 475 b 533 484 536 496 549 500 b 551 500 552 504 554 507 b 565 521 575 536 586 551 b 603 573 619 594 636 617 b 645 630 654 643 662 657 b 671 670 679 682 689 696 b 696 710 706 725 714 740 b 721 752 727 763 735 774 b 739 781 739 787 738 794 b 737 796 737 798 736 800 b 740 803 743 806 745 808 b 735 807 731 797 727 789 b 723 781 719 773 716 767 b 710 761 707 754 704 747 b 700 736 695 726 681 727 b 680 727 680 725 680 725 b 679 718 678 711 678 704 b 667 705 661 695 658 688 b 652 677 645 666 636 658 b 637 645 636 642 625 634 b 617 626 606 618 602 608 b 597 600 591 595 586 589 b 582 584 577 582 576 575 b 576 573 574 571 572 569 b 561 561 552 551 546 538 b 547 536 549 533 551 531 b 540 522 530 515 520 507 b 524 501 525 495 516 490 b 515 490 512 487 512 486 b 509 475 502 470 495 462 b 490 456 485 449 480 443 b 478 440 474 437 471 435 b 463 427 452 423 450 409 b 447 409 444 409 440 409 b 442 405 444 402 444 398 b 433 397 428 391 424 382 b 424 382 424 382 424 382 b 418 376 413 371 409 366 b 403 360 396 355 394 349 b 388 336 376 329 367 319 b 356 307 344 295 333 282 b 326 275 319 268 310 260 b 309 257 307 253 305 250 b 301 245 295 241 291 237 b 289 235 286 234 281 231 b 284 236 284 239 285 241 b 288 244 292 245 289 249 b 287 254 290 257 293 260 b 298 264 299 269 303 273 b 307 276 312 278 316 281 b 320 287 324 298 329 300 b 338 304 339 318 350 317 b 350 318 350 319 350 320 b 351 323 351 325 353 327 b 363 340 377 353 386 367 b 400 385 414 403 427 421 b 436 432 447 442 456 453 b 465 465 473 476 482 488 b 487 494 490 504 494 506 b 506 511 510 522 516 531 b 535 554 551 578 569 601 b 578 614 583 633 598 643 b 600 645 601 650 601 653 l 601 653 b 601 653 601 653 601 653 b 601 653 602 653 602 653 b 602 653 602 653 602 653 b 602 653 602 653 602 653 b 601 656 600 660 597 665 b 594 659 592 654 589 651 b 579 635 567 620 555 605 b 546 592 537 580 528 566 b 520 556 514 546 509 535 b 503 526 498 519 491 512 b 479 501 469 487 459 475 b 457 472 453 469 450 466 b 431 441 413 417 394 392 b 388 386 382 379 379 373 b 366 360 354 348 343 336 b 334 326 331 309 316 303 b 315 303 313 300 313 299 b 309 283 292 278 285 266 b 281 261 277 256 272 252 b 271 249 270 246 269 244 b 258 234 250 220 237 209 b 227 201 220 189 211 180 b 198 168 189 154 177 143 b 155 123 136 100 114 80 b 108 74 103 70 95 65 b 87 75 89 87 87 96 b 88 101 86 105 86 110 b 83 124 81 138 86 154 b 88 161 93 171 92 176 b 88 184 93 189 94 196 b 94 203 96 211 94 218 b 92 224 94 228 96 232 b 99 236 101 239 103 243 b 101 247 99 250 97 254 b 100 258 105 262 107 266 b 110 274 111 282 113 291 b 118 303 122 316 125 329 b 127 337 131 344 132 352 b 132 361 133 369 136 377 b 138 379 138 383 139 386 b 144 404 145 423 155 440 b 158 449 162 458 153 465 b 167 473 171 479 174 493 b 176 501 177 508 179 515 b 185 535 192 556 201 577 b 208 601 218 627 227 653 b 230 663 232 673 235 684 b 237 686 238 690 240 692 b 247 697 249 705 250 713 b 251 718 251 723 254 728 b 266 747 271 769 285 786 b 286 787 287 788 287 789 b 293 798 293 808 285 815 b 280 820 275 825 268 828 b 263 829 264 832 265 836 b 253 841 242 835 231 838 b 232 843 233 847 235 852 b 228 851 223 851 217 849 b 214 848 208 846 203 844 b 202 845 202 846 201 847 b 204 851 207 854 210 857 b 206 857 203 858 200 857 b 188 853 177 846 172 833 b 158 793 142 753 130 712 b 128 705 125 697 122 690 b 112 659 101 628 90 596 b 84 576 77 555 70 533 b 62 504 52 475 44 446 b 37 412 29 377 20 343 b 8 301 1 258 -3 214 b -5 178 -4 143 3 109 b 8 87 14 66 30 50 b 48 30 64 6 92 -2 b 94 -3 95 -4 96 -6 b 102 -11 108 -13 116 -11 b 123 -9 126 -12 130 -14 b 147 -20 163 -29 180 -15 b 196 -14 206 -3 216 11 b 219 16 227 19 231 24 b 248 42 266 61 283 79 b 293 89 303 96 314 107 b 329 127 347 146 360 168 b 360 172 363 174 367 177 b 373 184 380 192 387 200 b 397 213 406 227 416 241 b 422 250 429 260 437 268 b 453 283 467 299 480 317 b 483 321 487 324 489 328 b 508 351 527 376 547 401 b 550 406 554 413 558 418 b 571 432 586 451 596 477 b 597 478 598 479 599 480 b 606 491 615 503 625 513 b 636 524 646 534 653 547 b 660 559 668 569 674 581 b 680 592 688 603 697 614 b 702 622 710 630 714 639 b 724 666 741 688 757 712 b 771 735 786 757 794 787 b 794 789 796 790 796 791 b 801 801 805 811 810 820 b 813 826 819 830 820 835 b 821 847 829 856 834 866 b 840 877 845 887 845 897 b 848 899 851 901 854 903 b 853 909 851 916 858 921 b 853 928 858 934 860 941 b 863 950 866 958 868 966 b 874 981 876 996 881 1011 b 871 1016 871 1016 874 1024 z m 126 481 b 126 483 124 484 124 486 b 124 487 126 489 128 492 b 129 488 130 486 130 484 b 130 483 128 482 126 481 z m 144 614 b 151 599 137 590 137 578 b 130 585 132 594 144 614 z m 127 614 b 122 600 121 583 110 572 b 108 581 118 604 127 614 z m 106 564 b 106 552 106 552 99 547 b 96 555 105 559 106 564 z m 44 407 b 48 407 52 407 56 407 b 67 447 75 487 91 526 b 92 526 94 526 95 526 b 96 523 97 518 96 515 b 84 492 78 467 73 442 b 72 438 70 435 70 431 b 68 428 66 426 66 424 b 65 408 58 394 53 380 b 52 376 53 372 52 368 b 51 358 50 348 38 341 b 39 347 39 352 40 356 b 42 368 45 380 51 392 b 55 401 52 404 44 407 z m 20 241 b 18 248 19 253 24 258 b 25 252 27 247 20 241 z m 28 271 b 21 276 21 276 30 292 b 30 285 29 278 28 271 z m 34 336 b 35 337 36 337 37 338 b 40 336 42 335 44 334 b 40 325 37 317 32 307 b 28 318 40 327 34 336 z m 28 152 b 26 166 24 178 29 191 b 34 183 33 165 28 152 z m 31 220 b 34 232 30 243 44 251 b 40 240 42 228 31 220 z m 42 170 b 38 183 38 183 45 192 b 45 185 43 177 42 170 z m 66 350 b 68 341 66 333 62 324 b 58 318 58 311 56 305 b 54 301 51 298 47 296 b 70 389 94 482 128 574 b 132 571 135 569 136 566 b 129 560 127 553 125 545 b 120 527 112 511 109 492 b 108 485 103 478 99 471 b 96 465 98 461 101 457 b 95 453 94 446 92 439 b 89 427 91 412 82 402 b 84 394 71 387 79 380 b 77 373 75 365 70 358 b 68 355 67 354 66 350 z m 70 265 b 69 267 68 268 67 269 b 67 270 69 272 70 272 b 71 272 72 270 74 269 b 72 267 71 266 70 265 z m 84 338 b 83 338 82 340 81 341 b 82 342 83 343 84 345 b 86 343 87 342 86 340 b 87 339 85 338 84 338 z m 87 351 b 86 353 84 355 84 358 b 84 358 88 362 88 361 b 90 360 92 358 95 355 b 92 353 88 351 87 351 z m 95 379 b 94 386 91 394 100 400 b 101 389 101 389 95 379 z m 270 226 b 267 222 265 219 262 216 b 261 218 259 219 259 220 b 261 225 264 229 269 229 b 269 227 270 226 270 226 z m 433 383 b 431 382 427 382 424 382 b 427 385 430 388 433 392 b 436 389 437 386 433 383 z m 482 407 b 480 399 476 397 469 400 b 473 405 476 408 482 407 z m 465 358 b 465 359 463 361 464 362 b 471 369 471 384 485 384 b 484 382 483 379 482 376 b 477 370 472 364 465 358 z m 485 385 b 487 391 486 398 496 397 b 494 390 488 389 485 385 z m 736 735 b 741 735 745 735 750 735 b 744 729 740 730 736 735 z m 668 772 b 675 771 684 775 685 779 b 683 781 683 784 682 786 b 687 795 692 803 696 811 b 705 824 713 836 721 849 b 727 860 734 869 737 882 b 737 884 741 886 743 888 b 750 900 757 913 761 928 b 761 928 760 928 758 930 b 733 875 699 826 668 772 z m 606 653 b 614 665 624 677 632 688 b 626 692 624 695 619 699 b 615 691 613 683 610 675 b 608 675 606 674 601 674 b 608 663 608 663 602 653 b 603 653 605 653 606 653 z m 764 853 b 757 843 750 834 743 825 b 739 820 743 818 749 818 b 751 822 755 827 756 831 b 761 839 767 833 772 835 b 772 837 773 838 773 839 b 773 841 773 842 772 843 b 770 843 768 843 766 843 b 766 846 767 849 767 851 b 767 852 765 852 764 853 z m 811 1069 b 823 1080 817 1095 823 1107 b 826 1115 823 1120 819 1125 b 818 1123 816 1121 816 1119 b 814 1102 812 1086 811 1069 z m 819 1125 b 819 1125 819 1125 819 1125 b 819 1125 819 1125 819 1125 b 819 1125 819 1125 819 1125 z m 663 761 b 653 752 647 741 644 726 b 663 731 657 750 663 761 z m 778 972 b 779 971 780 971 781 970 b 783 972 785 974 786 977 b 791 990 794 1003 798 1016 b 797 1017 796 1017 795 1017 b 790 1002 784 987 778 972 z m 784 900 b 786 897 788 893 789 890 b 798 899 798 899 795 912 b 791 907 788 904 784 900 z m 591 536 b 587 529 581 522 575 513 b 581 515 585 516 589 518 b 591 524 593 530 594 536 b 593 536 591 536 591 536 z m 589 518 b 589 518 589 517 589 517 b 589 517 589 517 589 518 b 589 518 589 518 589 518 b 589 518 589 518 589 518 z m 617 571 b 627 570 626 582 632 584 b 623 587 623 587 617 571 z m 761 935 b 769 938 770 943 770 948 b 772 953 775 958 778 962 b 777 962 776 963 775 963 b 770 954 766 945 761 935 z m 829 915 b 825 908 821 900 818 892 b 819 892 819 892 820 891 b 824 899 828 906 831 914 b 830 914 830 915 829 915 z m 698 680 b 692 679 690 678 683 677 b 692 667 692 667 698 680 z m 536 458 b 536 458 536 458 536 458 b 536 458 536 458 536 458 b 536 458 536 458 536 458 z m 548 474 b 543 471 538 469 532 466 b 533 463 535 461 536 458 b 543 461 546 467 548 474 z m 548 474 b 548 474 548 474 548 474 b 548 474 548 474 548 474 l 548 474 z m 651 614 b 658 618 660 623 661 630 b 649 620 649 620 651 614 z m 563 491 b 565 495 566 497 569 501 b 565 502 562 502 559 502 b 559 501 559 500 558 499 b 558 497 560 495 563 491 z m 719 708 b 719 708 719 707 719 707 b 719 707 719 707 719 707 b 719 707 719 708 719 708 b 719 708 719 708 719 708 z m 711 712 b 713 711 716 709 719 708 b 721 711 723 714 726 717 b 719 718 718 718 711 712 z m 726 717 b 726 717 726 717 726 717 b 726 717 726 717 726 717 b 726 717 726 717 726 717 b 726 717 726 717 726 717 b 726 717 726 717 726 717 l 726 717 b 726 717 726 717 726 717 z m 808 1047 b 809 1050 809 1054 810 1060 b 805 1049 804 1047 808 1047 z m 547 483 b 548 479 548 477 548 474 b 551 476 553 477 559 480 b 554 481 551 482 547 483 z m 548 474 b 548 474 548 474 548 474 b 548 474 548 474 548 474 b 548 474 548 474 548 474 z m 777 875 b 776 875 774 874 771 873 b 771 872 771 870 771 870 b 773 870 776 871 777 871 b 778 873 778 874 777 875 z m 800 923 b 798 922 797 921 793 920 b 795 918 796 916 796 916 b 797 917 799 918 801 920 b 801 921 800 923 800 923 z m 819 951 b 821 951 822 953 823 955 b 823 955 823 956 822 957 b 819 956 817 955 811 953 b 816 952 818 950 819 951 z m 310 261 b 309 263 310 266 310 270 b 303 263 307 262 310 261 z m 310 260 b 310 260 310 260 310 260 b 310 260 310 260 310 261 b 310 260 310 260 310 260 z m 705 687 b 704 689 703 690 701 691 b 701 691 698 689 698 689 b 699 687 701 686 701 684 b 704 685 705 687 705 687 z m 801 1026 b 802 1027 805 1029 806 1030 b 806 1031 805 1031 805 1032 b 803 1030 802 1029 799 1027 b 800 1027 800 1026 801 1026 z m 666 749 b 666 748 667 747 669 745 b 670 748 671 749 671 751 b 671 751 669 753 668 753 b 667 752 666 751 666 749 z"},"\"":{"x_min":0,"x_max":454,"ha":454,"o":"m 182 630 b 189 637 196 642 199 648 b 205 655 206 663 210 670 b 211 672 211 673 213 674 b 227 687 230 703 237 719 b 250 744 259 771 270 797 b 281 822 291 847 303 872 b 307 885 314 897 322 909 b 327 918 342 928 339 944 b 339 948 335 951 331 954 b 328 956 323 958 316 961 b 311 958 305 958 301 965 b 299 967 295 968 291 968 b 286 968 281 967 276 966 b 268 964 260 962 253 961 b 243 963 235 962 229 951 b 222 940 218 929 213 918 b 212 915 211 912 210 909 b 204 897 194 884 204 871 b 203 870 204 866 203 865 b 197 858 196 851 200 844 b 201 841 199 837 198 834 b 196 826 196 819 196 811 b 195 809 197 806 197 804 b 192 792 189 780 186 768 b 184 763 180 758 182 753 b 183 741 179 730 175 719 b 170 702 165 685 160 667 b 162 667 163 667 163 666 b 167 673 172 680 178 689 b 184 679 179 670 176 661 b 175 651 171 642 169 632 b 174 632 178 631 182 630 z m 366 629 b 371 633 373 638 377 643 b 369 650 368 656 378 671 b 380 674 379 677 380 681 b 384 686 387 691 391 697 b 393 701 394 707 397 711 b 404 719 404 729 407 737 b 409 741 412 744 415 747 b 420 732 405 720 404 705 b 406 708 409 709 410 711 b 412 710 414 709 416 706 b 419 711 421 715 423 719 b 426 724 429 729 431 735 b 441 758 453 781 463 804 b 471 824 477 844 487 863 b 495 882 504 901 513 919 b 518 929 524 938 530 947 b 537 956 536 966 526 969 b 518 971 511 974 503 975 b 497 976 491 974 486 974 b 479 974 473 974 465 973 b 464 973 462 974 461 973 b 451 962 441 967 430 963 b 418 958 407 953 403 940 b 401 931 401 921 401 912 b 401 907 400 902 400 897 b 398 891 392 886 392 881 b 391 873 391 866 391 857 b 387 854 384 849 388 842 b 390 839 388 835 387 831 b 385 825 383 820 379 814 b 379 812 378 809 379 807 b 383 799 379 791 377 783 b 373 775 370 766 367 758 b 367 756 369 754 370 752 b 370 750 372 748 372 746 b 372 737 374 727 366 718 b 364 716 367 712 368 709 b 367 708 369 707 369 707 b 366 700 369 693 367 687 b 361 672 350 658 349 641 b 349 638 346 635 347 633 b 347 629 350 623 354 623 b 356 622 363 626 366 629 z m 423 771 b 426 778 430 786 433 796 b 433 796 436 796 438 795 b 439 794 438 791 438 790 b 438 788 436 786 435 784 b 431 775 430 766 426 758 b 425 755 422 753 420 751 b 419 752 417 754 416 755 b 423 759 421 765 423 771 z m 378 764 b 380 761 379 757 381 754 b 380 753 379 752 378 751 b 376 753 372 755 370 758 b 370 759 375 762 376 764 b 377 764 377 764 378 764 z m 399 677 b 396 675 392 672 387 670 b 384 666 380 662 378 657 b 377 655 377 651 379 650 b 380 649 384 649 385 650 b 390 658 395 667 400 675 b 400 676 399 676 399 677 z m 414 702 b 405 699 401 691 405 685 b 408 691 411 696 414 702 z"},"7":{"x_min":0,"x_max":589,"ha":589,"o":"m 187 355 b 188 353 189 351 189 349 b 189 347 187 345 185 344 b 184 344 182 346 180 347 b 181 348 182 350 183 352 b 184 353 186 354 188 354 b 187 356 187 357 187 358 b 187 361 188 365 189 369 b 192 368 195 367 198 367 b 202 366 206 367 213 367 b 204 371 198 374 192 377 b 198 379 203 378 208 379 b 221 383 221 384 221 389 b 219 389 216 389 213 389 b 212 396 214 403 221 401 b 231 398 231 405 232 409 b 230 413 226 416 227 417 b 229 426 231 435 235 442 b 240 451 243 450 252 444 b 251 449 251 455 250 462 b 251 464 253 467 254 469 b 260 470 264 472 268 473 b 265 476 262 476 262 478 b 260 481 257 486 259 488 b 261 492 266 497 270 498 b 283 499 283 510 288 517 b 296 528 300 543 314 552 b 310 553 301 553 308 560 b 313 564 316 574 326 572 b 326 572 328 573 328 574 b 332 583 336 591 343 597 b 353 606 359 618 366 629 b 368 633 370 637 371 641 b 372 647 372 654 381 655 b 384 655 388 660 389 663 b 391 668 390 673 391 678 b 394 677 398 676 399 676 b 405 685 410 694 415 702 b 422 713 438 719 439 735 b 439 736 442 738 443 739 b 452 755 472 761 478 779 b 478 780 479 780 480 781 b 483 784 488 786 490 790 b 495 797 499 805 505 811 b 515 824 527 835 538 847 b 550 860 568 869 570 890 b 570 897 575 904 568 910 b 567 911 567 913 568 914 b 571 929 570 943 561 955 b 559 958 555 959 552 961 b 547 963 542 965 537 968 b 535 969 534 973 535 974 b 536 975 539 976 541 977 b 543 977 544 976 546 976 b 546 976 546 977 546 978 b 540 979 533 981 527 983 b 528 986 529 988 530 990 b 503 991 507 994 507 1002 b 502 1003 495 1002 492 1005 b 487 1010 483 1010 478 1007 b 467 1001 456 996 446 990 b 445 990 445 989 445 989 b 447 988 449 987 453 985 b 446 978 442 969 430 968 b 421 968 412 965 403 962 b 401 962 400 959 399 958 b 399 957 399 957 400 956 b 410 959 419 961 429 964 b 431 964 433 964 435 964 b 435 964 436 960 435 960 b 431 957 427 952 422 951 b 411 947 400 945 389 943 b 380 941 371 939 362 939 b 356 938 355 942 357 948 b 361 946 364 943 367 944 b 374 946 381 950 388 953 b 390 954 390 956 391 957 b 390 958 387 959 386 958 b 380 953 373 953 365 955 b 363 956 360 954 357 954 b 351 952 345 949 339 949 b 331 948 325 948 318 943 b 317 943 315 943 313 943 b 303 941 293 939 283 938 b 279 937 275 935 270 933 b 271 940 271 944 279 944 b 288 944 296 948 305 950 b 321 954 336 959 352 963 b 367 966 382 970 398 974 b 401 974 403 977 406 978 b 404 980 403 981 402 981 b 384 976 365 971 346 966 b 337 964 327 962 317 960 b 306 957 295 953 284 951 b 255 944 225 938 196 932 b 180 929 165 925 149 923 b 124 920 99 918 74 915 b 66 914 57 914 49 914 b 36 913 23 913 10 914 b -5 915 -19 920 -28 933 b -31 939 -36 940 -40 938 b -50 936 -60 931 -62 920 b -64 908 -60 896 -68 884 b -68 884 -68 884 -68 884 b -64 876 -61 867 -56 861 b -48 852 -44 844 -44 833 b -43 828 -42 824 -36 826 b -31 828 -29 825 -26 822 b -22 816 -17 808 -11 807 b 10 803 30 792 53 797 b 74 802 97 798 119 801 b 147 805 175 810 203 816 b 216 819 230 822 243 825 b 248 826 252 827 256 828 b 263 831 269 837 276 838 b 291 843 309 840 320 857 b 320 858 321 858 322 858 b 338 865 355 871 371 878 b 372 877 372 876 373 875 b 370 868 367 861 362 855 b 352 839 340 825 329 809 b 323 801 319 791 313 782 b 303 768 293 754 284 740 b 270 717 256 694 243 670 b 232 652 221 633 210 614 b 199 594 188 574 177 554 b 168 538 160 522 151 506 b 143 488 135 471 126 454 b 121 442 115 430 110 418 b 104 403 98 387 92 372 b 85 355 78 338 71 321 b 71 320 71 318 72 316 b 72 317 73 317 73 318 b 76 316 81 314 80 313 b 78 307 75 301 72 295 b 71 295 71 295 70 296 b 70 301 71 306 71 311 b 70 311 69 311 68 311 b 59 277 44 244 37 209 b 40 210 41 213 43 214 b 44 215 46 214 48 214 b 46 209 45 204 43 198 b 40 200 37 201 34 203 b 32 197 29 191 28 184 b 22 157 18 129 13 102 b 13 101 12 100 12 99 b 10 85 7 71 7 57 b 6 46 8 36 10 26 b 11 17 12 9 14 0 b 18 -22 32 -39 44 -57 b 45 -58 46 -60 48 -61 b 56 -65 64 -68 72 -72 b 73 -73 75 -73 75 -74 b 79 -81 84 -79 89 -76 b 92 -75 96 -75 98 -73 b 102 -71 105 -69 108 -67 b 99 -62 90 -60 82 -64 b 80 -64 77 -63 76 -62 b 70 -58 65 -53 61 -50 b 61 -44 62 -40 61 -36 b 60 -30 58 -25 57 -20 b 57 -19 58 -19 59 -19 b 56 -18 52 -17 47 -16 b 54 -10 60 -6 67 0 b 63 1 59 2 56 3 b 56 4 55 5 55 5 b 61 7 68 9 74 11 b 74 12 74 13 74 14 b 70 17 67 20 63 23 b 64 20 64 17 65 14 b 62 15 58 15 55 16 b 52 17 49 19 46 20 b 47 21 47 22 47 23 b 52 23 58 23 63 23 b 64 25 65 29 66 29 b 74 28 74 34 78 38 b 87 49 86 63 89 75 b 91 83 91 91 92 99 b 92 99 93 99 94 99 b 92 100 90 102 88 104 b 90 106 91 108 93 110 b 96 107 97 105 100 101 b 102 107 104 111 105 115 b 102 117 100 118 97 120 b 102 122 104 123 107 124 b 105 127 103 129 101 131 b 99 133 95 134 95 135 b 96 140 97 144 99 149 b 100 149 104 147 107 147 b 110 147 112 148 115 148 b 114 150 114 153 114 155 b 113 156 112 157 112 157 b 111 160 111 163 110 165 b 113 165 116 165 119 165 b 120 165 121 164 123 163 b 125 169 128 174 128 179 b 128 191 135 199 138 210 b 139 217 143 223 145 230 b 151 245 156 261 162 276 b 163 278 163 281 164 283 b 164 283 160 285 160 284 b 159 283 157 281 157 279 b 155 271 142 264 135 266 b 132 266 129 264 127 264 b 128 260 129 255 131 253 b 134 250 138 250 139 255 b 139 257 141 257 143 258 b 144 257 144 257 145 256 b 142 248 139 241 136 233 b 135 232 136 229 136 227 b 136 225 136 222 135 221 b 132 221 129 221 126 222 b 125 222 125 226 125 228 b 127 232 129 237 131 241 b 122 239 121 232 120 225 b 118 217 112 211 110 203 b 108 197 107 190 106 184 b 111 186 114 190 116 189 b 119 188 121 184 123 181 b 123 180 119 175 117 175 b 111 175 105 176 100 177 b 97 178 94 182 94 184 b 94 187 96 191 98 195 b 98 197 99 199 99 201 b 100 207 101 213 102 219 b 102 221 103 223 104 226 b 104 230 105 234 106 240 b 108 243 109 245 111 248 b 112 250 114 252 114 254 b 116 260 117 266 118 274 b 124 273 132 273 139 272 b 140 274 140 278 141 280 b 144 284 149 286 152 290 b 153 291 153 293 154 297 b 150 295 148 293 147 293 b 144 293 142 295 140 296 b 141 298 143 301 145 302 b 151 305 157 307 163 309 b 162 312 161 312 160 312 b 157 313 154 313 151 314 b 151 316 152 318 152 320 b 155 319 158 319 161 317 b 165 314 167 315 168 321 b 169 323 174 326 175 326 b 184 322 185 328 188 334 b 190 340 191 349 201 346 b 202 346 203 348 204 350 b 198 352 192 353 187 355 z m 41 36 b 40 35 38 34 38 34 b 40 23 31 25 25 24 b 24 17 31 8 20 2 b 20 11 19 19 18 28 b 12 31 13 35 15 41 b 18 52 17 63 19 74 b 20 84 23 94 25 104 b 26 107 26 109 26 111 b 23 110 20 110 17 109 b 17 111 16 115 17 115 b 19 118 23 119 25 120 b 25 125 24 129 24 134 b 26 133 29 132 32 131 b 32 133 32 135 32 137 b 31 144 28 151 36 156 b 37 156 34 162 33 164 b 32 167 29 170 30 172 b 32 177 29 185 39 187 b 38 181 37 175 36 170 b 37 170 39 170 40 169 b 45 185 50 201 55 217 b 54 218 53 218 52 219 b 50 221 48 223 46 226 b 49 226 51 226 54 227 b 56 228 59 229 60 230 b 61 233 61 236 62 240 b 52 242 51 244 55 254 b 57 258 57 262 59 267 b 71 261 57 253 63 245 b 65 251 68 255 70 259 b 76 277 83 295 90 313 b 93 323 97 333 102 344 b 107 355 112 366 117 378 b 121 389 125 400 130 411 b 133 419 138 426 141 433 b 144 440 146 448 148 454 b 150 458 153 461 155 464 b 156 467 159 469 160 472 b 163 485 171 496 178 507 b 182 512 184 518 186 522 b 189 527 192 531 195 535 b 197 540 198 546 200 552 b 204 557 209 564 214 571 b 220 579 227 587 233 596 b 235 600 236 605 238 609 b 242 615 246 621 249 627 b 251 630 253 634 256 638 b 256 640 257 641 258 642 b 262 645 266 649 271 653 b 275 649 272 645 270 642 b 268 637 266 632 264 627 b 263 626 263 625 263 625 b 249 615 245 600 238 586 b 232 574 226 563 220 551 b 211 535 202 519 193 502 b 188 491 184 479 179 467 b 178 465 175 464 173 463 b 166 458 165 449 170 441 b 173 447 177 453 180 458 b 184 465 188 472 192 478 b 192 479 193 480 193 481 b 196 489 198 497 202 504 b 204 510 209 516 213 521 b 214 524 217 525 221 528 b 221 524 222 521 221 520 b 218 511 215 503 210 495 b 206 489 203 485 213 479 b 202 483 200 476 198 470 b 192 459 186 449 181 438 b 180 436 180 433 180 430 b 178 428 176 424 175 421 b 178 421 182 422 187 422 b 183 418 182 411 174 413 b 173 414 170 411 169 409 b 166 403 163 396 159 389 b 163 385 166 388 169 392 b 170 394 172 395 174 396 b 174 394 174 390 173 389 b 169 385 165 382 161 377 b 164 376 168 376 172 376 b 174 375 176 375 178 374 b 178 374 178 371 178 371 b 176 371 173 370 172 371 b 164 374 163 370 163 364 b 167 363 171 363 175 363 b 171 353 168 343 164 335 b 161 331 157 328 153 325 b 152 325 151 326 151 326 b 151 328 150 329 150 330 b 155 338 159 345 163 353 b 164 356 163 360 163 364 b 155 362 154 354 152 348 b 150 341 150 334 139 334 b 135 335 130 329 126 326 b 125 326 125 323 126 323 b 127 322 129 321 130 321 b 134 321 137 321 140 321 b 141 321 142 315 141 315 b 138 312 134 311 129 308 b 129 308 129 306 129 303 b 115 304 117 291 112 284 b 110 282 109 278 108 275 b 106 273 105 271 104 269 b 102 258 100 247 97 237 b 95 231 92 225 89 220 b 87 214 83 208 82 202 b 80 197 81 192 80 189 b 75 176 70 165 67 154 b 63 139 64 124 51 113 b 50 112 51 110 50 108 b 51 107 52 106 52 106 b 59 109 70 112 71 116 b 73 126 80 136 74 147 b 77 151 82 155 83 160 b 85 165 84 171 84 179 b 91 175 97 172 104 168 b 102 166 101 163 99 163 b 88 159 90 151 90 143 b 90 141 89 139 89 138 b 88 136 86 133 86 131 b 87 113 73 100 71 83 b 70 78 66 74 63 67 b 65 63 66 56 59 50 b 50 60 51 60 58 75 b 61 83 62 92 65 104 b 55 101 48 100 41 99 b 39 94 37 90 35 85 b 41 85 47 84 54 83 b 48 77 42 74 34 76 b 33 76 30 74 29 73 b 29 72 30 68 31 68 b 41 62 43 57 41 45 b 40 42 40 39 40 35 b 45 35 49 36 52 41 b 53 43 57 44 60 43 b 62 43 63 40 64 39 b 58 36 53 34 48 32 b 44 30 41 30 41 36 z m 106 389 b 107 394 109 399 111 404 b 112 410 114 416 116 422 b 117 424 118 427 119 429 b 123 436 131 440 130 449 b 130 450 131 452 132 453 b 134 454 137 455 139 456 b 139 454 139 451 138 449 b 134 438 128 428 123 417 b 120 409 117 402 113 394 b 112 392 110 390 108 388 b 108 388 107 389 106 389 z m 215 459 b 221 464 226 469 232 474 b 233 475 238 474 238 473 b 239 469 240 464 239 460 b 238 457 235 455 232 452 b 231 451 228 451 227 451 b 223 453 220 456 215 459 z m 169 515 b 169 514 169 513 168 512 b 162 500 155 487 148 475 b 148 474 145 473 143 472 b 143 474 141 476 142 478 b 148 490 154 502 161 514 b 162 516 164 517 167 518 b 167 518 168 516 169 515 z m 306 699 b 304 696 304 693 303 692 b 294 689 293 680 287 673 b 286 672 284 672 282 671 b 282 673 281 676 282 677 b 286 685 289 692 294 699 b 295 701 299 702 301 703 b 302 703 304 700 306 699 z m 225 445 b 221 440 217 435 213 429 b 212 429 211 429 210 429 b 209 434 207 438 207 443 b 207 445 210 448 213 449 b 216 449 221 448 224 447 b 225 447 225 446 225 445 z m 120 280 b 122 285 122 290 125 292 b 128 294 133 293 137 293 b 138 293 140 290 140 288 b 140 287 138 285 137 285 b 132 283 128 282 120 280 z m 259 522 b 262 522 264 522 268 522 b 265 514 261 508 258 501 b 257 500 255 500 254 499 b 254 500 252 502 253 503 b 254 506 255 510 256 513 b 257 516 259 518 260 520 b 260 521 260 521 259 522 z m 258 559 b 258 553 258 547 259 539 b 256 541 250 543 250 546 b 250 551 253 555 255 560 b 256 560 257 559 258 559 z m 85 341 b 86 346 87 351 89 355 b 90 357 94 358 96 359 b 96 357 96 354 96 352 b 95 349 95 347 93 345 b 92 342 89 341 87 339 b 86 339 85 340 85 341 z m 237 540 b 239 541 242 543 245 545 b 250 537 247 531 238 529 b 237 532 237 536 237 540 z m 246 935 b 252 936 257 937 264 938 b 259 926 253 930 247 932 b 247 933 246 934 246 935 z m 183 335 b 180 332 178 331 176 329 b 174 331 172 333 172 335 b 171 337 174 339 175 341 b 177 339 180 338 183 335 z m 274 915 b 273 918 271 920 271 922 b 272 924 274 926 276 928 b 278 926 280 924 280 922 b 280 920 277 918 274 915 z m 226 512 b 228 515 231 517 234 519 b 234 519 237 517 238 516 b 235 514 232 511 229 509 b 228 510 227 511 226 512 z m 260 588 b 256 586 254 584 252 583 b 251 583 248 587 249 587 b 250 589 252 591 254 593 b 255 593 257 590 260 588 z m 200 405 b 203 400 205 397 206 393 b 206 392 204 390 204 388 b 202 390 200 391 199 392 b 199 396 200 399 200 405 z m 305 582 b 303 586 301 588 302 589 b 303 591 304 594 306 596 b 307 595 310 594 310 593 b 309 590 307 587 305 582 z m 358 935 b 355 932 353 930 352 930 b 350 931 349 933 348 935 b 347 936 350 939 351 939 b 353 939 355 937 358 935 z m 409 982 b 417 977 429 981 434 987 b 426 986 419 984 409 982 z m 238 423 b 241 426 243 427 244 429 b 244 432 243 435 243 438 b 243 439 240 439 239 439 b 238 436 238 434 238 431 b 238 429 238 427 238 423 z m 176 305 b 161 295 161 295 168 291 b 171 296 173 301 176 305 z m 167 438 b 165 439 164 439 163 439 b 159 429 156 419 152 408 b 170 413 161 429 167 438 z m 44 112 b 52 117 54 124 50 135 b 45 127 41 121 44 112 z m 142 389 b 142 388 143 387 144 387 b 147 389 150 392 152 395 b 153 396 150 400 148 403 b 146 397 144 393 142 389 z m 153 368 b 153 369 152 369 152 369 b 149 366 147 363 145 360 b 145 359 146 357 147 355 b 148 356 150 357 150 358 b 152 361 152 365 153 368 z m 141 379 b 140 380 139 380 138 381 b 135 376 133 372 131 367 b 132 367 133 366 134 366 b 136 370 139 374 141 379 z m 148 351 b 146 351 144 351 143 351 b 143 348 142 345 143 342 b 143 342 145 341 147 341 b 147 344 147 347 148 351 z"},"S":{"x_min":0,"x_max":758,"ha":758,"o":"m 137 59 b 137 59 137 59 137 59 b 137 59 137 59 137 59 l 137 59 z m 313 22 b 313 22 313 22 313 22 b 313 22 313 22 313 22 z m 744 957 b 743 960 744 964 743 967 b 743 978 741 989 736 1000 b 729 1015 722 1028 712 1040 b 708 1044 705 1048 699 1049 b 680 1054 660 1054 640 1045 b 630 1040 618 1034 606 1031 b 583 1028 563 1013 541 1004 b 533 1000 524 994 515 989 b 506 984 497 976 489 973 b 480 970 474 960 464 957 b 456 954 448 946 442 941 b 434 936 424 931 417 924 b 412 921 407 917 401 914 b 392 908 384 896 373 892 b 373 892 372 892 372 892 b 346 868 319 847 294 824 b 292 823 290 821 290 820 b 291 806 283 805 276 803 b 274 802 272 799 270 797 b 259 782 248 767 236 751 b 231 744 225 737 222 727 b 217 716 208 710 208 698 b 208 697 208 696 208 695 b 195 679 192 654 189 633 b 188 613 183 595 191 576 b 188 560 196 548 197 535 b 198 522 204 515 208 507 b 213 491 221 479 232 469 b 235 466 239 465 242 466 b 255 467 266 465 276 453 b 281 448 286 446 291 450 b 299 452 304 455 312 458 b 317 460 323 463 329 464 b 333 464 336 465 340 466 b 346 470 350 477 358 474 b 359 473 361 474 361 477 b 366 488 373 490 382 490 b 382 490 383 490 384 491 b 388 497 395 497 399 499 b 403 501 406 503 410 506 b 410 507 412 509 413 508 b 424 506 435 516 445 516 b 451 516 458 519 463 522 b 474 528 484 532 496 529 b 497 529 499 528 500 530 b 506 540 513 536 520 538 b 523 538 527 541 531 542 b 532 543 534 543 537 543 b 541 543 546 542 551 543 b 556 544 559 545 564 546 b 571 548 580 552 584 550 b 599 546 613 547 625 553 b 632 551 636 548 640 548 b 649 548 654 546 655 536 b 656 521 663 512 670 503 b 677 495 679 486 679 474 b 678 452 676 430 665 412 b 664 411 664 408 663 407 b 657 395 653 382 646 372 b 632 350 619 330 604 311 b 597 303 591 296 584 290 b 576 280 566 271 556 262 b 554 259 551 258 549 256 b 543 251 537 246 531 241 b 520 232 508 222 497 213 b 486 205 475 198 463 189 b 457 184 451 180 444 177 b 438 175 435 162 425 168 b 423 158 415 159 409 156 b 396 150 383 142 370 135 b 361 130 351 125 342 122 b 332 119 324 110 313 113 b 312 113 311 112 310 110 b 300 100 286 100 274 98 b 261 97 250 91 236 90 b 228 90 220 90 212 89 b 199 84 182 90 165 88 b 155 86 142 90 128 92 b 124 92 118 94 114 95 b 100 97 86 98 72 101 b 62 103 50 106 41 111 b 28 116 16 125 4 130 b -13 137 -27 154 -41 168 b -44 170 -45 174 -45 177 b -49 187 -53 201 -54 214 b -56 231 -54 248 -54 266 b -54 274 -52 281 -53 288 b -53 295 -52 300 -51 307 b -48 322 -42 338 -57 348 b -54 356 -51 364 -49 371 b -56 368 -60 364 -63 357 b -66 352 -67 346 -69 341 b -72 330 -77 322 -80 312 b -87 281 -88 250 -85 219 b -84 205 -82 190 -78 177 b -74 155 -71 131 -59 113 b -58 110 -57 105 -56 102 b -48 88 -42 72 -34 59 b -31 51 -26 47 -22 43 b -20 38 -20 32 -17 28 b -7 17 -1 6 9 -1 b 21 -12 37 -20 50 -30 b 57 -35 66 -37 69 -44 b 75 -51 82 -53 89 -55 b 103 -62 119 -65 136 -68 b 149 -70 161 -71 171 -72 b 181 -73 191 -75 201 -73 b 207 -71 212 -71 218 -72 b 225 -72 232 -73 239 -68 b 248 -63 257 -58 267 -64 b 273 -67 279 -67 286 -66 b 300 -63 312 -56 324 -55 b 333 -54 338 -50 342 -42 b 351 -45 351 -45 360 -37 b 362 -34 366 -30 369 -30 b 383 -29 395 -20 406 -13 b 409 -11 412 -8 414 -9 b 423 -10 427 -4 434 1 b 437 5 440 7 444 5 b 446 5 447 5 449 6 b 457 10 464 17 472 25 b 469 28 466 31 462 34 b 469 37 473 39 477 42 b 479 38 480 35 481 32 b 492 38 505 34 513 48 b 513 49 515 49 516 50 b 529 58 542 59 552 75 b 552 76 554 77 555 77 b 568 82 579 90 587 101 b 592 106 596 108 602 108 b 604 113 605 116 607 118 b 615 126 622 133 630 141 b 635 148 641 155 647 162 b 654 168 662 174 668 181 b 674 187 678 198 683 207 b 684 209 686 211 688 212 b 700 218 705 233 713 246 b 717 255 718 265 723 273 b 734 292 739 315 739 339 b 739 353 740 369 740 382 b 740 389 739 398 739 406 b 739 417 730 428 739 438 b 739 439 738 443 737 445 b 732 462 727 479 723 495 b 718 513 708 526 699 542 b 692 554 681 565 672 576 b 667 583 663 583 658 575 b 655 568 650 568 644 569 b 638 570 632 572 627 572 b 612 574 597 574 584 576 b 583 576 580 577 579 576 b 569 569 558 571 548 571 b 539 572 531 572 521 571 b 508 570 496 567 484 564 b 480 563 477 562 476 567 b 472 575 469 572 464 569 b 469 565 471 561 464 558 b 460 557 457 556 454 554 b 451 558 449 562 447 564 b 437 561 427 559 419 557 b 419 554 419 551 419 547 b 406 557 396 553 386 545 b 385 544 384 544 382 544 b 369 541 357 538 345 534 b 331 528 317 522 304 517 b 302 516 299 516 296 514 b 283 509 271 508 261 522 b 259 518 256 515 254 512 b 250 514 245 516 240 519 b 234 523 232 530 236 540 b 240 552 245 565 250 579 b 252 586 255 592 261 595 b 263 597 267 602 270 606 b 272 608 274 611 275 614 b 278 619 281 623 283 626 b 292 634 300 640 308 649 b 317 656 324 670 335 679 b 347 689 361 696 368 712 b 369 712 369 713 369 713 b 380 719 390 725 399 731 b 406 735 412 737 419 741 b 421 742 422 745 423 747 b 423 748 423 750 423 751 b 430 755 436 759 443 762 b 444 763 446 763 446 764 b 451 776 463 774 471 782 b 474 787 481 788 484 793 b 492 802 500 807 510 811 b 518 814 527 816 532 822 b 537 829 545 833 553 838 b 560 843 569 848 577 850 b 583 852 588 856 594 861 b 595 863 598 866 600 865 b 614 864 627 871 638 875 b 645 878 654 881 662 884 b 671 887 675 882 672 867 b 670 863 669 857 668 851 l 668 851 b 668 847 671 843 670 840 b 668 833 666 825 663 819 b 654 803 644 788 634 772 b 631 764 625 759 620 751 b 616 746 613 740 607 737 b 603 734 599 728 594 723 b 600 723 603 723 607 723 b 598 707 587 699 583 680 b 591 683 599 675 607 684 b 617 679 622 689 627 697 b 636 698 644 703 650 710 b 659 719 666 731 677 737 b 683 741 690 749 693 759 b 696 766 701 771 706 773 b 714 777 718 784 720 794 b 722 799 724 805 725 811 b 729 823 734 835 736 847 b 739 864 740 881 742 899 b 742 901 743 902 743 904 b 746 921 749 938 744 957 z m -26 121 b -27 124 -27 126 -27 127 b -26 128 -25 129 -24 128 b -23 128 -22 125 -22 124 b -22 123 -24 123 -26 121 z m 410 131 b 413 134 416 136 420 138 b 421 138 421 137 422 137 b 420 132 419 127 416 123 b 415 121 412 122 410 122 b 410 125 410 129 410 131 z m 388 122 b 389 123 392 122 394 122 b 394 120 394 116 393 115 b 389 107 385 107 379 112 b 383 115 385 118 388 122 z m 318 99 b 316 93 312 94 307 96 b 312 105 312 105 318 99 z m 266 87 b 267 85 268 83 269 81 b 268 81 268 79 267 78 b 265 81 264 83 263 85 b 264 86 266 87 266 87 z m 183 74 b 183 73 183 72 183 70 b 179 70 175 69 171 68 b 171 69 171 70 170 71 b 175 72 178 76 183 74 z m 87 79 b 92 78 98 77 102 75 b 96 67 94 67 87 76 b 87 77 87 78 87 79 z m 73 79 l 78 81 b 79 79 79 78 79 77 b 78 76 77 75 76 75 b 75 74 74 76 72 77 b 73 77 73 78 73 79 z m -14 117 b -13 118 -12 118 -11 118 b -9 118 -7 117 -7 117 b 3 110 16 108 27 91 b 25 92 23 92 22 92 b 9 97 -2 111 -15 113 b -15 114 -15 116 -14 117 z m -9 95 b -10 95 -11 97 -11 98 b -10 99 -8 100 -7 100 b -7 100 -7 98 -6 96 b -7 95 -8 95 -9 95 z m 56 31 b 63 37 68 34 75 30 b 68 30 63 16 56 31 z m 75 49 b 63 53 50 56 38 59 b 35 60 33 62 31 65 b 24 73 20 75 12 72 b 7 77 2 82 -4 88 b 3 91 8 89 14 87 b 19 85 24 83 29 90 b 30 92 35 93 38 93 b 47 93 57 90 66 85 b 66 81 65 77 64 74 b 67 67 71 64 78 66 b 80 67 84 66 87 64 b 96 59 103 59 110 69 b 113 75 115 78 120 75 b 128 71 137 73 145 75 b 149 75 153 77 154 70 b 149 65 139 70 137 59 b 148 59 157 59 166 58 b 174 58 182 57 190 57 b 194 57 198 59 201 59 b 203 59 204 60 206 60 b 220 59 235 64 251 66 b 258 67 265 69 273 71 b 290 76 306 82 323 86 b 329 88 336 86 340 95 b 341 97 343 98 344 98 b 355 103 367 112 379 112 b 380 102 374 98 369 94 b 368 97 367 99 364 103 b 363 99 362 96 361 94 b 343 93 331 83 319 63 b 312 75 304 71 297 64 b 292 60 287 61 282 60 b 272 59 262 56 254 53 b 250 51 245 51 240 50 b 230 46 218 55 209 44 b 208 43 208 43 207 43 b 189 44 171 46 155 44 b 146 44 137 53 127 44 b 127 43 126 43 126 44 b 117 53 109 46 101 48 b 94 50 88 51 78 54 b 78 54 77 51 75 49 z m 344 75 b 343 73 341 71 338 69 b 337 72 336 75 336 76 b 337 78 340 79 342 82 b 343 79 344 76 344 75 z m 85 21 b 94 26 100 19 106 15 b 100 18 92 10 85 21 z m 268 -3 b 272 -2 274 -1 276 0 b 275 -8 275 -8 268 -3 z m 350 17 b 349 17 349 21 349 24 b 349 25 352 27 354 28 b 355 28 356 25 359 21 b 355 19 353 17 350 17 z m 495 129 b 491 121 484 117 477 113 b 472 108 468 105 463 101 b 454 96 445 90 437 86 b 435 85 433 85 432 84 b 429 75 424 79 423 81 b 410 63 396 59 379 54 b 374 41 366 39 355 43 b 350 40 348 35 343 33 b 337 30 332 31 328 29 b 323 28 318 26 313 22 b 313 22 313 21 313 19 b 312 9 310 9 303 11 b 293 16 293 16 286 15 b 287 11 287 8 287 5 b 279 2 280 11 275 14 b 274 11 272 8 270 6 b 254 8 237 13 220 4 b 223 3 225 2 229 0 b 222 -10 213 2 207 -5 b 208 0 208 3 209 5 b 208 6 208 6 208 6 b 201 6 193 9 186 8 b 173 5 160 14 149 6 b 141 6 137 6 131 6 b 121 6 119 7 113 17 b 114 18 117 19 119 19 b 147 15 172 15 199 16 b 212 17 227 20 242 22 b 253 25 262 25 273 26 b 275 27 276 27 278 28 b 290 33 302 39 313 43 b 318 46 324 47 329 49 b 331 49 333 49 335 51 b 351 61 369 66 385 75 b 399 85 413 93 427 102 b 438 108 447 117 459 121 b 463 122 467 127 471 130 b 472 129 473 127 475 126 b 479 123 481 125 482 132 b 482 135 483 140 484 140 b 491 144 498 146 506 149 b 507 149 507 148 508 146 b 501 143 498 137 495 129 z m 530 151 b 525 147 520 145 514 151 b 519 154 523 156 529 159 b 530 155 531 152 530 151 z m 525 201 b 525 202 525 202 525 203 b 527 204 529 204 531 204 b 531 203 531 202 531 201 b 529 201 527 201 525 201 z m 535 207 b 534 208 533 210 533 211 b 534 212 535 213 535 213 b 537 212 537 210 537 208 b 536 208 535 207 535 207 z m 553 194 b 553 195 552 195 552 196 b 556 201 559 206 563 210 b 568 216 569 216 573 208 b 567 203 560 199 553 194 z m 316 791 b 316 790 314 789 313 789 b 312 790 312 793 312 793 b 312 795 314 795 316 797 b 316 795 316 792 316 791 z m 378 877 b 383 875 386 874 391 873 b 383 866 382 866 378 877 z"},"}":{"x_min":0,"x_max":470,"ha":470,"o":"m 214 293 b 211 291 208 288 206 286 b 199 274 193 261 187 249 b 185 245 183 241 181 237 b 176 223 169 209 165 196 b 163 189 155 181 159 174 b 159 173 158 170 157 168 b 153 160 150 151 146 142 b 143 134 140 125 137 117 b 134 111 128 104 128 99 b 129 91 122 83 120 75 b 119 73 119 72 118 70 b 117 68 116 66 115 63 b 112 57 106 51 106 45 b 105 33 95 23 90 11 b 87 4 82 -4 78 -12 b 78 -14 75 -16 73 -18 b 70 -23 68 -28 65 -32 b 59 -40 51 -47 48 -55 b 43 -67 26 -75 29 -87 b 22 -96 15 -104 7 -112 b -3 -122 -13 -132 -24 -141 b -28 -145 -36 -148 -38 -152 b -44 -163 -53 -167 -63 -171 b -65 -172 -67 -173 -70 -175 b -79 -180 -88 -187 -98 -186 b -103 -186 -108 -187 -113 -186 b -119 -186 -126 -186 -131 -184 b -139 -180 -142 -181 -151 -192 b -142 -192 -140 -197 -141 -205 b -142 -206 -140 -207 -139 -208 b -131 -209 -126 -212 -122 -218 b -121 -220 -119 -222 -116 -222 b -106 -221 -98 -228 -85 -222 b -84 -221 -82 -221 -81 -221 b -78 -228 -69 -223 -63 -223 b -40 -222 -18 -214 3 -196 b 7 -193 12 -187 16 -186 b 28 -183 37 -175 45 -167 b 49 -163 54 -160 51 -155 b 51 -154 54 -150 55 -149 b 59 -148 63 -147 66 -145 b 67 -142 69 -139 71 -137 b 78 -129 85 -123 90 -114 b 96 -104 105 -95 112 -85 b 117 -76 120 -68 129 -60 b 138 -51 145 -39 152 -28 b 154 -25 154 -21 153 -18 b 153 -16 150 -16 148 -14 b 152 -10 161 -8 158 -3 b 161 0 165 3 166 5 b 168 10 168 15 171 20 b 175 30 177 41 185 50 b 185 51 185 53 185 54 b 186 57 187 59 189 62 b 189 63 190 65 191 67 b 193 70 195 73 197 76 b 200 80 203 83 207 87 b 200 85 195 84 189 83 b 195 89 200 93 203 97 b 206 102 207 108 209 113 b 210 114 211 115 212 116 b 222 125 226 139 223 144 b 226 150 229 155 231 160 b 235 166 231 175 243 178 b 245 187 242 196 252 205 b 257 209 259 215 262 220 b 266 226 268 232 273 237 b 286 253 296 270 309 287 b 317 297 326 307 336 316 b 347 326 358 336 370 344 b 378 350 385 359 395 359 b 399 358 403 359 407 359 b 409 360 413 361 414 362 b 419 370 426 372 434 375 b 442 378 447 392 443 395 b 437 399 431 402 425 406 b 428 409 431 412 435 415 b 431 415 429 416 427 415 b 418 414 410 413 404 417 b 400 420 396 425 388 422 b 387 422 386 424 384 424 b 382 425 380 426 377 427 b 380 432 380 432 371 432 b 374 435 377 437 380 440 b 376 447 378 458 368 460 b 366 460 366 463 366 465 b 365 470 365 475 364 480 b 363 485 362 489 367 495 b 368 497 368 499 367 501 b 366 509 362 517 363 526 b 366 538 360 547 359 558 b 359 564 356 570 366 577 b 368 577 367 582 367 585 b 367 586 364 587 364 587 b 366 591 369 594 369 597 b 370 605 371 613 371 621 b 371 626 370 631 370 636 b 370 637 374 639 374 639 b 374 645 373 650 372 656 b 384 664 385 665 380 675 b 390 691 399 707 408 722 b 407 722 406 723 406 723 b 404 721 402 719 400 718 b 399 717 397 717 396 717 b 396 718 395 719 395 720 b 398 727 401 734 405 741 b 407 740 409 739 412 738 b 413 745 414 750 414 755 b 416 757 420 759 422 762 b 425 768 427 775 428 780 b 427 778 425 777 423 775 b 422 776 421 778 421 779 b 422 782 425 784 427 785 b 433 789 438 792 439 800 b 440 808 444 816 449 823 b 454 832 463 841 459 850 b 459 851 460 852 461 853 b 465 861 470 869 473 877 b 483 905 493 932 501 960 b 508 981 513 1003 519 1024 b 523 1041 513 1053 517 1069 b 517 1070 517 1070 517 1071 b 512 1076 507 1082 501 1087 b 494 1094 486 1101 478 1108 b 477 1109 476 1110 474 1111 b 459 1117 444 1123 428 1128 b 424 1130 419 1130 414 1130 b 401 1128 388 1126 381 1132 b 375 1130 370 1129 366 1128 b 363 1128 361 1127 358 1126 b 358 1124 357 1121 358 1120 b 362 1114 364 1107 370 1103 b 379 1096 385 1085 399 1084 b 406 1083 413 1082 419 1080 b 423 1078 431 1079 429 1069 b 425 1055 422 1040 419 1026 b 416 1013 413 1001 410 988 b 409 981 410 974 408 967 b 408 964 404 960 402 957 b 393 950 391 945 393 936 b 394 931 394 926 387 921 b 385 919 383 916 383 914 b 382 909 382 903 382 897 b 382 897 381 896 380 896 b 378 894 376 892 373 891 b 375 890 377 889 379 888 b 380 887 381 886 383 884 b 378 883 375 883 373 882 b 372 882 372 878 372 878 b 377 872 374 866 367 859 b 364 855 361 851 358 846 b 365 840 361 832 354 822 b 348 813 344 802 341 793 b 340 786 339 780 334 777 b 332 771 332 767 330 763 b 327 754 325 746 321 738 b 317 732 310 727 313 720 b 313 719 311 717 310 715 b 309 713 306 711 307 710 b 308 701 302 692 297 683 b 294 678 294 671 292 665 b 290 657 288 648 285 638 b 292 635 281 630 279 626 b 281 623 285 622 285 620 b 284 611 282 603 281 594 b 281 588 274 580 284 578 b 285 578 285 575 285 574 b 286 567 287 560 287 553 b 287 550 286 548 286 545 b 286 543 286 541 286 540 b 290 532 287 520 295 514 b 295 514 295 512 295 511 b 295 508 296 506 297 503 b 300 493 304 484 308 474 b 311 466 314 459 318 451 b 319 447 322 443 325 440 b 334 431 343 422 354 412 b 343 408 334 403 325 401 b 306 397 290 385 275 372 b 274 371 273 370 272 369 b 268 364 264 359 260 354 b 253 346 245 337 237 330 b 227 319 222 306 210 297 b 209 296 209 296 209 294 b 211 294 213 293 214 293 z m 25 -120 b 34 -109 43 -98 51 -87 b 53 -85 55 -83 56 -81 b 62 -69 71 -59 78 -47 b 82 -42 83 -36 85 -31 b 86 -30 86 -28 87 -28 b 102 -11 108 7 116 25 b 123 40 131 56 137 71 b 145 91 152 111 159 131 b 163 139 167 148 171 156 b 175 166 180 176 184 185 b 185 187 186 188 189 191 b 189 187 190 184 189 182 b 186 173 182 165 179 156 b 177 153 175 150 175 146 b 170 130 164 113 156 96 b 150 85 149 74 146 63 b 145 61 145 60 144 59 b 142 55 140 52 138 49 b 136 45 134 41 132 37 b 135 36 137 35 140 34 b 137 31 135 27 131 25 b 120 16 121 16 126 9 b 129 5 125 3 121 2 b 116 2 115 -1 113 -5 b 112 -8 109 -12 107 -16 b 111 -17 111 -20 107 -26 b 96 -39 87 -53 77 -66 b 69 -77 59 -88 53 -99 b 47 -109 40 -115 31 -121 b 30 -121 28 -122 27 -122 b 26 -121 25 -121 25 -120 z m 313 649 b 310 631 307 613 304 596 b 299 595 298 597 299 602 b 300 615 300 628 301 641 b 301 644 304 648 305 651 b 309 663 312 675 315 687 b 316 689 315 691 316 693 b 317 698 319 703 321 707 b 322 711 325 714 328 719 b 334 721 343 724 335 733 b 347 737 351 744 351 753 b 351 758 356 764 358 768 b 362 769 365 769 368 769 b 368 772 368 775 368 777 b 372 781 376 785 379 789 b 380 790 382 790 383 791 b 383 789 384 788 384 786 b 380 777 376 767 372 758 b 370 752 368 746 366 740 b 366 740 366 739 366 739 b 360 727 354 715 348 703 b 346 699 345 694 343 689 b 340 680 336 671 333 663 b 332 659 331 656 330 652 b 330 650 330 647 329 645 b 326 640 322 635 330 632 b 328 631 327 630 326 630 b 323 631 319 631 317 633 b 316 634 316 638 317 641 b 321 646 319 648 313 649 z m -2 -167 b -16 -168 -29 -174 -38 -186 b -40 -187 -42 -189 -44 -190 b -52 -194 -60 -198 -68 -202 b -68 -201 -69 -200 -69 -199 b -64 -195 -59 -191 -54 -187 b -49 -183 -44 -179 -39 -175 b -32 -170 -26 -165 -20 -160 b -19 -159 -17 -159 -16 -159 b -12 -161 -7 -164 -2 -167 z m 132 -16 b 125 -21 121 -24 116 -28 b 115 -29 113 -29 113 -28 b 112 -27 113 -25 113 -23 b 115 -20 116 -16 118 -13 b 121 -7 126 -2 130 3 b 130 3 134 3 134 3 b 134 1 133 -1 132 -3 b 128 -8 123 -13 132 -16 z m 311 572 b 314 570 318 568 322 567 b 320 565 318 563 317 563 b 318 556 318 551 317 546 b 317 545 315 543 313 542 b 313 543 312 544 311 546 b 310 551 309 556 309 561 b 308 565 308 568 308 571 b 309 571 310 572 311 572 z m 0 -142 b 5 -137 10 -132 15 -127 b 17 -126 20 -126 23 -125 b 22 -127 23 -130 21 -132 b 18 -136 14 -140 9 -143 b 6 -145 2 -144 -1 -145 b -1 -144 -1 -143 0 -142 z m 323 498 b 316 502 313 511 317 520 b 323 518 327 505 323 498 z m 315 519 b 314 524 312 527 313 528 b 315 531 319 534 322 535 b 324 536 327 531 327 530 b 324 527 320 524 315 519 z m -102 -196 b -95 -193 -88 -189 -82 -186 b -80 -186 -78 -186 -77 -187 b -76 -187 -77 -189 -77 -190 b -82 -196 -98 -199 -102 -196 z m 336 475 b 327 475 322 485 327 494 b 330 487 333 481 336 475 z m 315 596 b 324 592 323 587 308 578 b 311 585 313 590 315 596 z m 78 -94 b 74 -98 70 -102 67 -105 b 66 -106 63 -108 62 -107 b 61 -107 60 -105 60 -105 b 65 -100 71 -96 76 -92 b 76 -92 78 -93 78 -94 z m 100 -44 b 103 -40 106 -36 109 -32 b 110 -33 113 -34 112 -35 b 111 -40 108 -45 102 -46 b 101 -45 100 -45 100 -44 z m 323 621 b 320 618 318 615 316 612 b 315 616 314 618 315 622 b 315 623 319 626 321 627 b 322 626 322 624 323 621 z m 93 -58 b 97 -62 98 -66 90 -71 b 87 -68 86 -64 93 -58 z m 327 673 b 327 674 328 675 328 676 b 325 684 332 691 337 699 b 332 704 332 704 340 716 b 338 717 336 718 332 720 b 328 704 324 689 321 675 b 320 674 325 674 327 673 z m 326 658 b 326 659 327 661 327 663 b 324 662 321 662 318 662 b 317 661 316 658 315 656 b 319 657 322 657 326 658 z"},"Z":{"x_min":0,"x_max":646,"ha":646,"o":"m 297 241 b 300 239 301 238 301 238 b 305 243 309 248 312 255 b 311 255 310 256 309 257 b 303 253 297 248 297 241 z m 339 285 b 343 289 346 291 350 293 b 349 296 348 297 347 298 b 344 296 340 292 337 290 b 338 289 338 287 339 285 z m 1018 -136 b 1018 -131 1018 -127 1017 -121 b 1016 -114 1017 -106 1012 -100 b 1012 -100 1012 -99 1012 -99 b 1017 -90 1013 -82 1010 -74 b 1009 -69 1006 -63 1004 -59 b 1001 -45 996 -33 988 -21 b 969 1 948 19 921 29 b 903 36 884 41 867 46 b 854 51 842 54 829 56 b 818 58 809 61 800 62 b 795 62 792 62 789 63 b 787 64 784 65 781 65 b 773 68 762 70 754 70 b 746 70 735 76 728 69 b 723 71 718 74 714 75 b 703 76 694 76 686 76 b 683 77 677 78 674 78 b 657 79 638 78 619 79 b 601 79 581 80 560 80 b 544 80 525 78 508 76 b 489 74 470 70 452 68 b 437 67 423 65 408 64 b 392 62 373 58 355 55 b 335 52 314 46 292 41 b 288 40 283 38 279 37 b 271 36 260 35 252 33 b 238 27 227 23 215 20 b 196 14 177 11 161 4 b 144 -3 127 -5 112 -18 b 111 -18 110 -18 110 -18 b 100 -16 91 -22 83 -27 b 80 -29 78 -29 75 -30 b 75 -30 45 -47 41 -49 b 40 -48 154 98 154 99 b 165 115 177 129 190 143 b 195 149 201 154 204 162 b 208 173 216 181 225 186 b 231 189 235 194 242 201 b 244 203 245 205 247 207 b 250 211 254 216 258 219 b 261 222 265 225 272 230 b 272 236 279 241 289 238 b 289 243 281 248 289 253 b 302 259 311 265 310 282 b 314 282 318 279 319 282 b 330 292 338 303 347 315 b 352 321 359 329 364 335 b 365 334 365 334 366 333 b 367 331 367 328 368 325 b 368 324 370 322 372 321 b 373 321 375 324 374 324 b 374 327 373 328 372 329 b 367 333 370 338 372 341 b 380 352 391 363 400 371 b 406 376 405 380 400 384 b 410 399 418 401 428 390 b 419 378 407 367 397 354 b 404 353 440 390 443 399 b 441 403 440 405 439 408 b 441 408 443 409 448 410 b 452 412 457 413 460 416 b 463 419 464 425 467 427 b 483 445 498 461 515 479 b 536 502 554 525 575 550 b 583 559 591 572 602 583 b 608 592 616 599 625 609 b 633 620 641 634 650 645 b 662 657 674 668 686 682 b 698 696 717 714 729 730 b 736 739 754 748 761 757 b 775 770 787 782 794 800 b 803 815 811 831 816 847 b 817 850 838 880 850 902 b 851 903 852 904 854 904 b 857 905 861 910 862 912 b 864 923 869 927 876 932 b 880 934 883 940 888 943 b 885 944 885 945 885 945 b 884 946 884 946 883 946 b 875 951 876 952 881 959 b 884 962 885 967 889 971 l 885 973 b 883 972 880 972 878 971 b 873 967 868 961 862 959 b 860 958 853 962 849 965 b 852 967 853 969 857 970 b 861 972 864 971 867 973 b 871 976 873 980 877 982 b 876 983 875 984 875 985 b 873 985 870 984 868 983 b 860 981 850 977 842 974 b 822 969 804 966 784 961 b 759 954 734 947 708 942 b 679 934 650 928 623 921 b 602 916 581 912 559 909 b 546 905 529 904 515 903 b 496 900 479 899 460 898 b 451 897 441 896 432 895 b 421 895 409 896 399 897 b 377 898 356 899 337 903 b 318 906 301 912 283 916 b 257 923 238 937 227 963 b 224 972 214 979 206 967 b 201 958 196 948 194 940 b 191 927 192 912 197 899 b 203 886 203 868 218 857 b 218 856 219 855 219 854 b 223 849 226 844 230 838 b 233 835 236 833 238 829 b 249 814 261 801 277 792 b 284 787 291 782 300 779 b 309 774 318 766 331 773 b 334 774 337 773 340 771 b 345 771 349 768 354 768 b 364 767 372 766 380 765 b 392 764 402 762 412 763 b 429 763 444 773 461 763 b 461 763 462 763 462 764 b 473 765 485 767 496 770 b 510 774 521 779 535 775 b 537 774 539 775 540 775 b 560 785 585 784 607 789 b 614 791 626 791 628 795 b 634 804 641 799 647 802 l 650 803 b 668 809 690 819 698 821 b 699 822 701 823 703 823 b 676 787 609 720 608 718 b 598 705 586 692 577 678 b 558 655 541 633 521 610 b 500 586 480 563 459 539 b 452 529 443 521 436 512 b 428 501 420 492 411 483 b 409 481 408 479 407 478 b 392 460 376 444 362 427 b 345 411 331 394 315 376 b 300 358 282 340 265 321 b 241 293 216 263 191 235 b 174 216 158 194 140 175 b 131 164 120 153 110 143 b 104 134 98 126 89 118 b 96 117 100 117 104 116 b 115 115 123 119 127 132 b 127 135 131 136 133 138 b 137 144 141 148 145 152 b 147 154 148 160 150 161 b 158 164 157 174 165 175 b 165 175 166 179 165 180 b 164 187 166 187 170 187 b 173 187 175 190 177 192 b 179 196 183 202 185 203 b 190 205 193 207 195 213 b 196 219 198 225 206 223 b 206 222 208 224 208 225 b 207 236 217 237 222 242 b 226 245 234 247 235 250 b 236 261 245 264 248 272 b 249 275 252 278 255 280 b 257 283 261 284 263 287 b 270 296 277 303 284 311 b 294 320 306 332 310 349 b 311 350 313 352 314 353 b 315 349 315 347 315 345 b 329 355 367 391 367 404 b 369 405 372 405 374 408 b 384 419 396 431 405 444 b 410 448 413 455 420 460 b 428 469 437 478 447 487 b 459 501 470 516 484 531 b 496 544 509 559 521 575 b 525 579 529 582 535 587 b 537 590 537 592 539 594 b 543 598 547 603 551 609 b 552 608 553 607 553 607 b 553 604 553 601 553 601 b 546 593 539 583 530 576 b 525 569 520 564 514 558 b 514 557 513 556 513 556 b 511 540 498 535 490 525 b 484 519 473 516 476 505 b 476 503 471 502 470 501 b 467 499 464 497 462 495 b 451 481 439 466 428 452 b 424 446 420 441 414 434 b 406 426 397 416 389 408 b 376 395 366 381 354 369 b 345 358 336 348 325 338 b 323 335 321 334 319 332 b 318 330 318 325 316 322 b 306 311 293 299 282 287 b 277 283 273 277 266 273 b 263 267 259 262 256 258 b 251 250 242 249 244 238 b 244 237 242 236 241 235 b 235 231 231 227 227 223 b 223 219 220 211 216 211 b 206 210 203 205 202 200 b 202 190 197 185 192 183 b 182 178 177 166 170 160 b 162 151 162 135 146 136 b 146 136 145 135 144 135 b 138 125 132 115 123 108 b 111 99 104 88 96 77 b 83 64 72 52 59 39 b 57 36 53 35 52 32 b 50 21 42 20 36 16 b 38 22 39 32 43 33 b 51 36 53 42 54 52 b 54 53 55 54 56 55 b 58 54 59 53 63 52 b 66 57 68 64 72 70 b 74 74 79 77 82 80 b 84 81 85 83 87 87 b 86 88 86 88 85 89 b 83 88 82 87 80 85 b 79 87 79 88 78 89 b 83 98 96 97 104 104 b 97 107 89 107 83 108 b 83 108 82 107 81 106 b 68 89 53 73 40 54 b 27 40 -44 -59 -58 -73 b -70 -88 -67 -108 -71 -127 b -71 -127 -71 -127 -70 -127 b -70 -128 -70 -128 -70 -128 b -74 -132 -78 -136 -89 -140 b -90 -142 -92 -145 -93 -147 b -94 -151 -97 -153 -97 -155 b -98 -173 -99 -190 -88 -205 b -84 -210 -80 -216 -78 -221 b -72 -228 -67 -237 -57 -238 b -50 -238 -44 -233 -39 -241 b -39 -241 -38 -241 -37 -241 b -31 -239 -23 -238 -21 -229 b -21 -228 -19 -226 -18 -226 b -13 -226 -7 -226 0 -225 b 0 -224 1 -223 1 -222 b 2 -211 8 -208 17 -209 b 19 -209 21 -208 23 -207 b 29 -202 36 -196 43 -193 b 59 -187 72 -171 90 -169 b 91 -169 95 -168 95 -167 b 100 -161 105 -161 111 -161 b 115 -161 123 -161 126 -158 b 131 -152 137 -151 144 -149 b 160 -146 173 -138 189 -134 b 199 -131 207 -125 219 -121 b 251 -114 283 -103 315 -92 b 319 -91 324 -90 330 -89 b 337 -87 346 -89 350 -77 b 350 -76 351 -76 351 -76 b 359 -79 363 -75 369 -74 b 378 -73 390 -78 399 -70 b 400 -69 403 -70 406 -70 b 409 -70 411 -71 414 -71 b 437 -68 461 -65 484 -61 b 495 -60 509 -58 520 -57 b 531 -57 543 -49 554 -54 b 555 -54 557 -51 558 -51 b 565 -50 570 -47 575 -47 b 588 -47 603 -48 615 -49 b 618 -49 620 -48 625 -48 b 627 -47 628 -47 630 -47 b 639 -47 649 -49 658 -45 b 669 -42 677 -47 689 -47 b 703 -47 719 -51 732 -43 b 734 -43 736 -43 737 -43 b 746 -44 753 -40 759 -48 b 759 -48 760 -47 761 -45 b 763 -45 765 -45 767 -45 b 775 -47 781 -49 788 -49 b 804 -50 819 -57 834 -51 b 839 -55 842 -58 846 -59 b 859 -62 869 -65 880 -69 b 883 -69 888 -70 891 -69 b 899 -68 904 -71 909 -75 b 916 -79 923 -86 931 -79 b 932 -78 936 -79 938 -80 b 950 -87 961 -92 971 -98 b 981 -101 989 -113 988 -121 b 987 -128 986 -133 984 -141 b 973 -166 959 -186 940 -205 b 937 -209 934 -212 937 -217 b 938 -221 943 -223 948 -224 b 955 -226 961 -223 966 -216 b 972 -208 973 -208 979 -217 b 979 -217 980 -217 981 -217 b 987 -210 993 -204 998 -197 b 1008 -184 1018 -172 1018 -154 b 1018 -148 1018 -143 1018 -136 z m 814 879 b 816 880 818 882 819 884 b 819 884 819 884 819 884 b 817 880 815 879 814 879 z m 638 710 b 638 700 637 696 618 690 b 626 696 631 703 638 710 z m 455 433 b 460 438 464 440 464 447 b 463 450 468 452 470 453 b 468 446 468 440 465 434 b 463 430 459 427 456 423 b 455 424 454 424 453 425 b 454 428 454 431 455 433 z m 167 136 b 168 137 171 136 173 136 b 173 134 173 131 171 130 b 168 127 164 125 160 124 b 160 124 159 125 159 125 b 161 130 164 133 167 136 z m 867 38 b 867 37 867 37 867 36 b 859 36 849 37 841 38 b 834 39 824 41 817 43 b 812 44 808 49 803 49 b 796 50 791 48 785 48 b 785 48 784 50 782 53 b 772 51 759 50 748 52 b 736 54 727 58 717 62 b 767 63 817 50 867 38 z m 834 16 b 831 15 825 13 823 14 b 818 19 815 16 811 13 b 809 15 807 19 805 21 b 805 22 805 23 806 23 b 814 22 823 21 834 19 b 834 18 834 16 834 16 z m 797 23 b 797 22 797 22 797 21 b 796 20 794 19 793 20 b 787 21 781 23 775 24 b 774 24 771 24 770 23 b 762 21 757 23 753 32 b 770 33 783 26 797 23 z m 699 62 b 701 64 705 65 708 64 b 713 63 715 58 718 54 b 709 53 702 52 694 51 b 696 56 697 61 699 62 z m 745 32 b 734 24 726 29 717 32 b 709 33 702 33 696 32 b 678 27 664 33 647 35 b 645 35 642 37 640 39 b 675 39 709 39 745 32 z m 220 -49 b 225 -40 229 -40 235 -47 b 230 -47 225 -48 220 -49 z m 243 -3 b 233 -6 225 -9 217 -13 b 216 -13 214 -12 212 -12 b 212 -10 212 -9 212 -9 b 217 -6 221 -5 225 -3 b 230 -2 234 1 238 2 b 242 4 244 2 246 2 b 245 0 244 -2 243 -3 z m 283 9 b 277 12 267 5 259 4 b 258 2 255 4 253 4 b 255 5 257 6 258 7 b 262 9 265 11 270 14 b 257 11 245 7 232 4 b 222 0 213 -2 201 -5 b 190 -10 178 -15 168 -20 b 166 -20 165 -21 164 -22 b 159 -23 153 -24 146 -26 b 145 -26 143 -26 141 -27 b 141 -26 141 -24 140 -24 b 142 -22 144 -20 146 -19 b 156 -17 163 -14 171 -12 b 172 -12 174 -12 174 -10 b 188 2 205 -2 221 6 b 234 13 250 16 264 21 b 266 22 270 22 271 22 b 285 23 300 30 313 33 b 326 35 339 40 352 43 b 363 48 373 44 383 46 b 384 46 389 44 389 46 b 393 54 399 52 405 53 b 413 54 423 56 431 58 b 431 58 432 58 433 58 b 444 60 457 61 469 61 b 470 61 473 60 476 58 b 479 54 481 53 485 58 b 489 63 493 69 501 65 b 510 64 518 65 525 67 b 535 68 543 71 551 71 b 556 71 564 69 570 69 b 579 69 587 71 598 71 b 609 71 620 73 633 71 b 646 70 662 71 675 65 b 676 65 678 68 682 68 b 685 68 689 67 692 65 b 693 64 693 61 693 57 b 689 60 686 61 683 62 b 683 61 683 61 682 60 b 684 58 686 56 687 54 b 687 54 687 53 687 52 b 678 53 671 54 663 55 b 664 57 665 60 666 63 l 657 63 b 658 61 658 58 660 55 b 655 56 649 56 646 57 b 644 61 643 63 640 68 b 637 56 633 54 624 55 b 616 55 610 54 604 54 b 585 55 568 56 549 51 b 542 49 531 51 523 52 b 520 52 516 51 513 50 b 509 50 501 51 498 48 b 492 41 486 43 479 44 b 468 46 458 41 449 39 b 444 38 440 38 436 38 b 427 37 417 37 406 35 b 395 34 383 29 373 26 b 370 25 366 25 363 25 b 354 24 347 22 340 21 b 334 20 325 16 319 16 b 307 18 296 6 283 9 z m 483 32 b 486 33 489 33 492 33 b 493 32 495 29 494 27 b 494 26 492 24 491 24 b 486 25 481 26 477 22 b 477 23 476 24 473 25 b 478 26 480 30 483 32 z m 473 25 b 462 24 451 22 438 21 b 438 22 438 23 438 24 b 441 25 444 26 449 26 b 455 27 461 29 467 30 b 470 30 477 33 473 25 z m 877 -5 b 875 -4 875 -1 874 1 b 864 2 852 2 842 4 b 842 2 842 1 842 0 b 848 -2 855 -3 864 -4 b 862 -10 859 -14 850 -12 b 838 -6 823 -4 811 -2 b 797 1 784 5 772 5 b 760 4 750 7 738 11 b 727 15 716 7 703 12 b 702 12 700 11 699 9 b 694 19 688 18 682 12 b 679 12 677 11 676 11 b 671 12 665 13 660 14 b 654 14 647 13 641 13 b 640 13 639 11 638 12 b 629 13 618 15 613 16 b 601 15 591 14 583 13 b 573 12 560 11 550 9 b 544 8 539 8 531 8 b 516 7 499 9 485 2 b 483 1 480 1 478 1 b 463 2 451 4 437 4 b 436 5 436 5 435 4 b 427 -9 411 -1 400 -7 b 395 -10 388 -12 381 -4 b 381 -3 378 -3 375 -3 b 380 -10 378 -13 372 -13 b 367 -13 361 -15 354 -16 b 351 -17 348 -18 346 -17 b 340 -14 335 -17 330 -20 b 329 -21 323 -22 323 -22 b 317 -17 311 -18 305 -20 b 304 -21 302 -19 300 -18 b 301 -17 302 -15 304 -14 b 316 -7 331 -7 344 -7 b 346 -7 350 -6 351 -4 b 355 0 361 2 366 1 b 370 1 374 4 378 5 b 382 2 385 0 392 5 b 394 7 399 6 402 7 b 411 8 422 11 431 13 b 431 13 432 13 432 13 b 450 13 466 22 484 16 b 486 16 487 16 488 18 b 496 22 503 24 515 19 l 515 30 b 511 30 507 29 502 30 b 501 30 501 34 501 35 b 515 37 526 30 540 36 b 544 38 551 39 553 30 b 553 26 559 24 564 24 b 573 24 582 25 591 26 b 596 27 599 29 603 30 b 604 30 606 30 606 30 b 611 25 618 29 624 27 b 632 25 638 33 646 29 b 655 25 663 25 671 23 b 672 23 673 21 675 20 b 677 19 679 18 683 18 b 690 20 697 24 705 25 b 714 25 722 23 730 21 b 738 20 747 18 756 20 b 760 20 766 16 772 14 b 778 11 783 11 788 14 b 792 16 800 15 804 15 b 807 15 809 14 811 13 b 813 9 814 5 816 5 b 822 4 831 2 837 4 b 845 5 842 13 841 19 b 862 12 881 6 902 -1 b 898 -6 880 -10 877 -5 z m 905 -5 b 912 -2 919 -3 925 -10 b 918 -17 911 -16 905 -5 z m 936 -20 b 933 -19 930 -18 928 -17 b 928 -16 928 -14 929 -13 b 932 -14 935 -15 938 -16 b 937 -17 936 -20 936 -20 z m 955 -35 b 950 -32 943 -29 938 -26 b 938 -24 939 -23 939 -22 b 944 -24 951 -29 956 -32 b 956 -33 955 -34 955 -35 z m 520 27 b 520 27 520 23 520 23 b 524 21 529 21 532 26 b 532 26 532 26 531 29 b 528 29 524 29 520 27 z"},"x":{"x_min":0,"x_max":583,"ha":583,"o":"m 329 400 b 329 401 328 402 328 403 b 330 404 332 407 334 406 b 350 406 363 412 375 422 b 395 439 414 455 434 472 b 439 476 446 479 451 484 b 465 496 478 510 493 522 b 502 529 513 534 523 540 b 533 547 542 554 553 560 b 567 566 581 571 595 577 b 598 579 601 581 603 583 b 617 595 631 607 646 618 b 659 628 660 632 653 647 b 651 651 648 655 645 660 b 650 667 650 672 640 677 b 631 682 623 690 615 697 b 614 698 614 701 613 703 b 611 706 611 710 608 713 b 600 724 587 722 576 722 b 571 722 567 723 562 723 b 562 724 562 725 562 726 b 567 729 572 731 576 733 b 572 737 568 737 563 738 b 543 742 529 730 514 719 b 485 697 456 674 427 651 b 399 626 371 600 343 575 b 323 556 303 537 283 518 b 281 516 277 515 274 513 b 271 526 268 536 267 547 b 264 577 261 607 259 638 b 258 650 240 671 228 674 b 213 679 196 673 181 683 b 179 685 174 683 170 682 b 160 680 150 673 141 674 b 128 676 119 671 109 666 b 100 661 101 657 103 649 b 116 607 128 564 140 522 b 147 498 154 474 161 451 b 165 438 169 425 174 413 b 177 405 176 400 170 395 b 162 386 153 377 145 367 b 103 314 61 261 20 207 b 7 190 -3 170 -13 150 b -36 107 -54 62 -52 12 b -51 -11 -38 -27 -20 -39 b -16 -42 -8 -40 -4 -41 b -4 -32 -5 -27 -4 -22 b -1 -10 6 2 7 14 b 9 41 28 56 42 75 b 44 77 47 80 50 79 b 60 79 64 85 68 92 b 72 98 74 104 79 107 b 100 117 107 140 121 157 b 127 164 133 171 140 180 b 140 181 138 183 138 183 b 145 190 149 196 155 201 b 165 211 176 219 186 229 b 192 235 204 241 191 249 b 200 255 209 262 218 267 b 221 268 227 264 229 261 b 251 224 271 185 295 149 b 319 110 348 74 382 43 b 396 30 413 21 430 14 b 448 7 469 5 488 0 b 498 -3 504 0 510 10 b 478 16 463 41 443 61 b 441 63 442 67 442 70 b 442 76 443 84 440 88 b 432 102 421 115 411 129 b 406 136 396 142 403 154 b 403 155 402 157 401 158 b 394 172 388 186 380 199 b 369 219 359 239 353 262 b 345 289 334 315 326 342 b 324 350 325 360 325 369 b 324 372 323 375 321 378 b 343 371 332 393 343 400 b 336 400 332 400 329 400 z m 84 203 b 93 212 101 220 108 228 b 115 236 120 245 126 252 b 136 263 146 272 156 282 b 157 283 159 284 159 285 b 162 305 180 311 192 323 b 194 325 199 324 202 324 b 202 321 204 316 202 314 b 199 307 194 301 189 295 b 174 277 160 258 142 243 b 132 235 129 217 112 217 b 110 217 108 212 106 209 b 101 201 98 199 84 203 z m 30 161 b 24 157 17 151 11 145 b 10 146 9 146 8 147 b 9 151 9 156 11 159 b 19 169 27 178 34 187 b 38 192 40 199 43 204 b 56 223 70 241 83 260 b 86 264 88 267 92 270 b 94 272 98 272 101 272 b 101 269 101 265 99 262 b 90 250 80 238 71 225 b 66 217 64 207 61 198 b 60 192 58 186 50 190 b 47 190 43 190 42 188 b 38 180 34 171 30 161 z m 105 276 b 103 288 157 354 183 373 b 190 367 187 361 182 356 b 173 347 164 340 156 331 b 149 323 143 313 136 305 b 134 302 132 300 130 297 b 125 292 122 287 117 283 b 114 280 109 278 105 276 z m 364 550 b 360 544 357 537 352 531 b 342 522 331 514 321 505 b 314 498 308 489 300 482 b 296 479 291 478 286 476 b 287 481 287 487 290 490 b 308 507 327 523 345 539 b 347 541 348 545 351 547 b 353 550 356 552 358 555 b 360 553 362 552 364 550 z m 22 139 b 20 136 18 131 16 131 b -3 132 0 118 0 102 b -6 107 -12 111 -12 113 b -10 120 -8 128 -3 132 b 3 137 11 139 19 142 b 20 141 21 140 22 139 z m 169 249 b 163 242 157 235 150 228 b 149 229 147 231 146 233 b 152 239 159 246 166 252 b 167 251 168 250 169 249 z m 194 279 b 188 272 184 266 177 257 b 178 276 185 283 194 279 z"},")":{"x_min":0,"x_max":833,"ha":833,"o":"m 363 624 b 365 624 368 624 370 624 b 374 624 375 628 376 629 b 376 630 376 632 376 632 b 363 634 366 642 371 650 b 373 654 373 657 373 660 b 377 672 378 684 381 698 b 384 716 389 731 385 749 b 384 751 386 755 388 759 b 390 765 392 770 392 775 b 391 786 390 795 399 807 b 401 809 400 814 399 818 b 395 847 391 876 386 905 b 378 935 378 968 352 989 b 343 997 336 1007 325 1011 b 305 1016 283 1020 261 1020 b 250 1020 236 1023 222 1014 b 211 1007 210 1005 215 996 b 225 978 235 959 240 941 b 242 910 256 883 252 849 b 250 834 256 819 258 804 b 259 786 260 768 259 751 b 258 730 254 710 258 690 b 259 668 251 643 258 621 b 259 620 258 619 258 618 b 257 612 256 607 256 601 b 255 587 256 574 255 561 b 253 540 248 520 244 500 b 240 480 234 459 231 439 b 229 432 229 427 228 420 b 230 420 231 421 232 421 b 236 429 242 439 241 444 b 237 457 247 469 250 479 b 251 484 253 488 254 494 b 255 501 257 508 258 515 b 260 516 261 516 262 516 b 261 519 261 522 259 523 b 266 529 274 534 273 537 b 271 548 280 554 282 563 b 282 566 283 568 282 570 b 279 578 284 582 292 586 b 295 588 298 593 300 596 b 315 605 317 604 310 586 b 307 576 305 566 310 560 b 319 552 318 543 308 536 b 307 534 307 532 307 531 b 304 516 298 502 298 487 b 298 479 292 466 302 461 b 303 461 303 458 302 457 b 296 441 291 428 292 412 b 293 401 288 385 285 371 b 285 368 287 366 288 364 b 289 362 291 361 293 358 b 282 350 283 342 282 334 b 282 320 282 307 271 294 b 261 280 259 267 255 250 b 251 230 243 211 239 190 b 236 184 236 176 234 169 b 228 150 222 135 214 119 b 213 116 211 114 210 109 b 208 103 206 97 201 92 b 199 90 199 87 198 82 b 191 67 184 50 176 35 b 175 34 175 33 175 32 b 167 8 159 -14 140 -36 b 137 -41 137 -46 135 -52 b 136 -52 137 -53 138 -53 b 139 -49 142 -47 143 -45 b 145 -43 144 -40 146 -37 b 162 -11 176 14 191 41 b 197 53 197 70 213 80 b 214 81 214 83 214 84 b 218 95 220 106 223 118 b 226 123 232 131 235 136 b 237 145 236 156 237 165 b 250 169 250 170 244 179 b 249 184 256 187 259 191 b 265 202 267 213 271 224 b 281 245 290 268 298 290 b 302 296 309 303 310 311 b 311 321 309 333 310 343 b 310 345 312 348 313 350 b 317 361 321 370 325 379 b 329 385 330 391 332 398 b 332 402 333 405 332 406 b 332 407 329 407 326 406 b 322 406 320 405 317 405 b 323 424 327 425 340 418 b 340 429 336 440 333 452 b 333 454 333 456 333 458 b 334 457 336 457 339 456 b 340 456 342 455 344 454 b 345 457 346 459 346 461 b 348 465 350 469 350 472 b 351 475 350 478 350 480 b 349 480 348 480 347 480 b 346 476 344 472 342 467 b 331 471 336 481 337 486 b 342 499 349 511 344 524 b 349 524 352 524 358 525 b 358 525 359 527 360 528 b 357 532 352 534 350 539 b 348 542 347 548 348 553 b 348 554 352 560 355 561 b 364 564 368 568 367 576 b 362 575 359 573 354 572 b 351 582 353 590 366 597 b 366 595 368 593 368 588 b 383 608 362 610 363 624 z m 111 -37 b 104 -40 97 -45 96 -55 b 95 -58 93 -61 91 -66 b 86 -72 79 -81 76 -88 b 71 -94 69 -102 65 -109 b 57 -117 61 -125 63 -134 b 66 -124 79 -115 76 -103 b 75 -102 77 -100 78 -99 b 86 -89 93 -81 98 -70 b 105 -60 108 -48 111 -37 z m 50 -133 b 46 -131 42 -130 38 -129 b 36 -129 32 -129 28 -127 b 29 -131 31 -134 32 -136 b 33 -137 34 -137 36 -139 b 32 -140 29 -140 27 -142 b 26 -143 24 -145 23 -147 b 23 -148 24 -150 26 -150 b 32 -152 41 -148 45 -140 b 46 -137 49 -135 50 -133 z"},"&":{"x_min":0,"x_max":800,"ha":800,"o":"m 631 960 b 631 963 632 970 630 971 b 622 975 620 987 607 985 b 606 985 604 986 604 987 b 601 988 597 989 595 991 b 584 994 572 997 562 1001 b 554 1004 549 1008 542 1010 b 536 1011 528 1013 525 1004 b 524 1004 519 1003 519 1004 b 518 1014 508 1009 503 1008 b 493 1006 482 1004 473 999 b 465 995 456 989 447 985 b 436 979 425 975 416 968 b 398 954 380 942 364 926 b 349 913 335 898 323 883 b 315 876 309 870 304 864 b 296 855 290 847 284 837 b 276 824 266 810 258 798 b 249 785 240 774 232 761 b 218 738 206 714 191 690 b 174 661 160 630 157 597 b 156 582 161 570 174 564 b 181 561 186 557 186 549 b 186 543 183 536 185 530 b 188 513 193 496 197 478 b 204 453 210 427 215 402 b 219 389 222 374 227 360 b 229 349 235 338 237 326 b 238 324 235 319 232 316 b 228 309 221 305 215 299 b 204 288 193 278 181 265 b 164 249 148 232 132 215 b 117 200 101 186 86 169 b 64 147 42 125 16 107 b 8 103 1 97 1 88 b 1 84 1 77 1 73 b 4 75 10 76 15 77 b 16 71 16 68 17 64 b 6 59 6 56 9 49 b 16 58 23 59 29 58 b 27 51 26 45 24 41 b 31 39 35 39 41 38 b 41 37 39 37 39 37 b 32 34 33 27 33 22 b 33 21 39 21 43 21 b 45 20 47 19 50 18 b 51 17 53 13 55 13 b 64 17 72 5 82 18 b 82 19 85 18 86 18 b 92 20 96 21 102 22 b 109 24 113 26 118 25 b 128 24 138 21 148 20 b 154 19 162 21 169 22 b 183 24 196 22 211 26 b 231 33 253 33 271 45 b 272 45 274 44 275 45 b 280 45 284 46 290 47 b 294 49 298 50 301 51 b 306 52 312 53 316 56 b 320 58 325 61 329 60 b 338 59 347 61 356 66 b 357 67 359 67 359 66 b 366 59 372 51 377 43 b 382 37 385 28 391 26 b 402 25 397 20 397 17 b 400 13 403 11 405 5 b 406 -2 409 -7 418 -9 b 423 -10 427 -13 428 -17 b 435 -35 454 -42 469 -54 b 487 -69 511 -80 533 -91 b 552 -100 572 -93 593 -83 b 594 -83 595 -81 596 -80 b 597 -76 598 -73 600 -68 b 595 -66 588 -64 580 -60 b 579 -59 578 -58 576 -56 b 574 -52 571 -49 568 -46 b 566 -42 561 -38 557 -35 b 553 -31 549 -29 544 -24 b 542 -22 538 -18 536 -14 b 529 -5 528 7 518 12 b 517 13 516 16 516 17 b 515 29 498 30 496 44 b 496 44 493 44 492 45 b 490 46 488 49 487 50 b 484 53 483 59 481 62 b 479 64 476 67 475 69 b 468 82 460 95 454 107 b 450 115 448 128 458 132 b 466 136 474 139 481 144 b 494 153 511 157 519 172 b 522 172 526 171 528 172 b 539 180 550 187 561 194 b 568 199 575 204 584 208 b 589 213 596 216 602 222 b 604 223 607 225 610 226 b 618 231 626 233 634 240 b 645 250 657 258 670 266 b 680 273 689 280 695 289 b 702 298 706 304 715 307 b 721 309 732 312 733 323 b 733 324 736 325 737 326 b 749 338 762 350 775 360 b 775 364 774 367 774 370 b 778 370 781 372 784 372 b 784 375 784 380 786 381 b 796 392 804 401 813 411 b 833 433 852 457 864 484 b 870 496 874 510 878 521 b 882 533 888 542 892 553 b 893 556 891 561 892 565 b 894 573 897 584 900 594 b 893 590 890 589 885 587 b 885 589 884 592 885 593 b 892 604 893 615 893 627 b 892 636 893 646 892 656 b 892 657 888 658 886 660 b 885 657 883 655 883 654 b 883 646 883 640 884 635 b 886 619 881 604 875 588 b 872 578 868 567 863 557 b 857 546 850 537 847 525 b 844 518 835 510 831 502 b 827 497 824 494 821 489 b 821 488 822 488 822 487 b 826 489 830 492 834 494 b 835 495 838 495 840 495 b 840 493 840 491 839 489 b 837 485 834 482 831 476 b 830 474 827 471 825 470 b 825 469 824 470 823 471 b 824 474 825 476 826 478 b 826 478 827 479 827 483 b 825 483 822 485 821 484 b 812 477 808 470 814 463 b 809 461 806 459 802 457 b 802 460 802 462 802 463 b 792 453 782 444 774 433 b 763 419 750 408 737 397 b 730 390 721 383 713 376 b 704 368 695 358 686 351 b 674 342 662 334 650 326 b 632 313 614 300 595 288 b 571 272 546 256 521 240 b 515 237 507 233 500 229 b 475 212 449 200 423 189 b 420 188 417 190 414 191 b 416 194 417 198 418 199 b 432 204 441 217 456 224 b 470 229 484 239 499 248 b 516 258 533 267 550 279 b 574 294 598 309 622 326 b 628 330 636 334 642 340 b 656 351 669 364 683 375 b 702 390 721 402 737 419 b 765 450 791 483 819 514 b 824 519 827 525 831 531 b 835 537 839 544 843 550 b 846 554 851 557 851 561 b 850 567 855 569 857 573 b 860 579 860 584 862 588 b 860 588 859 588 858 589 b 854 581 849 572 844 564 b 835 551 827 538 817 525 b 805 506 790 488 776 470 b 776 470 776 470 775 469 b 766 461 758 451 749 442 b 740 432 731 423 721 415 b 707 401 691 389 674 375 b 661 365 647 351 632 341 b 603 321 575 301 545 283 b 513 263 479 246 448 226 b 438 220 428 215 420 210 b 408 202 403 203 402 214 b 401 217 401 222 400 224 b 394 237 386 249 381 262 b 380 263 381 264 381 265 b 380 271 381 274 379 278 b 375 289 369 300 364 312 b 362 318 363 323 369 329 b 373 333 374 341 377 347 b 379 349 381 351 383 353 b 388 357 391 359 397 364 b 393 367 390 369 388 370 b 390 373 394 375 397 377 b 398 380 400 382 401 384 b 402 387 403 389 405 391 b 409 397 416 402 420 407 b 423 412 426 415 428 418 b 431 421 433 426 434 429 b 434 433 435 441 436 442 b 451 443 454 456 459 465 b 462 471 466 479 471 483 b 471 489 471 494 471 499 b 476 497 479 497 485 496 b 485 497 488 501 491 503 b 488 506 485 509 483 511 b 485 512 487 514 488 514 b 499 513 503 519 504 528 b 504 530 507 531 507 533 b 515 541 524 547 518 559 b 517 561 518 565 518 568 b 526 572 535 575 539 581 b 549 593 557 606 564 619 b 570 629 574 639 579 649 b 588 665 600 680 601 699 b 602 700 603 703 604 704 b 613 707 613 714 614 722 b 614 725 617 730 619 733 b 625 741 628 749 614 751 b 619 754 621 756 625 757 b 627 758 630 759 631 762 b 635 772 639 782 642 792 b 644 799 645 806 647 812 b 647 815 648 817 650 818 b 653 824 655 830 656 835 b 658 843 661 852 661 861 b 662 874 665 890 662 901 b 661 910 661 918 656 925 b 656 925 656 926 656 926 b 658 928 661 929 662 933 b 658 938 655 943 653 949 b 647 965 646 965 631 960 z m 586 904 b 583 885 580 865 575 844 b 562 804 547 762 525 723 b 517 711 513 697 507 683 b 507 682 506 681 506 681 b 495 665 485 650 475 633 b 459 611 445 587 430 564 b 409 534 389 504 367 475 b 358 461 347 446 334 433 b 333 431 330 431 326 429 b 326 432 325 436 326 438 b 332 444 330 449 326 453 b 322 461 314 468 313 476 b 312 493 300 506 306 526 b 309 536 303 546 300 557 b 300 561 298 563 298 567 b 295 590 292 614 289 637 b 287 652 282 663 279 677 b 278 680 279 686 281 689 b 286 701 291 712 298 723 b 303 731 307 739 312 747 b 324 763 334 780 348 797 b 374 829 398 864 432 890 b 454 908 476 926 500 942 b 520 953 543 961 566 963 b 570 965 575 961 577 959 b 587 942 588 924 586 904 z m 484 560 b 491 564 495 573 503 570 b 506 569 506 563 508 557 b 502 559 500 560 496 561 b 492 554 487 547 483 541 b 479 533 478 524 466 526 b 461 527 456 521 458 516 b 460 508 458 501 449 495 b 443 491 440 482 434 474 b 425 460 416 445 406 431 b 401 424 395 418 389 409 b 394 403 389 400 381 395 b 374 392 366 385 359 381 b 369 370 367 368 349 359 b 342 380 335 399 331 416 b 340 429 348 441 356 452 b 356 452 357 453 358 454 b 377 468 383 491 397 509 b 418 537 440 564 457 594 b 465 607 478 618 479 635 b 481 640 488 646 493 653 b 501 664 509 677 519 688 b 519 688 519 688 519 688 b 526 705 533 721 542 737 b 545 745 550 750 555 757 b 555 757 562 756 562 755 b 561 751 561 748 559 746 b 554 738 549 731 552 723 b 552 722 550 720 549 716 b 546 713 544 709 542 705 b 543 705 544 704 545 704 b 549 708 553 713 557 717 b 560 721 563 722 566 724 b 566 722 564 717 564 715 b 567 696 547 685 537 669 b 536 666 535 662 533 658 b 533 657 533 655 532 653 b 527 646 521 640 526 633 b 526 632 526 630 525 629 b 519 622 519 618 522 613 b 524 613 522 612 522 611 b 524 607 503 584 500 581 b 493 575 488 568 482 561 b 482 561 483 560 484 560 z m 251 248 b 243 250 237 242 231 237 b 224 230 219 223 213 216 b 206 208 196 202 194 190 b 194 188 189 187 186 186 b 181 182 174 180 170 177 b 164 175 159 174 152 172 b 157 160 151 143 138 140 b 130 139 123 147 118 153 b 127 163 121 164 112 165 b 105 166 106 174 112 179 b 126 194 142 208 156 224 b 168 237 178 251 190 264 b 196 272 204 278 211 284 b 219 291 227 301 235 308 b 240 313 244 313 244 306 b 246 294 253 284 259 275 b 261 274 259 270 258 265 b 256 259 254 254 251 248 z m 298 191 b 299 187 300 183 301 180 b 303 174 303 166 312 172 b 314 172 316 171 318 170 b 317 169 316 166 315 164 b 307 153 294 152 282 147 b 262 139 240 135 219 130 b 213 128 208 128 204 127 b 201 127 198 127 196 127 b 197 129 197 131 198 134 b 206 140 214 147 221 156 b 230 165 238 178 247 187 b 254 194 259 202 265 208 b 267 211 270 213 271 215 b 274 217 278 222 280 224 b 282 220 287 215 287 211 b 287 205 288 203 295 204 b 295 204 296 204 296 204 b 300 203 303 200 306 198 b 303 195 300 193 298 191 z m 660 312 b 656 309 653 306 647 304 b 645 302 642 302 640 301 b 634 287 617 285 606 275 b 585 256 559 247 535 231 b 519 220 502 211 487 200 b 485 199 483 198 482 198 b 462 194 449 180 432 171 b 428 170 426 171 423 170 b 424 174 424 178 426 179 b 431 183 436 187 442 189 b 462 202 484 212 504 225 b 543 248 579 272 617 294 b 628 302 640 309 653 318 b 657 322 661 321 660 312 z m 769 398 b 763 395 756 393 750 391 b 748 391 745 389 745 387 b 742 372 729 369 719 361 b 713 358 712 358 710 343 b 694 352 687 329 672 329 b 672 330 671 331 672 332 b 682 341 690 351 703 357 b 710 360 714 368 719 372 b 733 382 742 398 761 400 b 764 401 767 400 770 400 b 770 399 770 398 769 398 z m 326 213 b 326 208 326 204 325 199 b 316 194 313 195 311 204 b 307 214 305 224 303 234 b 303 237 305 240 306 242 b 308 241 309 240 311 238 b 313 234 315 231 317 229 b 318 226 318 225 320 223 b 322 219 323 215 325 212 b 325 212 326 213 326 213 z m 499 -56 b 506 -60 515 -64 520 -68 b 526 -70 529 -75 537 -72 b 538 -72 541 -73 541 -74 b 541 -75 538 -78 538 -78 b 532 -78 526 -80 521 -77 b 513 -74 506 -69 499 -64 b 498 -62 498 -59 496 -58 b 498 -57 498 -57 499 -56 z m 411 27 b 418 19 423 11 430 1 b 420 0 409 14 408 25 b 409 25 410 26 411 27 z m 338 257 b 339 255 339 254 340 253 b 341 247 346 241 347 236 b 347 234 343 231 342 229 b 340 231 337 231 337 233 b 334 238 334 245 333 249 b 333 250 333 253 333 254 b 333 255 335 255 338 257 z m 420 33 b 413 30 408 29 403 29 b 401 30 399 34 399 36 b 398 37 400 41 401 41 b 403 42 407 41 408 39 b 411 38 414 36 420 33 z m 873 568 b 877 572 881 578 886 586 b 886 581 890 578 888 577 b 884 571 880 569 875 565 b 875 565 874 567 873 568 z m 388 49 b 384 53 381 60 377 64 b 383 68 391 60 388 49 z m 334 174 b 332 174 327 174 325 177 b 324 179 325 182 324 186 b 325 186 326 187 327 187 b 331 183 333 181 337 178 b 335 177 335 175 334 174 z m 546 643 b 542 639 538 636 535 632 b 533 633 530 636 530 637 b 535 640 538 643 542 646 b 542 646 544 645 546 643 z m 780 403 b 787 403 791 403 798 405 b 798 405 798 402 798 400 b 795 400 789 398 786 398 b 783 398 781 401 780 403 z m 791 437 b 795 441 797 445 800 449 b 801 450 804 451 806 451 b 807 451 808 449 808 449 b 807 446 806 445 805 443 b 801 441 797 438 792 436 b 791 436 791 437 791 437 z m 128 134 b 125 130 121 128 119 123 b 118 123 115 127 114 128 b 118 131 121 134 125 137 b 126 136 127 135 128 134 z m 572 767 b 568 764 566 762 563 762 b 561 762 560 764 559 766 b 560 768 562 771 564 772 b 567 772 569 769 572 767 z m 580 -75 b 574 -75 570 -75 566 -75 b 569 -67 571 -67 580 -75 z m 125 171 b 128 172 129 172 130 174 b 146 188 163 204 178 217 b 180 219 180 223 180 224 b 177 224 173 223 172 222 b 164 212 157 202 146 194 b 139 189 134 181 125 171 z m 220 265 b 219 266 218 266 218 267 b 208 258 199 249 190 239 b 191 238 193 237 194 237 b 203 247 212 256 220 265 z"},"_":{"x_min":0,"x_max":981,"ha":981,"o":"m 671 -74 b 661 -72 652 -70 644 -68 b 643 -68 642 -69 641 -69 b 628 -71 614 -73 600 -66 b 598 -72 587 -73 591 -83 b 591 -83 587 -86 586 -86 b 573 -85 560 -83 548 -83 b 540 -83 534 -81 529 -76 b 528 -75 526 -75 525 -75 b 515 -75 506 -76 497 -77 b 494 -78 491 -80 489 -82 b 489 -83 490 -84 490 -84 b 494 -85 499 -86 503 -88 b 508 -90 513 -94 518 -97 b 516 -101 513 -106 510 -108 b 506 -110 500 -109 496 -107 b 490 -106 485 -102 480 -100 b 480 -101 479 -103 479 -104 b 491 -121 508 -117 524 -112 b 524 -110 524 -107 524 -105 b 526 -105 529 -104 531 -105 b 534 -107 536 -109 539 -111 b 542 -112 544 -114 547 -114 b 551 -114 556 -113 560 -113 b 570 -111 571 -109 568 -100 b 567 -94 569 -91 574 -91 b 582 -92 590 -93 597 -95 b 600 -95 603 -100 603 -102 b 603 -105 599 -107 597 -110 b 595 -111 592 -111 589 -112 b 592 -100 582 -104 576 -101 b 578 -107 581 -113 585 -122 b 591 -125 595 -119 601 -114 b 603 -113 608 -111 609 -112 b 618 -121 629 -117 639 -118 b 653 -119 668 -117 680 -128 b 682 -130 686 -130 689 -130 b 696 -130 703 -128 709 -130 b 720 -135 732 -134 743 -133 b 753 -133 762 -134 772 -135 b 773 -133 773 -131 773 -129 b 774 -127 776 -125 777 -123 b 779 -124 780 -126 782 -128 b 784 -130 786 -132 789 -133 b 791 -133 794 -133 796 -134 b 802 -138 807 -138 811 -133 b 817 -134 823 -137 827 -136 b 837 -134 845 -134 855 -136 b 869 -138 884 -135 899 -133 b 908 -133 917 -129 926 -130 b 936 -131 942 -127 948 -120 b 950 -117 952 -113 956 -112 b 966 -109 967 -101 968 -93 b 970 -77 972 -62 974 -46 b 975 -35 972 -31 961 -32 b 951 -33 941 -36 930 -37 b 910 -39 889 -41 869 -42 b 857 -43 846 -44 834 -44 b 827 -44 819 -43 812 -43 b 790 -42 769 -43 748 -43 b 737 -43 726 -44 715 -44 b 705 -44 696 -44 686 -44 b 679 -44 671 -45 664 -44 b 649 -43 633 -41 618 -40 b 617 -40 615 -41 614 -41 b 604 -41 594 -40 584 -40 b 578 -40 572 -40 565 -40 b 567 -48 570 -51 577 -51 b 586 -50 595 -50 604 -51 b 618 -51 633 -53 647 -54 b 651 -54 654 -55 658 -55 b 667 -55 676 -54 684 -55 b 701 -58 719 -53 735 -59 b 736 -60 737 -59 738 -59 b 747 -59 756 -58 765 -59 b 767 -59 768 -62 770 -64 b 767 -66 764 -69 762 -69 b 752 -67 743 -62 733 -69 b 732 -70 729 -69 727 -68 b 724 -66 721 -63 719 -62 b 712 -74 689 -74 674 -65 b 673 -67 672 -70 671 -74 z m 516 -81 b 518 -82 521 -82 524 -83 b 531 -84 535 -93 544 -91 b 545 -90 548 -98 550 -101 b 546 -102 541 -104 539 -102 b 531 -97 523 -90 515 -84 b 515 -83 515 -82 516 -81 z m 280 -96 b 274 -90 267 -84 257 -84 b 255 -84 252 -81 249 -79 b 252 -77 256 -72 258 -73 b 269 -77 281 -82 292 -88 b 298 -92 304 -96 314 -92 b 307 -88 302 -84 297 -80 b 297 -79 298 -78 298 -77 b 303 -78 307 -79 311 -81 b 317 -84 321 -88 326 -92 b 327 -91 327 -90 328 -90 b 327 -89 325 -88 325 -87 b 323 -85 323 -82 321 -79 b 324 -80 327 -80 329 -80 b 332 -80 334 -81 336 -81 b 342 -81 347 -82 352 -82 b 354 -82 356 -82 358 -81 b 372 -80 387 -76 400 -79 b 414 -81 427 -84 440 -77 b 438 -74 436 -72 434 -70 b 434 -71 434 -73 434 -74 b 428 -74 422 -76 417 -75 b 411 -74 406 -71 401 -69 b 399 -68 396 -68 394 -69 b 383 -75 376 -74 366 -66 b 359 -70 353 -75 347 -65 b 344 -72 340 -74 333 -72 b 327 -71 321 -65 314 -71 b 314 -72 310 -69 308 -68 b 306 -66 304 -64 303 -63 b 301 -65 300 -67 298 -69 b 297 -70 296 -72 294 -74 b 286 -64 276 -64 265 -66 b 262 -66 258 -64 254 -63 b 253 -62 251 -61 251 -61 b 249 -64 247 -67 245 -70 b 244 -67 243 -64 242 -62 b 227 -60 212 -58 197 -56 b 198 -58 200 -60 203 -65 b 199 -63 196 -64 195 -63 b 192 -54 184 -57 178 -56 b 168 -55 158 -61 149 -55 b 148 -54 147 -55 146 -55 b 139 -55 133 -57 126 -56 b 116 -55 106 -53 96 -54 b 81 -57 66 -56 50 -55 b 37 -54 34 -52 34 -39 b 39 -39 44 -39 49 -39 b 59 -38 69 -36 79 -35 b 96 -34 114 -34 132 -33 b 147 -32 162 -31 177 -31 b 196 -31 215 -33 234 -33 b 240 -34 246 -32 252 -33 b 267 -34 282 -35 297 -36 b 302 -36 306 -34 311 -33 b 296 -30 281 -29 267 -28 b 262 -28 258 -27 253 -27 b 235 -27 216 -28 198 -27 b 177 -27 157 -25 137 -25 b 121 -25 105 -27 89 -28 b 64 -30 39 -32 13 -34 b 7 -34 7 -38 8 -43 b 9 -45 11 -47 11 -49 b 14 -55 14 -60 5 -60 b 1 -60 -4 -64 -8 -66 b -15 -69 -15 -74 -9 -79 b -4 -82 -5 -85 -8 -88 b -9 -90 -12 -92 -12 -94 b -12 -99 -11 -104 -9 -109 b -9 -110 -4 -110 -2 -109 b 3 -108 7 -105 13 -104 b 21 -102 29 -102 38 -100 b 38 -97 38 -94 37 -88 b 42 -92 44 -94 46 -96 b 49 -98 52 -100 55 -100 b 63 -99 70 -98 78 -97 b 86 -97 95 -97 103 -96 b 104 -96 105 -95 105 -95 b 105 -94 105 -93 105 -93 b 104 -90 104 -87 103 -84 b 106 -86 108 -87 110 -89 b 116 -93 120 -98 127 -95 b 129 -94 132 -95 134 -96 b 137 -96 141 -98 144 -97 b 149 -95 154 -92 159 -91 b 162 -90 166 -90 169 -92 b 176 -94 182 -99 189 -100 b 196 -100 203 -97 210 -95 b 213 -94 216 -93 218 -93 b 221 -93 224 -93 226 -94 b 226 -93 225 -92 225 -91 b 227 -89 229 -85 232 -84 b 238 -83 237 -88 236 -92 b 236 -93 238 -96 240 -96 b 241 -96 243 -94 244 -93 b 244 -91 244 -89 245 -87 b 257 -90 266 -100 280 -96 z m 223 -87 b 218 -85 212 -83 208 -81 b 205 -84 202 -90 201 -90 b 196 -88 192 -85 188 -82 b 186 -79 185 -74 184 -71 b 185 -70 185 -69 185 -69 b 196 -71 208 -72 219 -75 b 222 -76 223 -81 226 -84 b 225 -85 224 -86 223 -87 z m 157 -89 b 149 -85 142 -82 136 -79 b 135 -79 136 -73 137 -72 b 147 -68 156 -75 157 -89 z m 410 -34 b 413 -42 417 -43 423 -43 b 430 -43 438 -44 445 -45 b 449 -45 453 -44 457 -44 b 465 -46 471 -46 478 -42 b 478 -41 481 -44 482 -46 b 486 -50 498 -52 500 -47 b 503 -43 505 -43 509 -44 b 513 -46 518 -47 522 -48 b 533 -49 545 -49 556 -50 b 556 -50 557 -49 558 -48 b 558 -46 557 -44 557 -42 b 508 -39 459 -37 410 -34 z m 446 -67 b 445 -71 445 -74 445 -77 b 445 -82 448 -86 453 -84 b 460 -82 465 -83 471 -86 b 474 -87 479 -85 482 -84 b 480 -78 478 -73 477 -68 b 472 -72 467 -78 462 -78 b 457 -78 452 -71 446 -67 z m 432 -102 b 438 -114 449 -112 458 -112 b 460 -107 461 -103 463 -97 b 459 -98 455 -97 452 -99 b 445 -104 439 -106 432 -102 z m 350 -37 b 350 -36 350 -35 350 -33 b 341 -32 331 -32 321 -30 b 330 -45 341 -35 350 -37 z m 553 -70 b 553 -72 553 -73 553 -74 b 563 -74 572 -74 581 -74 b 581 -72 581 -71 581 -69 b 572 -70 562 -70 553 -70 z m 357 -31 b 363 -41 368 -42 376 -34 b 369 -33 363 -32 357 -31 z m 401 -40 b 401 -38 401 -36 401 -35 b 396 -35 391 -35 386 -35 b 386 -36 386 -38 386 -39 b 391 -39 396 -40 401 -40 z"},"v":{"x_min":0,"x_max":439,"ha":439,"o":"m 555 659 b 555 659 555 659 555 659 b 556 657 558 654 557 652 b 553 647 548 642 544 637 b 531 624 520 611 507 598 b 494 586 478 578 469 564 b 459 549 446 537 437 523 b 430 513 424 505 412 502 b 407 497 403 492 398 487 b 399 478 398 471 389 465 b 383 462 380 455 373 451 b 377 461 380 471 384 480 l 384 480 b 382 479 379 477 378 476 b 360 454 340 433 325 410 b 301 373 268 342 249 302 b 249 301 248 300 248 300 b 236 287 224 273 212 260 b 210 258 208 258 203 256 b 204 262 203 267 205 271 b 215 285 225 300 234 314 b 244 330 254 347 265 362 b 284 388 305 413 324 438 b 332 448 340 458 348 468 l 348 468 b 345 467 341 468 340 466 b 325 449 309 432 295 414 b 283 399 272 381 261 365 b 252 353 242 342 235 330 b 220 308 208 285 194 263 b 171 228 149 192 126 157 b 123 152 118 149 114 145 b 113 145 112 146 111 147 b 114 155 116 163 120 170 b 123 177 131 181 122 190 b 119 192 122 205 126 208 b 135 215 133 221 125 230 b 137 232 137 238 133 244 b 136 249 139 252 140 256 b 142 260 142 265 143 269 b 145 275 148 281 148 287 b 150 307 156 326 166 344 b 172 355 177 368 171 382 b 169 388 174 397 178 403 b 184 412 188 432 183 440 b 189 459 211 470 199 493 b 198 494 199 495 200 497 b 206 513 213 528 210 548 b 208 563 216 579 220 594 b 223 606 224 617 214 627 b 212 629 211 633 211 636 b 208 656 193 664 176 669 b 171 670 167 672 161 674 b 164 678 165 681 167 683 b 159 689 143 676 142 695 b 133 692 125 689 115 685 b 116 692 116 695 117 701 b 112 697 109 694 109 693 b 101 694 95 696 92 694 b 88 691 85 685 85 680 b 83 647 85 612 81 579 b 74 526 64 474 54 421 b 48 387 40 353 32 319 b 25 286 17 254 12 221 b 5 179 -2 136 4 94 b 7 74 11 53 21 37 b 30 22 47 11 63 3 b 76 -4 92 -5 107 -7 b 113 -8 120 -7 124 -4 b 131 4 138 13 143 22 b 155 44 165 66 177 88 b 191 111 205 134 219 157 b 224 165 230 173 235 181 b 247 200 259 220 271 239 b 294 273 316 307 339 341 b 357 365 375 387 393 411 b 402 422 409 433 418 444 b 436 465 455 486 474 507 b 488 523 503 539 517 555 b 527 567 537 578 544 588 b 556 598 567 606 576 615 b 592 634 616 645 627 668 b 628 670 631 670 633 670 b 636 671 640 671 642 673 b 653 682 664 691 675 700 b 681 705 685 712 691 717 b 704 726 718 733 731 742 b 742 749 753 756 764 763 b 776 770 794 772 800 789 b 801 791 806 792 810 792 b 812 793 816 792 819 793 b 835 801 850 811 867 819 b 902 836 939 848 979 852 b 997 853 1004 850 1005 832 b 1007 811 1006 790 1006 768 b 1008 766 1011 762 1015 757 b 1028 778 1037 798 1035 821 b 1033 841 1032 864 1008 872 b 989 879 970 887 951 887 b 921 887 890 881 860 878 b 857 878 855 875 853 873 b 861 872 868 873 875 875 b 881 876 888 877 895 878 b 895 877 895 875 896 874 b 855 860 814 849 780 822 b 794 827 809 833 823 839 b 834 844 846 849 857 854 b 859 854 862 852 865 851 b 863 849 861 847 858 846 b 849 842 837 840 830 833 b 817 819 799 819 784 810 b 765 800 743 795 729 781 b 713 765 697 751 676 744 b 675 743 674 742 673 742 b 655 727 639 712 621 698 b 611 691 600 685 589 678 b 588 680 587 682 585 684 b 599 695 612 707 626 718 b 625 719 624 720 623 721 b 617 717 609 714 603 710 b 594 702 585 694 578 686 b 570 677 555 675 555 659 z m 85 434 b 84 425 92 417 85 405 b 79 395 80 380 78 367 b 75 355 72 343 70 330 b 69 323 67 314 71 309 b 78 297 70 289 66 280 b 64 276 64 271 63 267 b 62 260 63 252 61 245 b 56 231 59 214 45 203 b 44 202 44 197 45 195 b 51 184 44 174 42 164 b 41 158 41 153 39 148 b 38 142 35 136 32 128 b 28 133 26 134 26 135 b 29 156 31 177 34 198 b 36 216 40 233 44 251 b 51 284 58 318 65 351 b 67 364 70 377 72 390 b 75 405 78 419 81 434 b 83 434 84 434 85 434 z m 666 776 b 665 777 664 779 663 780 b 623 750 584 720 545 689 b 546 688 547 687 548 685 b 587 716 626 746 666 776 z m 412 502 b 415 517 425 526 434 536 b 443 546 451 557 459 568 b 458 569 457 570 456 571 b 454 568 452 565 449 562 b 431 542 413 521 396 500 b 391 494 388 487 384 480 l 384 480 b 389 483 393 485 398 487 b 403 492 407 497 412 502 z m 348 468 b 348 468 348 468 348 468 b 371 498 395 528 418 558 b 406 550 396 541 387 531 b 375 518 364 505 354 491 b 350 484 350 475 348 468 z m 841 867 b 840 868 840 870 839 872 b 810 859 781 846 752 833 b 751 832 751 828 750 825 b 781 839 811 853 841 867 z m 555 659 b 555 659 555 659 555 659 b 553 659 549 659 547 658 b 535 648 522 638 510 628 b 503 621 497 612 491 604 b 497 606 502 610 506 613 b 522 629 539 644 555 659 z m 485 634 b 487 633 488 632 489 631 b 507 647 524 663 542 679 b 540 680 539 681 538 683 b 521 667 503 650 485 634 z m 707 782 b 708 781 709 779 710 778 b 724 787 739 796 753 805 b 752 806 751 808 750 809 b 736 800 721 791 707 782 z m 666 750 b 666 751 665 753 664 754 b 654 746 644 738 634 730 b 635 729 636 728 637 727 b 647 735 657 742 666 750 z m 673 785 b 674 783 675 781 677 780 b 685 785 693 791 701 797 b 701 798 700 798 700 799 b 691 795 682 790 673 785 z"},"O":{"x_min":0,"x_max":713,"ha":713,"o":"m 58 760 b 58 760 58 760 58 760 b 58 760 58 760 58 760 l 58 760 z m 58 760 b 58 760 58 760 58 760 b 58 760 58 760 58 760 b 58 760 58 760 58 760 z m 144 844 b 146 846 146 848 148 850 b 145 851 143 854 141 854 b 131 853 126 848 122 840 b 127 840 131 840 136 839 b 139 840 142 842 144 844 z m 69 775 b 72 775 74 779 76 781 b 69 782 63 783 57 781 b 52 778 49 773 45 770 b 50 766 54 763 58 760 b 58 767 57 775 69 775 z m 803 775 b 803 785 802 796 800 806 b 797 817 794 831 789 842 b 783 857 775 873 767 888 b 764 895 759 901 756 908 b 751 918 745 927 731 928 b 729 928 726 931 724 934 b 720 937 718 941 715 943 b 696 955 678 966 658 978 b 651 984 645 988 636 991 b 610 1001 581 1007 553 1016 b 552 1016 550 1016 549 1016 b 544 1016 538 1016 533 1016 b 522 1017 511 1019 501 1017 b 479 1013 456 1019 436 1010 b 426 1006 413 1005 401 1002 b 398 1008 393 1004 384 999 b 378 993 372 989 362 991 b 359 992 355 989 351 988 b 354 984 356 983 358 980 b 355 975 353 975 347 977 b 340 979 330 981 327 978 b 321 972 311 970 303 966 b 301 965 298 964 298 962 b 299 952 291 953 284 952 b 281 951 275 949 274 947 b 273 941 270 942 266 942 b 252 943 229 928 224 915 b 213 919 206 915 207 906 b 202 902 196 900 194 895 b 191 890 188 889 182 888 b 178 888 174 887 170 885 b 164 881 161 878 157 875 b 155 873 153 870 149 866 b 158 867 166 866 171 868 b 181 872 188 878 195 885 b 204 893 212 904 226 906 b 228 906 230 909 231 910 b 237 920 251 922 261 927 b 279 937 298 945 319 954 b 327 958 336 962 345 965 b 348 966 352 965 355 964 b 356 963 356 962 356 961 b 352 958 346 955 341 952 b 334 948 325 947 321 939 b 320 937 314 935 312 934 b 302 929 292 925 282 920 b 268 912 255 903 241 893 b 234 890 229 886 223 883 b 217 878 212 874 205 871 b 201 869 196 868 192 866 b 179 854 164 845 151 835 b 142 827 132 819 123 812 b 117 807 111 801 106 796 b 98 790 87 787 85 776 b 85 775 82 774 80 773 b 77 771 75 768 72 766 b 68 764 63 762 58 760 b 54 753 50 745 46 739 b 42 740 39 740 34 741 b 37 737 39 735 41 732 b 32 728 23 726 18 715 b 11 703 0 694 -10 684 b -11 682 -11 679 -11 679 b -5 678 0 678 5 678 b 7 678 9 679 10 682 b 12 683 15 684 17 686 b 18 685 19 685 20 684 b 11 672 4 661 -5 649 b -1 650 1 650 2 651 b 6 654 10 657 14 661 b 19 667 23 673 33 675 b 44 678 54 685 61 696 b 63 700 69 704 75 700 b 76 699 79 700 80 702 b 83 706 86 710 91 718 b 98 718 105 725 111 732 b 115 736 119 738 122 741 b 129 746 135 753 143 758 b 145 760 149 762 150 761 b 157 753 162 759 168 763 b 175 767 179 773 185 778 b 192 784 197 794 206 798 b 217 804 224 815 238 816 b 247 817 252 824 259 828 b 274 838 291 846 307 855 b 309 856 311 856 313 856 b 318 857 321 858 324 862 b 328 864 331 866 335 868 b 341 871 349 873 354 877 b 358 883 362 883 367 884 b 375 884 383 885 395 887 b 398 888 401 892 404 893 b 414 898 425 901 436 903 b 457 910 480 915 502 920 b 503 920 504 921 506 921 b 523 916 542 921 560 921 b 571 922 583 923 593 928 b 607 936 620 941 634 935 b 638 934 641 933 643 933 b 663 931 677 920 682 901 b 683 899 684 898 685 895 b 689 885 695 875 698 864 b 701 851 703 839 704 826 b 706 814 707 804 707 793 b 707 781 705 770 704 759 b 703 753 701 747 700 742 b 699 739 699 737 699 734 b 700 733 700 733 701 733 b 704 735 709 736 709 739 b 712 753 715 768 717 782 b 718 792 718 800 718 809 b 718 818 717 828 717 838 b 717 840 718 843 718 845 b 720 843 724 841 724 839 b 725 832 733 824 727 815 b 726 814 726 813 727 812 b 734 804 732 794 732 783 b 733 780 733 778 733 775 b 733 765 733 754 733 742 b 728 739 729 734 735 731 b 733 727 731 724 728 719 b 734 719 736 719 739 719 b 739 719 740 718 740 718 b 736 712 732 708 727 704 b 725 702 724 700 721 698 b 725 696 728 693 731 692 b 733 692 736 692 738 692 b 737 689 737 687 736 685 b 736 683 734 682 734 679 b 736 671 732 669 725 669 b 723 669 720 666 718 664 b 720 662 723 660 725 660 b 732 658 731 655 728 651 b 726 648 724 647 723 645 b 724 627 715 617 702 609 b 704 603 709 598 707 594 b 705 588 700 583 697 579 b 697 572 698 568 697 565 b 695 558 686 553 686 545 b 687 544 685 542 684 541 b 678 534 672 525 666 518 b 663 514 659 509 659 504 b 658 495 655 490 650 484 b 647 480 644 476 651 471 b 652 471 652 465 651 464 b 643 455 639 441 625 438 b 624 438 622 435 622 433 b 619 426 619 418 610 415 b 609 414 608 411 609 409 b 611 401 608 391 600 386 b 595 383 591 377 587 372 b 582 363 578 353 573 345 b 560 329 546 313 533 297 b 531 294 528 289 525 285 b 521 279 515 275 511 269 b 502 256 486 247 481 231 b 481 230 478 227 477 227 b 463 227 457 215 450 208 b 441 200 434 189 424 179 b 416 172 407 166 402 157 b 401 154 398 150 395 148 b 394 147 388 148 387 149 b 386 150 386 154 387 155 b 403 169 416 183 430 197 b 439 207 448 218 456 227 b 467 239 476 250 484 263 b 488 267 490 273 495 277 b 510 296 525 314 542 334 b 543 336 542 339 543 342 b 540 341 537 340 535 339 b 525 327 517 315 508 305 b 498 293 491 277 476 271 b 474 271 473 271 471 271 b 472 273 472 275 473 276 b 475 278 478 279 480 282 b 483 286 485 292 488 297 b 496 306 502 314 509 324 b 514 332 521 339 526 346 b 539 365 551 384 563 402 b 567 407 573 411 568 420 b 564 415 563 412 560 409 b 534 372 509 334 482 297 b 461 269 437 243 415 215 b 403 201 388 186 374 171 b 360 157 345 142 330 130 b 307 112 287 91 260 79 b 242 68 223 58 205 48 b 200 45 194 43 188 41 b 176 36 161 30 144 34 b 136 33 118 54 115 60 b 110 70 109 71 107 84 b 104 95 104 107 104 120 b 104 128 107 137 108 146 b 110 164 112 183 117 200 b 123 232 131 262 142 292 b 150 315 159 338 171 358 b 177 371 186 381 192 391 b 200 405 205 420 219 429 b 220 430 220 433 221 435 b 228 444 233 456 241 464 b 255 481 269 497 277 517 b 287 538 304 549 319 563 b 327 570 339 575 349 579 b 354 581 360 581 365 580 b 371 578 378 578 380 583 b 384 593 400 595 401 609 b 402 616 402 629 400 636 b 396 647 382 655 386 668 b 386 670 384 672 383 673 b 373 684 363 692 353 702 b 351 704 347 708 348 710 b 352 719 347 719 342 718 b 338 718 335 719 332 718 b 327 718 323 715 318 714 b 311 713 306 712 302 711 b 294 710 286 710 279 706 b 265 697 252 684 238 670 b 232 664 228 656 222 648 b 218 642 215 635 211 630 b 207 626 202 623 198 619 b 188 607 179 594 169 583 b 153 562 139 542 125 519 b 113 500 103 482 92 463 b 80 443 69 423 58 404 b 47 382 38 357 28 336 b 25 329 21 320 20 313 b 17 292 6 273 4 251 b 3 240 -3 227 -4 214 b -6 188 -5 162 -5 135 b -5 133 -4 131 -3 131 b 5 130 5 124 6 117 b 6 111 8 105 9 99 b 14 91 20 83 23 72 b 28 57 37 43 49 33 b 57 26 66 18 74 11 b 81 6 88 0 96 -5 b 98 -6 104 -9 104 -9 b 108 -11 133 -31 147 -32 b 153 -33 159 -37 166 -39 b 169 -40 172 -43 176 -43 b 192 -46 207 -49 224 -50 b 244 -51 263 -48 283 -47 b 284 -47 285 -46 287 -46 b 285 -43 284 -41 284 -39 b 288 -37 291 -33 294 -31 b 298 -29 301 -27 304 -26 b 310 -23 319 -22 325 -20 b 334 -16 343 -12 353 -8 b 363 -2 374 5 383 13 b 402 24 417 37 432 51 b 446 64 465 75 473 95 b 473 96 473 97 474 97 b 481 105 489 113 497 121 b 505 130 512 138 520 148 b 526 156 534 164 539 172 b 544 178 545 185 551 190 b 564 200 569 215 581 226 b 592 235 599 249 608 261 b 617 272 625 283 633 295 b 639 302 645 310 647 317 b 651 329 662 336 660 348 b 660 349 661 349 661 350 b 671 365 680 379 688 393 b 689 394 689 395 689 395 b 694 405 697 414 702 422 b 710 435 721 445 725 461 b 728 477 736 491 742 506 b 745 509 743 514 746 518 b 751 533 756 548 762 561 b 763 565 765 569 766 573 b 769 578 769 583 770 588 b 773 596 778 604 782 615 b 785 626 787 638 790 651 b 793 662 790 675 799 686 b 800 687 801 689 801 691 b 802 696 802 701 803 706 b 803 712 805 720 805 726 b 805 741 804 759 803 775 z m 185 816 b 180 815 176 812 170 810 b 170 811 169 811 169 812 b 177 818 185 824 194 833 b 194 821 193 816 185 816 z m 199 834 b 198 834 198 835 197 836 b 204 847 212 851 224 846 b 215 842 206 838 199 834 z m 259 868 b 252 865 243 863 238 853 b 238 851 232 852 228 851 b 229 858 230 865 238 864 b 239 864 242 864 242 865 b 246 876 255 878 263 881 b 268 875 267 871 259 868 z m 304 898 b 301 895 298 893 295 890 b 287 880 274 883 264 881 b 277 899 312 919 327 910 b 320 905 311 902 304 898 z m 360 966 b 362 968 363 970 365 970 b 367 971 370 971 373 971 b 371 969 370 964 368 963 b 366 962 363 963 360 963 b 360 964 360 965 360 966 z m 349 923 b 355 934 362 937 380 938 b 372 927 358 921 349 923 z m 386 938 b 386 940 384 941 384 942 b 394 944 400 946 406 948 b 407 946 407 945 408 943 b 402 942 395 940 386 938 z m 453 252 b 456 256 460 260 463 262 b 465 264 469 263 471 264 b 471 262 472 259 471 258 b 465 251 459 245 453 239 b 452 240 451 241 449 241 b 451 245 451 249 453 252 z m 47 760 b 38 761 1 726 -2 714 b -1 713 0 713 0 712 b 16 728 32 743 47 760 z m 111 825 b 118 825 123 826 128 827 b 128 828 127 829 127 829 b 123 831 120 832 116 832 b 113 832 111 832 109 832 b 110 829 111 825 111 825 z m 82 795 b 84 799 90 801 94 803 b 97 805 100 805 105 807 b 98 816 87 816 82 808 b 79 803 76 799 73 795 b 76 791 78 791 82 795 z m 1 674 b -3 672 -9 667 -12 668 b -22 672 -22 665 -24 660 b -21 661 -17 662 -14 662 b -6 660 1 665 1 674 z m 685 671 b 694 682 699 692 700 705 b 702 707 704 710 707 713 b 699 714 694 714 696 706 b 696 704 694 701 693 699 b 688 693 684 677 685 671 z m 647 578 b 646 576 646 572 645 570 b 648 570 651 570 652 571 b 655 576 658 581 660 586 b 666 602 675 620 681 636 b 682 638 681 640 681 644 b 674 639 675 639 668 622 b 661 607 653 592 647 578 z m 545 356 b 544 354 543 352 543 350 b 543 348 546 346 547 346 b 553 345 562 356 560 365 b 555 362 551 360 547 357 b 546 357 545 357 545 356 z m 609 495 b 605 486 599 478 594 469 b 588 458 582 447 577 438 b 578 437 579 436 580 436 b 581 437 583 439 584 441 b 590 450 596 460 603 470 b 608 478 613 486 618 495 b 622 504 631 509 632 520 b 633 531 642 541 646 550 b 648 555 649 560 651 565 b 644 566 640 563 639 558 b 638 550 627 544 631 534 b 631 533 630 532 629 532 b 623 518 617 507 609 495 z m 676 651 b 682 649 684 653 687 656 b 688 657 686 660 686 662 b 684 661 682 661 681 660 b 679 658 678 655 676 651 z m 606 455 b 606 453 609 450 609 450 b 612 452 614 455 619 458 b 617 460 615 462 613 463 b 611 460 608 457 606 455 z m 564 385 b 560 379 557 374 564 366 b 570 374 574 383 579 392 b 570 394 568 389 564 385 z m 585 412 b 594 413 599 419 602 433 b 590 429 594 416 585 412 z"},"(":{"x_min":0,"x_max":409,"ha":409,"o":"m 153 407 l 153 407 b 159 409 167 408 169 417 b 171 423 177 429 179 436 b 179 441 177 445 175 449 b 174 451 172 452 170 454 b 173 455 174 456 175 455 b 189 454 190 455 191 467 b 191 470 194 473 195 477 b 197 480 199 485 201 488 b 203 493 203 501 206 504 b 215 511 216 515 212 523 b 214 525 216 527 217 529 b 220 539 226 550 235 559 b 237 561 237 567 239 570 b 242 578 246 587 249 594 b 254 607 260 619 267 631 b 281 656 298 675 310 702 b 318 719 331 736 342 752 b 346 758 354 761 357 766 b 368 781 379 795 389 811 b 407 841 430 868 453 893 b 463 903 472 912 480 923 b 490 935 489 961 479 967 b 462 972 456 987 451 1001 b 448 1010 445 1013 436 1013 b 418 1013 399 1014 380 1014 b 375 1014 368 1014 363 1012 b 335 1000 319 978 298 958 b 297 956 297 954 296 952 b 293 943 291 932 285 923 b 272 903 257 886 247 863 b 238 844 226 824 214 805 b 212 799 213 794 210 788 b 209 785 208 781 205 779 b 198 775 197 771 197 764 b 197 760 195 756 194 753 b 192 748 186 742 186 739 b 187 734 193 732 197 729 b 210 751 232 771 242 768 b 239 759 236 750 232 741 b 230 737 226 732 224 728 b 220 719 218 712 216 703 b 212 692 199 684 201 670 b 201 669 198 668 197 667 b 194 660 190 654 185 648 b 178 638 190 637 192 631 b 177 631 178 631 177 617 b 177 614 172 610 169 605 b 167 603 163 602 163 600 b 159 591 157 584 153 577 b 152 572 153 569 153 566 b 152 562 151 556 150 555 b 136 550 137 538 133 529 b 128 521 126 510 124 501 b 123 498 122 493 123 492 b 125 491 129 492 130 492 b 134 504 135 515 139 525 b 145 532 148 544 161 544 b 169 545 170 550 167 556 b 166 560 163 562 162 565 b 163 566 163 566 164 567 b 168 566 171 563 174 563 b 177 563 180 567 183 568 b 181 570 180 572 178 573 b 177 574 174 574 173 574 b 177 580 185 589 183 591 b 177 602 177 610 192 616 b 193 617 194 621 195 624 b 203 619 209 615 216 610 b 216 610 216 607 216 606 b 208 595 207 582 201 574 b 193 565 192 556 190 546 b 189 542 183 537 182 532 b 179 523 175 513 173 503 b 169 492 168 480 161 468 b 157 462 157 457 161 454 b 157 451 152 448 151 445 b 148 434 145 424 141 414 b 141 412 144 411 144 409 b 145 410 145 410 146 411 b 148 410 151 409 153 407 z m 246 -107 b 236 -111 227 -114 217 -116 b 206 -119 194 -123 183 -122 b 161 -122 139 -119 121 -111 b 117 -110 113 -108 112 -105 b 106 -91 92 -83 87 -69 b 81 -56 76 -42 80 -26 b 64 -21 67 -39 62 -43 b 55 -37 49 -34 45 -30 b 43 -28 42 -24 43 -22 b 48 -11 52 -2 48 8 b 46 12 46 18 46 23 b 49 42 41 54 23 55 b 23 54 22 53 22 53 b 24 50 27 49 31 47 b 25 42 16 37 12 32 b 8 26 3 20 3 14 b 2 6 4 -4 5 -13 b 7 -17 9 -22 12 -22 b 19 -23 21 -25 19 -32 b 18 -34 21 -36 22 -38 b 31 -54 39 -71 50 -85 b 60 -101 75 -115 88 -127 b 95 -135 106 -142 116 -149 b 122 -151 128 -150 135 -152 b 147 -157 157 -157 170 -153 b 181 -150 193 -149 204 -147 b 212 -146 220 -145 229 -142 b 235 -140 240 -136 235 -129 b 230 -124 235 -121 240 -119 b 247 -117 247 -113 246 -107 z m 41 1 b 30 -1 26 3 31 14 b 32 18 30 22 28 26 b 26 36 30 39 38 39 b 39 26 39 14 41 1 z m 35 -1 b 38 -3 39 -5 42 -8 b 38 -10 35 -13 32 -13 b 30 -15 28 -10 26 -8 b 30 -5 32 -3 35 -1 z m 123 592 b 128 596 133 600 137 603 b 135 605 133 607 130 611 b 137 617 145 624 150 630 b 152 634 152 640 155 641 b 162 645 162 650 162 656 b 162 659 163 663 166 667 b 173 674 175 681 168 687 b 167 688 167 690 167 690 b 177 696 186 702 195 707 b 194 708 194 709 193 710 b 189 708 182 706 178 704 b 177 709 177 714 175 723 b 172 718 171 717 170 715 b 167 707 163 699 159 692 b 157 686 152 681 151 675 b 149 661 144 648 132 636 b 129 634 129 629 128 627 b 126 621 124 614 122 608 b 121 603 118 599 117 594 b 114 588 111 582 108 577 b 105 570 104 562 100 554 b 95 543 90 531 86 520 b 80 504 75 490 70 475 b 68 468 71 465 79 465 b 81 474 82 483 84 492 b 86 491 88 491 88 491 b 91 498 93 503 97 509 b 103 519 99 529 110 537 b 110 537 110 537 110 537 b 107 549 113 559 124 567 b 121 569 117 570 115 572 b 112 577 115 584 119 584 b 122 583 124 580 125 578 b 127 581 130 584 133 588 b 129 589 126 590 123 592 z m 111 288 b 112 292 113 295 113 298 b 113 299 107 302 106 300 b 104 299 100 296 99 293 b 98 289 97 286 95 283 b 94 277 92 273 91 266 b 94 254 80 236 95 223 b 98 240 117 253 103 265 b 107 271 112 277 114 283 b 115 284 112 286 111 288 z m 75 436 b 72 440 71 442 71 443 b 75 447 78 451 81 455 b 76 457 71 459 68 460 b 52 438 44 414 43 388 b 52 389 55 396 57 402 b 57 406 57 411 59 412 b 69 419 69 423 60 429 b 66 431 70 433 75 436 z m 86 189 b 91 196 95 214 92 217 b 90 218 87 218 81 218 b 89 198 67 178 80 162 b 76 158 67 153 67 152 b 69 144 72 138 76 133 b 77 133 78 133 79 134 b 79 152 93 171 86 189 z m 153 407 b 153 407 153 407 153 407 b 144 406 135 402 134 389 b 133 387 129 384 128 382 b 122 375 117 368 123 361 b 133 364 136 371 137 379 b 139 389 146 395 156 395 b 158 395 160 396 159 396 b 158 400 156 403 153 407 z m 25 77 b 31 82 35 87 38 91 b 39 92 39 94 39 97 b 38 100 37 103 36 106 b 35 109 33 110 32 112 b 31 110 27 106 28 105 b 31 99 27 92 23 86 b 23 84 24 81 25 77 z m 75 352 b 86 356 92 368 88 375 b 87 377 84 378 83 378 b 82 377 79 375 79 374 b 78 367 77 360 75 352 z m 75 112 b 73 111 72 111 71 111 b 65 95 65 84 72 80 b 73 91 73 101 75 112 z m 54 33 b 70 35 56 23 60 21 b 71 25 73 34 67 42 b 64 39 59 37 54 33 z m 87 386 b 88 385 89 385 90 385 b 92 391 94 399 97 407 b 83 401 81 398 87 386 z m 52 257 b 68 264 56 274 64 282 b 60 283 59 283 58 283 b 56 274 54 265 52 257 z m 38 369 b 39 368 41 367 43 366 b 45 371 49 374 52 378 b 52 378 48 380 46 383 b 43 378 41 374 38 369 z m 127 337 b 126 337 126 337 125 337 b 119 334 114 331 108 329 b 107 328 107 327 107 326 b 112 326 117 326 121 327 b 124 329 125 333 127 337 z m 14 39 b 11 43 9 45 7 47 b 4 45 1 42 0 39 b 0 37 3 34 5 34 b 8 34 10 37 14 39 z m 67 325 b 68 323 70 323 71 322 b 73 327 76 330 78 334 b 78 334 75 337 72 338 b 70 333 69 329 67 325 z m 62 -13 b 64 -12 65 -12 67 -12 b 67 -5 67 1 67 8 b 66 8 65 8 62 8 b 62 1 62 -5 62 -13 z m 129 344 b 129 346 130 349 130 351 b 126 351 122 351 117 351 b 117 351 116 348 116 345 b 121 345 125 344 129 344 z m 31 129 b 32 129 33 129 34 129 b 35 136 36 143 36 148 b 35 148 34 148 34 148 b 33 141 32 136 31 129 z m 45 200 b 44 200 42 200 41 200 b 41 193 39 185 39 180 b 41 180 41 180 42 180 b 43 186 44 193 45 200 z m 77 64 b 65 63 64 60 66 49 b 70 54 72 58 77 64 z m 64 297 b 65 297 66 297 68 298 b 67 304 66 309 66 317 b 65 316 64 316 62 316 b 62 308 62 303 64 297 z"},"C":{"x_min":0,"x_max":723,"ha":723,"o":"m 639 272 b 644 278 648 280 653 274 b 665 283 676 293 687 302 b 695 308 704 313 712 317 b 714 318 716 318 719 318 l 715 323 b 710 319 706 316 701 314 b 698 313 695 311 692 308 b 691 306 688 304 685 302 b 677 298 670 293 663 289 b 652 283 642 276 632 269 b 625 265 618 260 611 255 b 608 253 605 250 602 248 b 609 250 615 253 622 256 b 629 260 634 266 639 272 z m 770 252 b 771 252 771 252 771 252 b 776 256 781 258 785 261 b 795 266 803 271 810 279 b 844 334 844 305 821 305 b 821 304 820 306 819 307 b 818 306 816 305 814 304 b 811 294 798 285 786 284 b 787 285 787 285 788 286 b 783 283 779 281 776 278 b 772 275 767 274 763 273 b 764 265 762 261 756 258 b 750 256 746 251 740 247 b 730 241 719 234 709 228 b 708 227 705 229 702 229 b 702 230 702 231 701 232 b 705 235 709 238 714 241 b 713 241 712 240 711 240 b 708 238 705 237 702 235 b 688 227 675 219 661 211 b 652 206 645 201 637 196 b 630 192 623 189 618 186 b 615 184 612 183 609 181 b 600 176 589 171 578 167 b 577 166 575 166 574 165 b 574 165 573 165 572 165 b 572 156 562 152 557 150 b 549 147 541 144 532 142 b 528 141 524 141 520 141 b 518 141 517 141 516 141 l 508 140 l 500 161 l 507 165 b 510 166 513 167 514 169 b 520 171 525 173 530 176 b 534 179 538 181 543 184 b 548 188 554 192 560 195 b 570 201 580 206 591 210 b 594 212 597 213 600 214 b 608 218 616 223 624 229 b 634 237 646 245 660 249 b 660 249 660 249 660 249 b 661 250 662 251 663 251 b 667 255 672 258 676 262 b 688 270 699 279 711 286 b 715 288 718 290 722 292 b 734 299 748 306 758 316 b 757 317 758 318 759 318 b 757 316 755 315 752 313 b 744 307 736 305 726 312 b 726 309 726 307 725 305 b 709 292 692 280 672 272 b 659 266 647 259 636 249 b 632 246 626 245 621 243 b 619 241 615 240 613 238 b 605 231 604 230 595 244 b 592 241 587 238 582 235 b 557 220 529 204 497 188 b 473 176 448 164 423 153 l 418 151 b 413 148 407 146 402 144 b 393 141 386 139 379 135 b 360 122 336 116 315 109 b 307 107 299 105 292 103 b 281 99 270 97 258 95 b 251 93 242 91 234 89 b 198 79 162 88 127 96 b 114 99 106 109 105 121 b 105 126 105 131 103 137 b 102 147 92 168 92 179 b 96 209 101 237 108 269 b 109 276 111 282 113 288 b 116 296 118 303 118 310 b 119 328 127 340 135 352 b 136 355 138 357 140 360 b 142 365 146 371 149 378 b 150 382 151 386 153 390 b 154 395 156 400 158 406 b 160 409 161 412 163 415 b 165 416 166 418 167 418 b 167 425 170 430 173 435 b 177 440 178 443 178 446 b 176 454 181 459 183 461 b 185 463 187 466 189 470 b 193 476 198 484 208 489 b 209 489 209 491 210 491 b 210 492 210 492 210 492 b 211 497 213 501 214 505 b 216 510 217 516 219 522 b 221 525 225 537 236 536 b 239 536 240 537 243 542 b 245 544 246 546 249 548 b 249 548 249 549 249 549 b 250 550 250 550 250 550 b 246 557 250 564 253 567 l 252 568 b 255 571 257 574 259 576 b 259 578 260 580 262 581 b 262 582 263 583 263 583 b 264 585 265 587 267 589 l 269 591 b 286 612 303 633 321 653 b 331 665 342 677 352 689 b 356 693 360 695 363 698 b 367 700 370 703 373 705 b 374 708 377 712 380 715 b 382 720 385 725 390 730 b 408 748 426 765 444 781 b 471 804 495 824 518 842 b 529 851 541 859 553 866 b 557 869 561 871 565 874 b 568 876 571 877 574 878 b 575 879 576 879 577 879 l 585 883 l 590 874 b 591 873 600 871 601 870 b 602 866 604 863 606 859 b 608 854 608 849 608 844 b 607 835 607 826 606 817 b 606 794 605 762 603 740 b 598 698 587 660 576 619 b 578 618 581 616 582 616 b 592 616 595 622 595 623 b 602 638 612 645 625 643 b 627 644 628 646 630 647 b 633 651 637 655 639 660 b 645 673 650 687 656 701 b 659 710 663 719 666 727 b 667 728 667 729 668 730 b 670 737 673 745 682 749 b 682 749 682 749 682 749 b 682 750 682 751 681 752 b 679 758 680 763 681 767 l 681 768 b 681 773 683 776 684 780 b 687 787 687 789 684 793 b 683 795 680 799 682 804 b 682 809 683 813 682 817 b 683 830 683 841 683 853 b 682 856 680 859 678 863 b 676 868 673 874 674 881 b 672 894 666 906 658 920 b 657 921 657 923 656 924 b 652 931 646 937 640 944 b 632 953 622 963 617 976 b 609 982 601 990 593 997 b 585 1004 577 1011 569 1017 b 555 1026 544 1030 532 1031 b 526 1031 520 1033 514 1035 b 514 1034 514 1033 514 1032 b 514 1023 507 1017 504 1015 b 499 1011 494 1008 489 1004 b 473 991 456 978 439 965 b 431 958 423 951 415 944 b 400 933 385 921 372 907 b 352 887 332 868 312 849 b 299 837 287 825 274 813 b 272 811 269 808 268 806 b 254 793 240 780 230 766 b 192 717 158 671 127 627 b 114 608 101 588 89 569 b 85 561 80 552 75 544 b 75 544 75 544 75 544 b 75 543 74 542 74 541 b 73 539 73 536 72 534 b 71 528 69 522 67 516 b 64 508 60 500 56 492 b 48 478 41 465 37 451 b 27 418 19 385 12 353 b 8 334 6 314 4 294 l 3 293 b 2 275 4 256 7 237 b 8 232 8 226 9 221 b 12 191 18 170 29 150 b 32 146 33 142 35 138 b 36 133 39 128 41 125 b 41 125 42 124 42 124 b 50 117 58 110 59 97 b 60 97 60 97 60 96 b 67 91 73 85 77 79 b 85 69 92 60 104 56 b 108 55 110 51 111 50 b 111 49 112 49 112 49 b 115 47 117 44 119 42 b 125 36 130 31 136 28 b 155 14 178 5 199 -3 b 210 -7 223 -11 235 -14 b 246 -17 256 -20 266 -24 b 266 -24 267 -24 268 -24 b 269 -24 271 -24 272 -24 b 276 -24 279 -24 283 -24 b 294 -25 304 -25 313 -22 b 321 -20 328 -20 335 -20 b 345 -20 353 -20 359 -15 b 365 -10 374 -11 378 -13 b 392 -17 401 -15 413 -5 b 417 -2 421 -1 424 0 b 425 0 426 0 427 1 b 429 2 433 3 436 4 b 448 7 456 10 460 18 b 461 23 467 25 470 26 b 471 26 471 26 472 26 b 477 28 482 30 488 32 b 499 35 509 39 516 45 b 525 54 534 60 544 66 b 550 70 556 73 560 77 b 573 87 586 95 600 103 b 605 107 612 111 617 115 b 618 115 619 116 621 117 b 623 119 625 120 627 122 b 634 126 642 130 649 135 b 660 141 673 148 684 155 b 688 157 691 161 695 164 b 697 166 700 168 702 170 b 710 177 718 183 726 189 b 730 192 734 196 738 199 l 739 200 l 738 201 l 740 208 b 740 208 740 208 740 209 b 741 211 742 213 743 216 b 746 219 749 222 751 225 b 757 230 761 234 762 241 b 763 247 768 250 770 252 z m 175 612 b 171 606 167 599 163 591 b 154 605 155 606 175 612 z m 137 567 b 142 576 148 584 154 593 b 155 592 157 591 158 590 b 157 587 157 583 155 580 b 153 575 150 569 147 564 b 146 562 142 562 140 561 b 139 563 137 566 137 567 z m 103 515 b 107 523 115 529 119 538 b 122 547 125 556 134 559 b 135 558 137 557 138 556 b 124 532 110 509 96 485 b 95 486 94 487 94 488 b 97 497 99 507 103 515 z m 89 477 b 92 466 91 463 79 453 b 73 465 75 470 89 477 z m 16 262 b 18 274 19 283 20 294 b 30 284 28 267 16 262 z m 29 307 b 26 308 23 311 23 312 b 25 315 25 319 28 322 b 29 323 33 320 38 318 b 33 312 31 309 29 307 z m 774 330 b 770 328 767 326 764 323 b 768 325 770 328 774 330 z"},"W":{"x_min":0,"x_max":812,"ha":812,"o":"m 844 575 b 845 575 846 574 847 574 b 849 576 850 578 851 580 b 850 580 849 581 848 581 b 847 579 846 577 844 575 z m 1252 993 b 1252 993 1252 993 1252 993 b 1252 993 1252 993 1252 993 b 1252 993 1252 993 1252 993 z m 1371 1065 b 1364 1061 1359 1058 1354 1055 b 1363 1054 1363 1054 1371 1065 z m 1354 1055 b 1351 1056 1348 1057 1347 1056 b 1335 1048 1326 1039 1315 1031 b 1331 1031 1342 1041 1353 1051 b 1354 1051 1354 1053 1354 1055 z m 1274 1000 b 1283 1006 1291 1012 1299 1019 b 1305 1022 1309 1026 1313 1030 b 1310 1029 1306 1027 1303 1025 b 1285 1015 1269 1004 1252 993 b 1260 990 1267 995 1274 1000 z m 1354 1055 b 1354 1055 1354 1055 1354 1055 b 1354 1055 1354 1055 1354 1055 b 1354 1055 1354 1055 1354 1055 z m 1354 1055 b 1354 1055 1354 1055 1354 1055 b 1354 1055 1354 1055 1354 1055 l 1354 1055 z m 1252 993 b 1252 993 1252 993 1252 993 b 1252 993 1252 993 1252 993 l 1252 993 z m 1314 1031 b 1314 1031 1313 1030 1313 1030 b 1313 1030 1314 1030 1314 1030 l 1314 1031 z m 1314 1031 b 1314 1031 1314 1030 1314 1030 b 1314 1031 1315 1031 1315 1031 b 1314 1031 1314 1031 1314 1031 z m 834 687 b 835 685 837 684 838 682 b 839 682 840 683 841 684 b 839 686 838 688 836 689 b 835 689 835 688 834 687 z m 905 778 b 905 778 906 778 906 778 b 906 778 906 778 906 778 b 906 778 906 778 906 778 b 906 778 906 778 906 778 b 905 778 905 778 905 778 z m 897 772 b 900 774 902 776 905 778 b 902 777 898 776 895 775 b 896 774 896 773 897 772 z m 711 493 b 716 493 719 494 722 494 b 722 496 724 497 725 499 b 723 501 720 504 716 508 b 714 501 713 497 711 493 z m 730 530 b 730 529 731 528 730 527 b 733 528 735 529 737 530 b 737 530 736 533 736 533 b 734 532 732 531 730 530 z m 1080 947 b 1085 952 1095 952 1094 963 b 1089 959 1083 954 1078 950 b 1079 949 1080 948 1080 947 z m 1009 887 b 1009 886 1009 887 1009 886 l 1009 886 b 1009 887 1009 887 1009 887 b 1009 887 1009 887 1009 887 b 1009 887 1009 887 1009 887 z m 997 877 b 997 876 997 875 998 874 b 1002 878 1006 883 1009 887 b 1001 888 999 882 997 877 z m 1207 1030 b 1213 1030 1217 1032 1220 1043 b 1214 1039 1210 1037 1205 1034 b 1205 1033 1206 1032 1207 1030 z m 1094 963 b 1094 963 1094 964 1094 964 b 1094 963 1094 963 1094 963 b 1094 963 1094 963 1094 963 z m 1238 1053 b 1230 1049 1232 1043 1234 1036 b 1239 1040 1243 1043 1250 1048 b 1243 1051 1240 1054 1238 1053 z m 1694 1119 b 1688 1129 1681 1138 1677 1149 b 1671 1164 1661 1175 1647 1182 b 1646 1182 1643 1184 1643 1185 b 1643 1194 1635 1194 1630 1196 b 1621 1199 1610 1201 1600 1203 b 1594 1204 1587 1204 1582 1207 b 1566 1218 1547 1215 1529 1219 b 1526 1220 1523 1219 1520 1218 b 1514 1218 1509 1217 1504 1216 b 1492 1214 1480 1213 1468 1209 b 1445 1201 1420 1193 1397 1183 b 1363 1169 1329 1155 1297 1138 b 1251 1114 1207 1088 1165 1057 b 1132 1033 1099 1010 1066 986 b 1058 980 1051 971 1043 965 b 1008 941 978 911 946 883 b 927 865 910 844 893 825 b 874 804 855 784 836 763 b 822 746 809 728 796 710 b 789 700 785 691 776 683 b 768 674 758 664 758 650 b 756 650 753 651 753 650 b 744 636 735 622 727 608 b 722 601 718 594 713 587 b 701 568 689 548 677 528 b 675 526 674 523 673 521 b 663 505 653 489 643 473 b 633 454 623 434 612 415 b 598 387 581 361 568 333 b 551 299 531 267 518 231 b 512 214 501 199 495 182 b 489 169 481 155 474 142 b 472 143 471 144 471 144 b 480 165 474 189 489 208 b 490 209 491 211 491 213 b 492 238 499 262 508 286 b 512 295 514 306 509 316 b 511 318 514 320 518 322 b 516 324 514 327 514 327 b 519 345 524 360 528 376 b 529 379 527 382 529 385 b 537 407 541 429 542 452 b 542 461 546 470 548 479 b 550 485 552 491 555 497 b 557 504 559 510 563 516 b 569 530 575 543 581 557 b 584 563 586 570 579 572 b 582 578 586 585 588 591 b 591 595 590 600 592 604 b 597 614 604 624 607 635 b 610 642 612 650 614 657 b 617 672 618 689 628 702 b 631 705 632 708 632 711 b 637 722 639 733 644 744 b 648 754 652 767 660 772 b 673 780 667 793 674 802 b 675 804 677 806 678 807 b 688 819 690 846 681 857 b 677 864 671 871 666 877 b 658 885 650 893 640 899 b 626 907 613 913 599 920 b 600 933 609 924 614 927 b 611 935 609 941 599 941 b 593 941 586 943 582 947 b 574 953 570 948 566 943 b 560 937 555 930 550 923 b 531 900 511 876 494 852 b 475 826 458 800 440 774 b 436 766 431 759 426 751 b 417 736 406 722 397 707 b 379 678 362 650 345 621 b 326 590 308 560 290 529 b 280 512 270 496 261 479 b 253 465 242 451 233 436 b 216 408 198 380 181 352 b 170 335 159 317 149 300 b 129 266 109 233 89 199 b 88 197 86 195 82 192 b 83 208 84 221 84 235 b 84 247 90 257 92 268 b 98 300 108 331 119 362 b 125 381 132 399 138 418 b 144 439 153 458 157 480 b 161 498 169 515 175 533 b 176 535 176 537 177 539 b 192 555 197 575 202 595 b 202 599 203 603 205 604 b 213 609 214 617 216 624 b 220 639 224 654 222 670 b 223 673 223 677 225 678 b 234 684 233 693 233 701 b 235 712 230 723 236 733 b 238 735 237 737 236 740 b 234 752 230 763 229 775 b 229 783 226 787 220 791 b 215 794 210 798 204 801 b 208 805 210 808 214 813 b 206 816 198 819 191 822 b 183 824 174 819 166 828 b 173 830 177 832 181 833 b 181 834 181 835 181 836 b 171 835 161 835 151 834 b 149 839 147 843 145 848 b 135 848 124 848 113 848 b 102 847 89 837 86 825 b 85 818 89 811 101 806 b 110 802 118 798 127 794 b 124 770 122 747 116 725 b 101 671 84 617 67 564 b 57 528 41 492 29 456 b 14 413 1 369 -13 326 b -16 318 -20 310 -23 301 b -26 286 -29 271 -32 256 b -36 239 -39 222 -42 205 b -42 201 -42 194 -39 193 b -30 190 -31 181 -28 176 b -12 166 -1 152 8 137 b 11 138 14 139 16 139 b 25 133 33 127 43 120 b 37 116 31 113 27 111 b 30 102 32 97 34 92 b 37 91 39 91 41 90 b 56 82 69 99 84 98 b 86 98 89 101 90 104 b 95 111 100 119 104 126 b 114 143 123 160 133 177 b 143 194 154 211 164 229 b 178 254 194 279 208 305 b 221 325 234 345 246 366 b 261 391 274 416 289 441 b 307 470 327 498 335 532 b 335 535 338 539 341 541 b 349 545 352 552 353 560 b 354 563 355 567 357 570 b 362 583 367 597 372 609 b 380 619 389 629 398 639 b 400 641 401 644 401 647 b 400 654 404 659 410 663 b 417 667 416 673 410 679 b 424 685 436 691 438 706 b 438 709 442 712 443 714 b 451 727 461 738 465 751 b 469 764 475 774 484 783 b 494 794 502 806 512 818 b 514 820 516 823 517 826 b 513 800 506 774 498 749 b 493 730 485 711 480 691 b 468 651 456 611 445 570 b 433 522 421 474 411 425 b 399 375 389 324 378 273 b 373 248 367 222 363 197 b 356 163 348 129 344 95 b 337 49 329 3 339 -42 b 344 -76 356 -105 391 -119 b 408 -126 426 -126 444 -125 b 454 -125 464 -124 474 -125 b 483 -126 490 -125 498 -120 b 504 -115 512 -109 516 -102 b 521 -89 524 -76 525 -62 b 526 -48 533 -36 539 -25 b 547 -10 552 4 556 19 b 558 23 559 27 560 30 b 568 44 580 58 577 76 b 576 78 578 80 579 82 b 589 100 594 120 608 136 b 612 140 614 147 616 154 b 617 159 618 164 619 169 b 622 178 635 184 633 196 b 633 196 634 198 635 198 b 643 203 646 212 648 220 b 652 230 662 238 660 250 b 660 251 662 252 663 253 b 666 257 670 261 672 266 b 678 277 683 288 690 299 b 696 308 698 318 702 328 b 705 338 714 346 721 355 b 722 356 721 358 722 359 b 730 384 738 409 751 432 b 758 444 768 454 772 467 b 778 484 789 498 798 513 b 803 525 811 537 819 549 b 831 568 841 589 856 606 b 875 628 885 655 905 675 b 905 676 905 677 906 678 b 909 684 914 690 918 695 b 923 701 930 706 933 713 b 938 724 949 730 958 740 b 957 722 943 712 937 699 b 940 700 942 701 943 702 b 960 722 975 742 991 761 b 1008 780 1028 798 1047 817 b 1057 827 1068 837 1080 847 b 1103 868 1126 891 1152 911 b 1179 933 1209 952 1237 973 b 1243 977 1253 982 1252 993 b 1245 988 1239 985 1235 979 b 1228 971 1220 969 1210 966 b 1211 970 1212 973 1213 973 b 1224 977 1228 988 1238 993 b 1249 999 1261 1005 1270 1014 b 1289 1031 1312 1043 1335 1056 b 1343 1061 1350 1068 1358 1072 b 1382 1084 1405 1095 1429 1109 b 1461 1128 1498 1138 1534 1149 b 1539 1150 1544 1150 1549 1149 b 1558 1147 1575 1146 1582 1151 b 1588 1155 1593 1156 1599 1155 b 1608 1154 1617 1152 1626 1152 b 1639 1152 1644 1144 1648 1134 b 1654 1117 1661 1101 1662 1082 b 1663 1068 1673 1056 1672 1041 b 1672 1039 1676 1036 1677 1036 b 1680 1037 1684 1040 1684 1042 b 1684 1050 1691 1051 1697 1053 b 1698 1058 1698 1062 1699 1065 b 1707 1085 1704 1102 1694 1119 z m 7 284 b 6 287 4 289 6 290 b 7 301 18 329 21 333 b 23 323 19 306 7 284 z m 28 348 b 21 356 26 360 28 364 b 29 364 31 364 32 363 b 32 359 31 355 28 348 z m 34 372 b 33 372 31 373 29 373 b 28 381 35 386 37 392 b 38 392 39 392 40 391 b 39 385 36 378 34 372 z m 45 407 b 42 418 42 418 51 431 b 55 421 49 414 45 407 z m 343 600 b 341 610 349 614 355 620 b 359 609 359 609 343 600 z m 364 633 b 363 634 362 635 362 636 b 362 637 365 639 366 641 b 367 639 368 638 368 637 b 367 635 365 634 364 633 z m 370 645 b 374 651 373 660 382 662 b 381 655 384 646 370 645 z m 382 663 b 381 673 387 680 394 686 b 396 683 398 680 400 677 b 394 672 387 667 382 663 z m 417 713 b 412 706 404 699 404 689 b 404 688 399 687 395 687 b 399 700 406 711 415 722 b 416 721 417 721 418 721 b 417 718 418 715 417 713 z m 424 728 b 423 738 428 743 437 749 b 436 738 433 731 424 728 z m 471 795 b 468 792 466 787 465 782 b 460 771 453 763 440 756 b 444 772 454 782 461 793 b 469 804 475 817 488 824 b 483 814 482 802 471 795 z m 436 328 b 430 339 441 347 440 356 b 443 347 447 338 436 328 z m 438 444 b 438 438 438 434 438 429 b 430 435 430 435 438 444 z m 351 -22 b 350 -22 349 -21 347 -21 b 348 -19 349 -16 349 -14 b 351 -15 353 -15 353 -16 b 353 -18 352 -20 351 -22 z m 361 -3 b 362 0 362 2 364 5 b 365 5 366 5 368 5 b 367 2 368 0 368 -3 b 366 -3 363 -3 361 -3 z m 385 144 b 382 140 379 136 376 131 b 380 124 380 117 376 108 b 371 94 366 79 365 63 b 365 60 363 58 361 53 b 367 55 370 57 375 59 b 373 45 371 32 368 19 b 365 19 362 20 358 19 b 357 18 356 14 356 11 b 355 6 354 0 354 -6 b 346 -5 342 -5 344 6 b 347 23 351 42 347 60 b 346 63 348 66 349 69 b 350 76 351 82 353 92 b 357 94 359 101 360 110 b 362 130 368 149 371 169 b 371 170 372 171 372 172 b 371 199 386 224 388 251 b 389 265 397 280 400 294 b 404 317 411 340 413 363 b 413 369 418 374 419 380 b 423 394 427 409 431 424 b 440 425 441 417 443 413 b 437 397 431 381 425 363 b 430 357 430 346 424 336 b 423 335 423 334 423 333 b 424 311 414 292 410 271 b 409 268 408 265 406 262 b 401 251 398 236 399 223 b 399 222 398 219 397 218 b 395 211 391 204 387 196 b 394 197 397 197 400 198 b 410 210 401 228 414 239 b 414 228 414 218 411 208 b 410 198 406 187 400 176 b 399 180 397 184 395 189 b 392 186 389 184 386 181 b 387 176 390 172 393 167 b 390 164 386 161 383 158 b 386 156 389 155 394 152 b 395 158 396 164 397 170 b 403 170 406 166 405 162 b 403 151 399 141 395 130 b 385 131 389 140 385 144 z m 432 308 l 430 281 b 428 281 425 280 422 279 b 418 290 420 299 432 308 z m 419 249 b 419 248 418 247 417 245 b 415 247 414 248 413 249 b 412 250 414 252 415 254 b 417 252 419 251 419 249 z m 400 32 b 399 32 398 32 397 32 b 397 35 399 39 399 42 b 400 42 401 41 403 41 b 402 38 401 35 400 32 z m 403 27 b 404 24 405 22 404 21 b 402 19 400 19 399 18 b 398 19 397 21 397 22 b 398 24 400 25 403 27 z m 396 -32 b 395 -39 392 -45 390 -53 b 379 -43 397 -30 385 -22 b 395 -21 399 -24 396 -32 z m 400 -11 b 393 -10 390 -6 390 -1 b 390 1 394 3 394 3 b 397 0 401 -4 404 -8 b 400 -10 400 -11 400 -11 z m 417 90 b 415 85 412 80 411 75 b 410 71 409 66 410 61 b 412 53 408 50 398 49 b 407 68 399 87 410 104 b 419 102 420 98 417 90 z m 452 248 b 444 235 448 220 442 206 b 440 203 440 198 439 195 b 436 189 432 184 436 178 b 437 177 437 173 436 172 b 427 163 429 152 428 142 b 426 130 423 121 411 111 b 415 139 420 165 428 190 b 431 197 429 205 432 212 b 437 229 438 246 442 263 b 442 268 446 276 456 279 b 455 268 456 257 452 248 z m 454 306 b 453 320 457 330 466 339 b 471 325 466 311 454 306 z m 475 377 b 474 377 472 379 472 380 b 473 382 475 383 477 384 b 477 383 478 382 480 379 b 478 378 476 377 475 377 z m 1407 1179 b 1400 1170 1396 1166 1391 1170 b 1389 1171 1390 1174 1389 1176 b 1394 1176 1398 1177 1407 1179 z m 1316 1138 b 1316 1137 1317 1136 1318 1135 b 1312 1131 1306 1126 1301 1123 b 1294 1118 1286 1114 1279 1111 b 1272 1108 1267 1099 1256 1104 b 1278 1116 1296 1127 1316 1138 z m 1251 1102 b 1252 1101 1253 1101 1254 1100 b 1252 1098 1252 1094 1250 1094 b 1240 1087 1229 1082 1219 1076 b 1226 1090 1239 1095 1251 1102 z m 1198 1066 b 1193 1054 1181 1050 1169 1043 b 1174 1059 1186 1062 1198 1066 z m 1100 997 b 1114 1004 1122 1018 1137 1024 b 1145 1028 1151 1037 1158 1043 b 1160 1044 1163 1044 1166 1042 b 1163 1039 1159 1036 1155 1033 b 1143 1022 1130 1011 1117 1000 b 1111 996 1105 988 1097 992 b 1098 993 1098 996 1100 997 z m 1013 936 b 1030 938 1038 953 1052 960 b 1066 968 1074 981 1086 992 b 1089 992 1093 991 1097 991 b 1094 988 1093 983 1091 981 b 1079 972 1067 964 1055 955 b 1043 944 1031 933 1018 922 b 1016 921 1013 920 1011 920 b 1012 925 1013 930 1013 936 z m 980 903 b 981 903 981 904 981 904 b 991 908 1000 917 1011 919 b 1011 918 1012 916 1011 915 b 999 903 987 890 976 878 b 975 877 971 877 968 877 b 972 886 977 895 980 903 z m 952 864 b 953 863 954 863 955 862 b 952 859 951 855 948 850 b 942 859 948 861 952 864 z m 515 159 b 514 170 519 182 527 187 b 523 178 520 169 515 159 z m 568 271 b 569 267 566 262 564 258 b 556 245 548 232 540 218 b 538 214 536 210 534 206 b 531 213 534 220 538 227 b 542 238 548 249 555 260 b 559 268 561 275 549 283 b 562 282 566 288 571 295 b 575 304 577 309 569 314 b 582 339 594 364 607 389 b 628 429 651 469 675 508 b 695 540 713 574 733 607 b 741 620 750 633 758 646 b 759 647 758 649 758 650 b 767 661 777 671 784 682 b 805 708 824 734 844 760 b 858 777 872 794 886 811 b 892 818 898 824 905 830 b 909 834 912 843 920 836 b 924 841 930 845 935 851 b 936 853 936 857 937 861 b 943 852 942 840 935 837 b 923 831 917 817 903 813 b 902 812 902 809 901 807 b 898 800 895 792 887 788 b 883 787 881 782 879 778 b 876 772 871 767 867 761 b 854 742 834 729 824 710 b 814 692 796 679 791 658 b 775 643 765 622 753 604 b 743 588 731 572 721 555 b 720 553 718 551 718 550 b 718 538 710 531 704 522 b 699 513 693 504 687 496 b 685 493 684 491 684 488 b 681 481 678 473 672 467 b 669 465 667 462 666 459 b 663 445 654 435 647 423 b 645 421 643 419 642 416 b 642 401 629 392 623 379 b 620 370 615 362 608 350 b 607 350 603 349 599 347 b 604 345 604 342 601 337 b 594 323 586 308 578 294 b 573 286 568 280 568 271 z m 649 402 b 650 416 659 427 669 438 b 667 428 666 418 662 408 b 661 405 654 403 649 402 z m 649 392 b 650 386 647 380 641 376 b 640 376 639 377 638 377 b 640 383 643 388 646 393 b 647 393 648 393 649 392 z m 619 342 b 618 331 615 324 606 319 b 608 327 608 335 619 342 z m 590 293 b 592 295 594 296 596 298 b 597 297 598 296 598 296 b 596 294 595 292 593 290 b 592 291 591 292 590 293 z m 594 270 b 599 280 599 291 611 296 b 612 285 608 277 594 270 z m 1022 807 b 1022 806 1020 805 1019 805 b 1018 804 1016 806 1016 807 b 1016 809 1018 811 1020 816 b 1022 810 1023 808 1022 807 z m 1098 943 b 1099 949 1103 949 1107 948 b 1106 943 1103 940 1098 943 z m 1166 981 b 1165 983 1165 984 1164 985 b 1173 987 1173 1003 1189 996 b 1181 991 1173 986 1166 981 z m 1189 951 b 1189 953 1188 954 1187 955 b 1193 958 1199 960 1204 962 b 1204 961 1204 961 1205 960 b 1200 957 1194 954 1189 951 z m 1263 1046 b 1253 1040 1241 1034 1231 1028 b 1227 1026 1223 1026 1221 1026 b 1215 1019 1210 1013 1203 1005 b 1201 1014 1212 1023 1198 1025 l 1197 1005 b 1191 1010 1191 1010 1190 1016 l 1179 1016 b 1180 1006 1172 1004 1165 1000 b 1150 989 1135 978 1120 967 b 1127 965 1133 963 1142 960 b 1129 954 1119 948 1108 949 b 1109 952 1109 955 1111 961 b 1101 955 1094 950 1088 945 b 1090 942 1090 939 1093 934 b 1088 936 1086 938 1084 938 b 1082 939 1080 938 1077 938 b 1078 936 1078 934 1080 932 b 1081 930 1083 929 1086 926 b 1078 920 1072 916 1066 910 b 1059 904 1049 903 1045 893 b 1042 887 1034 886 1032 896 b 1027 892 1023 889 1018 885 b 1024 884 1027 883 1033 882 b 1025 874 1019 867 1011 859 b 1012 858 1014 857 1017 855 b 1015 854 1013 850 1011 850 b 999 850 992 840 983 837 b 981 836 979 835 979 834 b 978 822 965 817 960 808 b 957 803 950 799 952 791 b 953 788 949 784 946 781 b 934 765 921 749 909 734 b 905 729 901 726 897 722 b 895 723 894 724 893 725 b 903 738 914 751 923 764 b 904 751 892 730 878 711 b 881 712 884 713 890 716 b 886 708 883 703 879 697 b 875 698 871 699 867 699 b 870 678 864 670 851 671 b 852 661 850 656 836 643 b 836 647 836 649 835 652 b 824 648 824 648 825 631 b 806 626 806 626 808 611 b 812 616 815 620 820 626 b 821 622 822 620 822 619 b 810 601 798 583 785 565 b 783 560 779 555 772 556 b 771 556 769 555 768 554 b 759 539 750 525 741 511 b 738 507 736 502 733 498 b 731 496 730 494 729 493 b 725 483 720 474 716 465 b 712 455 701 449 702 437 b 702 436 702 435 701 434 b 682 417 676 393 663 374 b 657 366 651 359 646 351 b 640 340 633 328 627 317 b 624 312 622 307 618 301 b 611 308 612 313 617 317 b 624 322 625 327 626 334 b 628 340 632 346 635 353 b 634 356 632 359 629 363 b 641 364 641 364 648 374 b 651 380 657 385 663 393 b 662 396 662 401 668 406 b 673 409 675 418 678 425 b 679 429 679 435 681 437 b 691 445 691 458 700 467 b 701 468 699 470 698 474 b 692 464 687 455 681 446 b 679 441 677 436 670 439 b 682 459 689 482 706 501 b 708 503 709 507 710 511 b 713 516 712 522 719 524 b 721 524 723 528 724 530 b 724 531 723 533 724 534 b 730 540 733 549 737 557 b 741 565 749 571 756 578 b 757 579 758 580 761 581 b 759 584 757 586 755 590 b 765 596 765 612 782 610 b 778 613 776 615 772 619 b 780 625 787 629 794 634 b 791 649 804 658 811 667 b 816 673 822 676 821 684 b 821 685 824 687 825 688 b 833 699 841 710 851 720 b 866 735 877 752 886 770 b 889 776 894 780 901 787 b 903 783 904 781 906 778 b 910 786 911 795 921 799 b 923 799 924 803 925 806 b 931 823 945 835 957 849 b 960 851 965 851 968 853 b 972 855 978 858 978 861 b 983 877 994 886 1006 895 b 1009 898 1012 901 1017 905 b 1014 897 1011 892 1009 887 b 1018 894 1026 901 1034 907 b 1036 909 1037 912 1036 913 b 1030 922 1040 927 1043 930 b 1059 943 1075 955 1092 967 b 1093 969 1096 970 1100 969 b 1098 967 1096 966 1094 964 b 1104 965 1107 967 1119 978 b 1114 977 1111 977 1106 976 b 1119 991 1122 992 1129 985 b 1137 989 1143 993 1150 997 b 1149 998 1149 999 1149 1000 b 1145 999 1140 999 1134 999 b 1136 1002 1137 1005 1139 1007 b 1157 1019 1178 1027 1192 1045 b 1211 1047 1221 1064 1238 1071 b 1249 1076 1259 1087 1269 1095 b 1277 1093 1276 1086 1271 1080 b 1267 1073 1261 1066 1257 1059 b 1256 1058 1255 1056 1254 1052 b 1259 1053 1263 1053 1267 1053 b 1265 1051 1265 1047 1263 1046 z m 1268 1054 b 1271 1057 1274 1062 1278 1065 b 1281 1067 1286 1068 1290 1068 b 1284 1059 1278 1054 1268 1054 z m 1317 1080 b 1316 1082 1316 1084 1315 1085 b 1320 1088 1325 1090 1329 1092 b 1330 1091 1330 1090 1331 1089 b 1327 1085 1324 1078 1317 1080 z m 1379 1114 b 1369 1109 1359 1104 1348 1098 b 1346 1097 1343 1096 1340 1095 b 1339 1096 1338 1098 1338 1099 b 1341 1101 1344 1105 1346 1105 b 1361 1107 1371 1124 1391 1120 b 1386 1117 1383 1116 1379 1114 z m 1398 1142 b 1385 1127 1364 1125 1350 1112 b 1336 1115 1329 1099 1317 1098 b 1316 1098 1314 1098 1314 1097 b 1304 1078 1294 1088 1283 1094 b 1283 1095 1283 1098 1284 1098 b 1296 1105 1306 1114 1315 1124 b 1319 1129 1325 1130 1331 1123 b 1335 1129 1340 1133 1344 1137 b 1350 1143 1357 1147 1365 1146 b 1367 1146 1369 1146 1372 1146 b 1377 1146 1383 1154 1390 1148 b 1393 1146 1400 1147 1404 1146 b 1402 1145 1399 1144 1398 1142 z m 1405 1128 b 1404 1129 1404 1130 1403 1130 b 1406 1132 1407 1133 1409 1134 b 1411 1135 1413 1134 1415 1134 b 1415 1133 1415 1132 1415 1132 b 1412 1131 1408 1129 1405 1128 z m 1515 1187 b 1503 1183 1491 1180 1478 1176 b 1473 1174 1469 1172 1465 1169 b 1457 1162 1449 1161 1442 1167 b 1433 1153 1417 1154 1406 1147 b 1398 1162 1400 1163 1415 1167 b 1421 1168 1428 1169 1434 1171 b 1442 1175 1454 1173 1458 1186 b 1459 1183 1460 1181 1461 1179 b 1467 1181 1473 1182 1479 1185 b 1481 1186 1484 1188 1486 1190 b 1492 1197 1498 1201 1507 1201 b 1506 1198 1505 1196 1503 1192 b 1509 1193 1514 1193 1520 1193 b 1520 1192 1520 1192 1521 1191 b 1519 1189 1517 1187 1515 1187 z m 1507 1201 b 1524 1208 1528 1208 1544 1203 b 1530 1199 1519 1196 1507 1201 z m 1007 870 b 1008 869 1008 869 1009 868 b 1011 871 1013 873 1014 876 b 1013 876 1013 877 1012 877 b 1010 875 1008 872 1007 870 z m 960 824 b 963 827 966 829 971 834 b 962 834 960 831 960 824 z m 827 673 b 828 672 828 672 829 671 b 830 672 832 673 834 674 b 833 675 833 675 832 676 l 827 673 z m 829 727 b 829 728 828 729 827 730 b 823 725 820 720 816 715 b 816 714 817 714 818 713 b 821 718 826 723 829 727 z m 598 347 b 598 347 599 347 599 347 b 599 347 599 347 599 347 l 598 347 z m 1094 963 b 1094 963 1094 964 1094 964 b 1094 964 1094 964 1094 964 l 1094 963 z m 688 521 b 688 518 687 515 687 512 b 688 515 690 517 692 519 b 690 520 689 521 688 521 z m 687 512 b 686 512 686 512 686 512 l 686 512 l 685 511 b 685 511 685 511 685 511 b 686 512 686 512 687 512 z m 598 347 b 598 347 599 347 599 347 b 599 348 599 348 598 348 b 598 348 598 347 598 347 z m 598 348 b 600 352 603 357 605 363 b 597 358 596 353 598 348 z m 741 599 b 740 600 739 600 738 601 b 736 597 733 592 729 588 b 730 587 731 587 732 586 b 735 590 738 595 741 599 z m 685 511 b 674 504 673 492 668 482 b 669 482 670 481 672 481 b 676 491 681 501 685 511 z m 626 408 b 626 408 626 407 626 407 b 626 407 626 408 627 408 b 627 408 626 408 626 408 z m 582 316 b 584 321 587 327 590 332 b 580 330 582 323 582 316 z m 626 407 b 621 398 616 389 610 381 b 612 380 613 379 615 379 b 617 389 625 396 626 407 z m 627 409 b 641 421 643 439 653 453 b 641 440 633 425 627 409 z m 627 409 b 627 409 626 408 626 408 l 627 408 b 627 408 627 409 627 409 z"}}}
